<ttFont>
    <TTGlyph name=".notdef" xMin="172" yMin="-222" xMax="1946" yMax="1661">
      <contour>
        <pt x="174" y="-3" on="1"/>
        <pt x="176" y="39" on="0"/>
        <pt x="182" y="155" on="0"/>
        <pt x="189" y="289" on="0"/>
        <pt x="195" y="432" on="0"/>
        <pt x="201" y="569" on="0"/>
        <pt x="207" y="692" on="0"/>
        <pt x="209" y="739" on="1"/>
        <pt x="210" y="779" on="0"/>
        <pt x="211" y="908" on="0"/>
        <pt x="210" y="1061" on="0"/>
        <pt x="209" y="1227" on="0"/>
        <pt x="208" y="1380" on="0"/>
        <pt x="208" y="1510" on="0"/>
        <pt x="209" y="1552" on="1"/>
        <pt x="211" y="1580" on="0"/>
        <pt x="224" y="1621" on="0"/>
        <pt x="255" y="1648" on="0"/>
        <pt x="309" y="1661" on="0"/>
        <pt x="352" y="1661" on="1"/>
        <pt x="358" y="1661" on="0"/>
        <pt x="435" y="1661" on="0"/>
        <pt x="560" y="1661" on="0"/>
        <pt x="725" y="1660" on="0"/>
        <pt x="912" y="1660" on="0"/>
        <pt x="1114" y="1659" on="0"/>
        <pt x="1313" y="1659" on="0"/>
        <pt x="1501" y="1658" on="0"/>
        <pt x="1661" y="1658" on="0"/>
        <pt x="1785" y="1658" on="0"/>
        <pt x="1820" y="1658" on="1"/>
        <pt x="1838" y="1658" on="0"/>
        <pt x="1877" y="1650" on="0"/>
        <pt x="1910" y="1630" on="0"/>
        <pt x="1933" y="1594" on="0"/>
        <pt x="1935" y="1566" on="1"/>
        <pt x="1942" y="1483" on="0"/>
        <pt x="1946" y="1271" on="0"/>
        <pt x="1945" y="1048" on="0"/>
        <pt x="1942" y="827" on="0"/>
        <pt x="1942" y="735" on="1"/>
        <pt x="1942" y="694" on="0"/>
        <pt x="1942" y="565" on="0"/>
        <pt x="1943" y="412" on="0"/>
        <pt x="1943" y="247" on="0"/>
        <pt x="1943" y="94" on="0"/>
        <pt x="1943" y="-37" on="0"/>
        <pt x="1942" y="-78" on="1"/>
        <pt x="1940" y="-106" on="0"/>
        <pt x="1927" y="-147" on="0"/>
        <pt x="1896" y="-174" on="0"/>
        <pt x="1842" y="-187" on="0"/>
        <pt x="1799" y="-187" on="1"/>
        <pt x="1588" y="-187" on="0"/>
        <pt x="1238" y="-192" on="0"/>
        <pt x="948" y="-200" on="0"/>
        <pt x="711" y="-209" on="0"/>
        <pt x="516" y="-217" on="0"/>
        <pt x="356" y="-222" on="0"/>
        <pt x="288" y="-222" on="1"/>
        <pt x="270" y="-222" on="0"/>
        <pt x="230" y="-214" on="0"/>
        <pt x="196" y="-194" on="0"/>
        <pt x="174" y="-158" on="0"/>
        <pt x="173" y="-130" on="1"/>
        <pt x="173" y="-92" on="0"/>
        <pt x="172" y="-31" on="0"/>
      </contour>
      <contour>
        <pt x="370" y="10" on="1"/>
        <pt x="370" y="-12" on="0"/>
        <pt x="392" y="-29" on="0"/>
        <pt x="420" y="-29" on="1"/>
        <pt x="428" y="-29" on="0"/>
        <pt x="467" y="-25" on="0"/>
        <pt x="562" y="-19" on="0"/>
        <pt x="730" y="-12" on="0"/>
        <pt x="1005" y="-6" on="0"/>
        <pt x="1403" y="-3" on="0"/>
        <pt x="1680" y="-3" on="1"/>
        <pt x="1709" y="-3" on="0"/>
        <pt x="1739" y="-6" on="0"/>
        <pt x="1751" y="-1" on="0"/>
        <pt x="1751" y="17" on="0"/>
        <pt x="1751" y="38" on="1"/>
        <pt x="1755" y="95" on="0"/>
        <pt x="1762" y="248" on="0"/>
        <pt x="1767" y="426" on="0"/>
        <pt x="1769" y="623" on="0"/>
        <pt x="1769" y="824" on="0"/>
        <pt x="1765" y="1021" on="0"/>
        <pt x="1758" y="1201" on="0"/>
        <pt x="1746" y="1356" on="0"/>
        <pt x="1738" y="1414" on="1"/>
        <pt x="1737" y="1423" on="0"/>
        <pt x="1735" y="1442" on="0"/>
        <pt x="1725" y="1456" on="0"/>
        <pt x="1704" y="1465" on="0"/>
        <pt x="1684" y="1465" on="1"/>
        <pt x="1674" y="1465" on="0"/>
        <pt x="1618" y="1467" on="0"/>
        <pt x="1505" y="1469" on="0"/>
        <pt x="1325" y="1473" on="0"/>
        <pt x="1058" y="1475" on="0"/>
        <pt x="694" y="1477" on="0"/>
        <pt x="453" y="1477" on="1"/>
        <pt x="400" y="1477" on="0"/>
        <pt x="400" y="1433" on="1"/>
        <pt x="400" y="1375" on="0"/>
        <pt x="397" y="1216" on="0"/>
        <pt x="391" y="1030" on="0"/>
        <pt x="385" y="824" on="0"/>
        <pt x="378" y="614" on="0"/>
        <pt x="372" y="409" on="0"/>
        <pt x="369" y="224" on="0"/>
        <pt x="368" y="67" on="0"/>
      </contour>
      <contour>
        <pt x="535" y="247" on="1"/>
        <pt x="535" y="288" on="0"/>
        <pt x="566" y="344" on="0"/>
        <pt x="612" y="392" on="0"/>
        <pt x="667" y="441" on="0"/>
        <pt x="691" y="475" on="1"/>
        <pt x="700" y="488" on="0"/>
        <pt x="732" y="528" on="0"/>
        <pt x="771" y="575" on="0"/>
        <pt x="813" y="625" on="0"/>
        <pt x="849" y="668" on="0"/>
        <pt x="875" y="701" on="0"/>
        <pt x="879" y="709" on="1"/>
        <pt x="879" y="708" on="0"/>
        <pt x="859" y="739" on="0"/>
        <pt x="827" y="794" on="0"/>
        <pt x="784" y="865" on="0"/>
        <pt x="739" y="942" on="0"/>
        <pt x="693" y="1020" on="0"/>
        <pt x="673" y="1053" on="1"/>
        <pt x="660" y="1075" on="0"/>
        <pt x="625" y="1118" on="0"/>
        <pt x="594" y="1165" on="0"/>
        <pt x="573" y="1217" on="0"/>
        <pt x="573" y="1248" on="1"/>
        <pt x="573" y="1264" on="0"/>
        <pt x="588" y="1294" on="0"/>
        <pt x="616" y="1316" on="0"/>
        <pt x="655" y="1330" on="0"/>
        <pt x="678" y="1330" on="1"/>
        <pt x="703" y="1330" on="0"/>
        <pt x="764" y="1274" on="0"/>
        <pt x="828" y="1188" on="0"/>
        <pt x="894" y="1082" on="0"/>
        <pt x="953" y="981" on="0"/>
        <pt x="1004" y="898" on="0"/>
        <pt x="1021" y="877" on="1"/>
        <pt x="1045" y="907" on="0"/>
        <pt x="1113" y="998" on="0"/>
        <pt x="1193" y="1100" on="0"/>
        <pt x="1281" y="1202" on="0"/>
        <pt x="1372" y="1284" on="0"/>
        <pt x="1461" y="1335" on="0"/>
        <pt x="1502" y="1335" on="1"/>
        <pt x="1551" y="1335" on="0"/>
        <pt x="1603" y="1287" on="0"/>
        <pt x="1603" y="1258" on="1"/>
        <pt x="1603" y="1244" on="0"/>
        <pt x="1591" y="1216" on="0"/>
        <pt x="1578" y="1204" on="1"/>
        <pt x="1578" y="1204" on="0"/>
        <pt x="1549" y="1177" on="0"/>
        <pt x="1502" y="1136" on="0"/>
        <pt x="1445" y="1084" on="0"/>
        <pt x="1390" y="1032" on="0"/>
        <pt x="1343" y="986" on="0"/>
        <pt x="1330" y="971" on="1"/>
        <pt x="1304" y="942" on="0"/>
        <pt x="1257" y="886" on="0"/>
        <pt x="1210" y="828" on="0"/>
        <pt x="1161" y="765" on="0"/>
        <pt x="1134" y="729" on="1"/>
        <pt x="1146" y="709" on="0"/>
        <pt x="1176" y="662" on="0"/>
        <pt x="1211" y="614" on="0"/>
        <pt x="1247" y="565" on="0"/>
        <pt x="1265" y="544" on="1"/>
        <pt x="1301" y="500" on="0"/>
        <pt x="1367" y="422" on="0"/>
        <pt x="1432" y="362" on="0"/>
        <pt x="1496" y="327" on="0"/>
        <pt x="1531" y="327" on="1"/>
        <pt x="1543" y="327" on="0"/>
        <pt x="1560" y="330" on="0"/>
        <pt x="1575" y="330" on="0"/>
        <pt x="1590" y="323" on="0"/>
        <pt x="1599" y="313" on="1"/>
        <pt x="1616" y="292" on="0"/>
        <pt x="1627" y="257" on="0"/>
        <pt x="1627" y="236" on="1"/>
        <pt x="1627" y="199" on="0"/>
        <pt x="1605" y="150" on="0"/>
        <pt x="1569" y="120" on="0"/>
        <pt x="1526" y="107" on="0"/>
        <pt x="1505" y="107" on="1"/>
        <pt x="1467" y="107" on="0"/>
        <pt x="1383" y="143" on="0"/>
        <pt x="1300" y="199" on="0"/>
        <pt x="1223" y="266" on="0"/>
        <pt x="1192" y="296" on="1"/>
        <pt x="1169" y="318" on="0"/>
        <pt x="1103" y="400" on="0"/>
        <pt x="1071" y="442" on="1"/>
        <pt x="1034" y="490" on="0"/>
        <pt x="995" y="544" on="1"/>
        <pt x="969" y="516" on="0"/>
        <pt x="901" y="437" on="0"/>
        <pt x="839" y="361" on="0"/>
        <pt x="795" y="302" on="0"/>
        <pt x="793" y="294" on="1"/>
        <pt x="789" y="280" on="0"/>
        <pt x="777" y="232" on="0"/>
        <pt x="751" y="185" on="0"/>
        <pt x="709" y="150" on="0"/>
        <pt x="675" y="150" on="1"/>
        <pt x="648" y="150" on="0"/>
        <pt x="598" y="158" on="0"/>
        <pt x="559" y="180" on="0"/>
        <pt x="535" y="218" on="0"/>
      </contour>
    </TTGlyph>
    <TTGlyph name="A" xMin="119" yMin="-94" xMax="1507" yMax="1398">
      <contour>
        <pt x="119" y="86" on="1"/>
        <pt x="119" y="122" on="0"/>
        <pt x="143" y="184" on="0"/>
        <pt x="157" y="211" on="1"/>
        <pt x="159" y="215" on="0"/>
        <pt x="168" y="232" on="0"/>
        <pt x="192" y="287" on="0"/>
        <pt x="235" y="397" on="0"/>
        <pt x="271" y="495" on="1"/>
        <pt x="270" y="507" on="0"/>
        <pt x="269" y="529" on="0"/>
        <pt x="269" y="539" on="1"/>
        <pt x="269" y="580" on="0"/>
        <pt x="296" y="637" on="0"/>
        <pt x="334" y="664" on="1"/>
        <pt x="588" y="1194" on="1"/>
        <pt x="603" y="1225" on="0"/>
        <pt x="639" y="1296" on="0"/>
        <pt x="684" y="1357" on="0"/>
        <pt x="739" y="1398" on="0"/>
        <pt x="772" y="1398" on="1"/>
        <pt x="797" y="1398" on="0"/>
        <pt x="859" y="1339" on="0"/>
        <pt x="924" y="1246" on="0"/>
        <pt x="989" y="1133" on="0"/>
        <pt x="1044" y="1027" on="0"/>
        <pt x="1086" y="940" on="0"/>
        <pt x="1095" y="920" on="1"/>
        <pt x="1145" y="808" on="0"/>
        <pt x="1195" y="691" on="0"/>
        <pt x="1209" y="675" on="1"/>
        <pt x="1255" y="646" on="0"/>
        <pt x="1291" y="569" on="0"/>
        <pt x="1291" y="507" on="1"/>
        <pt x="1319" y="436" on="0"/>
        <pt x="1364" y="293" on="0"/>
        <pt x="1391" y="233" on="1"/>
        <pt x="1411" y="189" on="0"/>
        <pt x="1453" y="132" on="0"/>
        <pt x="1486" y="81" on="0"/>
        <pt x="1507" y="26" on="0"/>
        <pt x="1507" y="-17" on="1"/>
        <pt x="1507" y="-46" on="0"/>
        <pt x="1479" y="-77" on="0"/>
        <pt x="1440" y="-92" on="0"/>
        <pt x="1400" y="-94" on="0"/>
        <pt x="1388" y="-94" on="1"/>
        <pt x="1357" y="-94" on="0"/>
        <pt x="1295" y="-24" on="0"/>
        <pt x="1241" y="73" on="0"/>
        <pt x="1200" y="175" on="0"/>
        <pt x="1191" y="208" on="1"/>
        <pt x="1180" y="245" on="0"/>
        <pt x="1157" y="327" on="0"/>
        <pt x="1135" y="398" on="0"/>
        <pt x="1112" y="448" on="0"/>
        <pt x="1101" y="454" on="1"/>
        <pt x="1085" y="468" on="0"/>
        <pt x="1045" y="477" on="0"/>
        <pt x="1012" y="477" on="1"/>
        <pt x="955" y="477" on="0"/>
        <pt x="839" y="478" on="0"/>
        <pt x="717" y="479" on="0"/>
        <pt x="586" y="480" on="0"/>
        <pt x="513" y="480" on="1"/>
        <pt x="493" y="480" on="0"/>
        <pt x="468" y="473" on="0"/>
        <pt x="447" y="448" on="0"/>
        <pt x="426" y="400" on="0"/>
        <pt x="412" y="358" on="1"/>
        <pt x="332" y="143" on="1"/>
        <pt x="323" y="111" on="0"/>
        <pt x="307" y="56" on="0"/>
        <pt x="300" y="45" on="1"/>
        <pt x="291" y="30" on="0"/>
        <pt x="270" y="13" on="0"/>
        <pt x="248" y="5" on="0"/>
        <pt x="224" y="4" on="0"/>
        <pt x="212" y="4" on="1"/>
        <pt x="169" y="4" on="0"/>
        <pt x="119" y="39" on="0"/>
      </contour>
      <contour>
        <pt x="533" y="662" on="1"/>
        <pt x="628" y="661" on="0"/>
        <pt x="751" y="659" on="0"/>
        <pt x="829" y="657" on="0"/>
        <pt x="873" y="656" on="0"/>
        <pt x="890" y="656" on="1"/>
        <pt x="902" y="656" on="0"/>
        <pt x="924" y="657" on="0"/>
        <pt x="953" y="658" on="0"/>
        <pt x="992" y="660" on="0"/>
        <pt x="1020" y="662" on="1"/>
        <pt x="1006" y="702" on="0"/>
        <pt x="949" y="824" on="0"/>
        <pt x="882" y="955" on="0"/>
        <pt x="816" y="1079" on="0"/>
        <pt x="794" y="1122" on="1"/>
        <pt x="774" y="1160" on="0"/>
        <pt x="762" y="1160" on="1"/>
        <pt x="756" y="1160" on="0"/>
        <pt x="722" y="1101" on="0"/>
        <pt x="677" y="1009" on="0"/>
        <pt x="627" y="894" on="0"/>
        <pt x="580" y="784" on="0"/>
        <pt x="542" y="689" on="0"/>
      </contour>
    </TTGlyph>
    <TTGlyph name="AE" xMin="21" yMin="-43" xMax="2092" yMax="1357">
      <contour>
        <pt x="21" y="51" on="1"/>
        <pt x="21" y="74" on="0"/>
        <pt x="38" y="95" on="1"/>
        <pt x="102" y="176" on="0"/>
        <pt x="209" y="318" on="0"/>
        <pt x="303" y="447" on="0"/>
        <pt x="386" y="564" on="0"/>
        <pt x="425" y="620" on="1"/>
        <pt x="425" y="631" on="1"/>
        <pt x="425" y="655" on="0"/>
        <pt x="437" y="687" on="0"/>
        <pt x="457" y="707" on="0"/>
        <pt x="482" y="717" on="0"/>
        <pt x="495" y="719" on="1"/>
        <pt x="540" y="782" on="0"/>
        <pt x="633" y="908" on="0"/>
        <pt x="741" y="1044" on="0"/>
        <pt x="868" y="1193" on="0"/>
        <pt x="945" y="1279" on="1"/>
        <pt x="954" y="1289" on="0"/>
        <pt x="990" y="1316" on="0"/>
        <pt x="1033" y="1340" on="0"/>
        <pt x="1075" y="1357" on="0"/>
        <pt x="1090" y="1357" on="1"/>
        <pt x="1113" y="1357" on="0"/>
        <pt x="1131" y="1350" on="1"/>
        <pt x="1142" y="1347" on="0"/>
        <pt x="1166" y="1339" on="0"/>
        <pt x="1179" y="1334" on="1"/>
        <pt x="1177" y="1334" on="1"/>
        <pt x="1195" y="1324" on="0"/>
        <pt x="1239" y="1308" on="0"/>
        <pt x="1269" y="1308" on="1"/>
        <pt x="1310" y="1308" on="0"/>
        <pt x="1416" y="1310" on="0"/>
        <pt x="1535" y="1312" on="0"/>
        <pt x="1660" y="1315" on="0"/>
        <pt x="1782" y="1317" on="0"/>
        <pt x="1894" y="1319" on="0"/>
        <pt x="1941" y="1319" on="1"/>
        <pt x="1985" y="1319" on="0"/>
        <pt x="2043" y="1311" on="0"/>
        <pt x="2078" y="1289" on="0"/>
        <pt x="2092" y="1248" on="0"/>
        <pt x="2092" y="1214" on="1"/>
        <pt x="2092" y="1199" on="0"/>
        <pt x="2077" y="1169" on="0"/>
        <pt x="2053" y="1145" on="0"/>
        <pt x="2022" y="1129" on="0"/>
        <pt x="2006" y="1129" on="1"/>
        <pt x="1196" y="1135" on="1"/>
        <pt x="1195" y="1135" on="1"/>
        <pt x="1194" y="1135" on="0"/>
        <pt x="1192" y="1119" on="0"/>
        <pt x="1192" y="1085" on="1"/>
        <pt x="1192" y="1054" on="0"/>
        <pt x="1195" y="934" on="0"/>
        <pt x="1199" y="831" on="1"/>
        <pt x="1204" y="716" on="1"/>
        <pt x="1526" y="716" on="1"/>
        <pt x="1543" y="716" on="0"/>
        <pt x="1601" y="721" on="0"/>
        <pt x="1629" y="725" on="1"/>
        <pt x="1662" y="729" on="0"/>
        <pt x="1697" y="734" on="1"/>
        <pt x="1718" y="734" on="0"/>
        <pt x="1754" y="713" on="0"/>
        <pt x="1781" y="683" on="0"/>
        <pt x="1796" y="648" on="0"/>
        <pt x="1796" y="635" on="1"/>
        <pt x="1796" y="616" on="0"/>
        <pt x="1784" y="580" on="0"/>
        <pt x="1763" y="553" on="0"/>
        <pt x="1736" y="536" on="0"/>
        <pt x="1721" y="536" on="1"/>
        <pt x="1212" y="541" on="1"/>
        <pt x="1212" y="525" on="0"/>
        <pt x="1213" y="462" on="0"/>
        <pt x="1214" y="387" on="0"/>
        <pt x="1215" y="307" on="0"/>
        <pt x="1216" y="239" on="0"/>
        <pt x="1217" y="190" on="0"/>
        <pt x="1217" y="184" on="1"/>
        <pt x="1243" y="182" on="0"/>
        <pt x="1308" y="182" on="0"/>
        <pt x="1345" y="182" on="1"/>
        <pt x="1414" y="182" on="0"/>
        <pt x="1570" y="184" on="0"/>
        <pt x="1719" y="187" on="0"/>
        <pt x="1847" y="190" on="0"/>
        <pt x="1888" y="190" on="1"/>
        <pt x="1941" y="190" on="0"/>
        <pt x="2002" y="167" on="0"/>
        <pt x="2034" y="131" on="0"/>
        <pt x="2042" y="89" on="0"/>
        <pt x="2042" y="71" on="1"/>
        <pt x="2042" y="44" on="0"/>
        <pt x="2022" y="6" on="0"/>
        <pt x="1989" y="-16" on="0"/>
        <pt x="1949" y="-26" on="0"/>
        <pt x="1930" y="-26" on="1"/>
        <pt x="1903" y="-26" on="0"/>
        <pt x="1850" y="-15" on="0"/>
        <pt x="1782" y="-2" on="0"/>
        <pt x="1689" y="9" on="0"/>
        <pt x="1622" y="9" on="1"/>
        <pt x="1525" y="9" on="0"/>
        <pt x="1287" y="1" on="0"/>
        <pt x="1139" y="-9" on="1"/>
        <pt x="1115" y="-9" on="0"/>
        <pt x="1074" y="8" on="0"/>
        <pt x="1043" y="40" on="0"/>
        <pt x="1026" y="82" on="0"/>
        <pt x="1026" y="108" on="1"/>
        <pt x="1026" y="543" on="1"/>
        <pt x="594" y="546" on="1"/>
        <pt x="512" y="426" on="0"/>
        <pt x="350" y="178" on="0"/>
        <pt x="267" y="50" on="1"/>
        <pt x="257" y="35" on="0"/>
        <pt x="233" y="3" on="0"/>
        <pt x="202" y="-25" on="0"/>
        <pt x="161" y="-43" on="0"/>
        <pt x="135" y="-43" on="1"/>
        <pt x="122" y="-43" on="0"/>
        <pt x="83" y="-29" on="0"/>
        <pt x="47" y="-4" on="0"/>
        <pt x="21" y="31" on="0"/>
      </contour>
      <contour>
        <pt x="716" y="719" on="1"/>
        <pt x="781" y="719" on="0"/>
        <pt x="938" y="718" on="0"/>
        <pt x="1026" y="717" on="1"/>
        <pt x="1026" y="786" on="1"/>
        <pt x="1026" y="801" on="0"/>
        <pt x="1023" y="858" on="0"/>
        <pt x="1018" y="938" on="0"/>
        <pt x="1015" y="1036" on="0"/>
        <pt x="1015" y="1092" on="1"/>
        <pt x="938" y="1008" on="0"/>
        <pt x="790" y="822" on="0"/>
      </contour>
    </TTGlyph>
    <TTGlyph name="Aacute" xMin="119" yMin="-94" xMax="1507" yMax="1870">
      <contour>
        <pt x="557" y="1520" on="1"/>
        <pt x="533" y="1520" on="0"/>
        <pt x="501" y="1532" on="0"/>
        <pt x="481" y="1549" on="0"/>
        <pt x="473" y="1568" on="0"/>
        <pt x="473" y="1574" on="1"/>
        <pt x="473" y="1614" on="0"/>
        <pt x="512" y="1662" on="0"/>
        <pt x="570" y="1693" on="0"/>
        <pt x="636" y="1716" on="0"/>
        <pt x="662" y="1732" on="1"/>
        <pt x="671" y="1738" on="0"/>
        <pt x="711" y="1763" on="0"/>
        <pt x="761" y="1793" on="0"/>
        <pt x="818" y="1826" on="0"/>
        <pt x="872" y="1853" on="0"/>
        <pt x="918" y="1870" on="0"/>
        <pt x="933" y="1870" on="1"/>
        <pt x="947" y="1870" on="0"/>
        <pt x="976" y="1859" on="0"/>
        <pt x="999" y="1839" on="0"/>
        <pt x="1013" y="1811" on="0"/>
        <pt x="1013" y="1794" on="1"/>
        <pt x="1013" y="1766" on="0"/>
        <pt x="998" y="1723" on="1"/>
        <pt x="994" y="1714" on="0"/>
        <pt x="944" y="1676" on="0"/>
        <pt x="868" y="1631" on="0"/>
        <pt x="773" y="1584" on="0"/>
        <pt x="677" y="1545" on="0"/>
        <pt x="589" y="1520" on="0"/>
      </contour>
      <contour>
        <pt x="119" y="86" on="1"/>
        <pt x="119" y="122" on="0"/>
        <pt x="143" y="184" on="0"/>
        <pt x="157" y="211" on="1"/>
        <pt x="159" y="215" on="0"/>
        <pt x="168" y="232" on="0"/>
        <pt x="192" y="287" on="0"/>
        <pt x="235" y="397" on="0"/>
        <pt x="271" y="495" on="1"/>
        <pt x="270" y="507" on="0"/>
        <pt x="269" y="529" on="0"/>
        <pt x="269" y="539" on="1"/>
        <pt x="269" y="580" on="0"/>
        <pt x="296" y="637" on="0"/>
        <pt x="334" y="664" on="1"/>
        <pt x="588" y="1194" on="1"/>
        <pt x="603" y="1225" on="0"/>
        <pt x="639" y="1296" on="0"/>
        <pt x="684" y="1357" on="0"/>
        <pt x="739" y="1398" on="0"/>
        <pt x="772" y="1398" on="1"/>
        <pt x="797" y="1398" on="0"/>
        <pt x="859" y="1339" on="0"/>
        <pt x="924" y="1246" on="0"/>
        <pt x="989" y="1133" on="0"/>
        <pt x="1044" y="1027" on="0"/>
        <pt x="1086" y="940" on="0"/>
        <pt x="1095" y="920" on="1"/>
        <pt x="1145" y="808" on="0"/>
        <pt x="1195" y="691" on="0"/>
        <pt x="1209" y="675" on="1"/>
        <pt x="1255" y="646" on="0"/>
        <pt x="1291" y="569" on="0"/>
        <pt x="1291" y="507" on="1"/>
        <pt x="1319" y="436" on="0"/>
        <pt x="1364" y="293" on="0"/>
        <pt x="1391" y="233" on="1"/>
        <pt x="1411" y="189" on="0"/>
        <pt x="1453" y="132" on="0"/>
        <pt x="1486" y="81" on="0"/>
        <pt x="1507" y="26" on="0"/>
        <pt x="1507" y="-17" on="1"/>
        <pt x="1507" y="-46" on="0"/>
        <pt x="1479" y="-77" on="0"/>
        <pt x="1440" y="-92" on="0"/>
        <pt x="1400" y="-94" on="0"/>
        <pt x="1388" y="-94" on="1"/>
        <pt x="1357" y="-94" on="0"/>
        <pt x="1295" y="-24" on="0"/>
        <pt x="1241" y="73" on="0"/>
        <pt x="1200" y="175" on="0"/>
        <pt x="1191" y="208" on="1"/>
        <pt x="1180" y="245" on="0"/>
        <pt x="1157" y="327" on="0"/>
        <pt x="1135" y="398" on="0"/>
        <pt x="1112" y="448" on="0"/>
        <pt x="1101" y="454" on="1"/>
        <pt x="1085" y="468" on="0"/>
        <pt x="1045" y="477" on="0"/>
        <pt x="1012" y="477" on="1"/>
        <pt x="955" y="477" on="0"/>
        <pt x="839" y="478" on="0"/>
        <pt x="717" y="479" on="0"/>
        <pt x="586" y="480" on="0"/>
        <pt x="513" y="480" on="1"/>
        <pt x="493" y="480" on="0"/>
        <pt x="468" y="473" on="0"/>
        <pt x="447" y="448" on="0"/>
        <pt x="426" y="400" on="0"/>
        <pt x="412" y="358" on="1"/>
        <pt x="332" y="143" on="1"/>
        <pt x="323" y="111" on="0"/>
        <pt x="307" y="56" on="0"/>
        <pt x="300" y="45" on="1"/>
        <pt x="291" y="30" on="0"/>
        <pt x="270" y="13" on="0"/>
        <pt x="248" y="5" on="0"/>
        <pt x="224" y="4" on="0"/>
        <pt x="212" y="4" on="1"/>
        <pt x="169" y="4" on="0"/>
        <pt x="119" y="39" on="0"/>
      </contour>
      <contour>
        <pt x="533" y="662" on="1"/>
        <pt x="628" y="661" on="0"/>
        <pt x="751" y="659" on="0"/>
        <pt x="829" y="657" on="0"/>
        <pt x="873" y="656" on="0"/>
        <pt x="890" y="656" on="1"/>
        <pt x="902" y="656" on="0"/>
        <pt x="924" y="657" on="0"/>
        <pt x="953" y="658" on="0"/>
        <pt x="992" y="660" on="0"/>
        <pt x="1020" y="662" on="1"/>
        <pt x="1006" y="702" on="0"/>
        <pt x="949" y="824" on="0"/>
        <pt x="882" y="955" on="0"/>
        <pt x="816" y="1079" on="0"/>
        <pt x="794" y="1122" on="1"/>
        <pt x="774" y="1160" on="0"/>
        <pt x="762" y="1160" on="1"/>
        <pt x="756" y="1160" on="0"/>
        <pt x="722" y="1101" on="0"/>
        <pt x="677" y="1009" on="0"/>
        <pt x="627" y="894" on="0"/>
        <pt x="580" y="784" on="0"/>
        <pt x="542" y="689" on="0"/>
      </contour>
    </TTGlyph>
    <TTGlyph name="Acircumflex" xMin="119" yMin="-94" xMax="1507" yMax="1863">
      <contour>
        <pt x="290" y="1532" on="1"/>
        <pt x="275" y="1532" on="0"/>
        <pt x="244" y="1545" on="0"/>
        <pt x="220" y="1567" on="0"/>
        <pt x="205" y="1595" on="0"/>
        <pt x="205" y="1610" on="1"/>
        <pt x="205" y="1647" on="0"/>
        <pt x="252" y="1703" on="0"/>
        <pt x="288" y="1712" on="1"/>
        <pt x="332" y="1723" on="0"/>
        <pt x="428" y="1749" on="0"/>
        <pt x="521" y="1780" on="0"/>
        <pt x="606" y="1816" on="0"/>
        <pt x="640" y="1837" on="1"/>
        <pt x="660" y="1849" on="0"/>
        <pt x="696" y="1863" on="0"/>
        <pt x="716" y="1863" on="1"/>
        <pt x="734" y="1863" on="0"/>
        <pt x="772" y="1849" on="0"/>
        <pt x="794" y="1835" on="1"/>
        <pt x="857" y="1795" on="0"/>
        <pt x="935" y="1742" on="0"/>
        <pt x="992" y="1710" on="0"/>
        <pt x="1040" y="1697" on="0"/>
        <pt x="1074" y="1697" on="1"/>
        <pt x="1089" y="1697" on="0"/>
        <pt x="1120" y="1688" on="0"/>
        <pt x="1145" y="1672" on="0"/>
        <pt x="1162" y="1649" on="0"/>
        <pt x="1162" y="1635" on="1"/>
        <pt x="1162" y="1608" on="0"/>
        <pt x="1142" y="1566" on="0"/>
        <pt x="1113" y="1536" on="0"/>
        <pt x="1080" y="1520" on="0"/>
        <pt x="1066" y="1520" on="1"/>
        <pt x="1028" y="1520" on="0"/>
        <pt x="948" y="1550" on="0"/>
        <pt x="860" y="1596" on="0"/>
        <pt x="764" y="1651" on="0"/>
        <pt x="712" y="1676" on="1"/>
        <pt x="667" y="1655" on="0"/>
        <pt x="605" y="1627" on="0"/>
        <pt x="557" y="1605" on="0"/>
        <pt x="518" y="1589" on="0"/>
        <pt x="472" y="1574" on="0"/>
        <pt x="415" y="1558" on="0"/>
        <pt x="374" y="1547" on="1"/>
        <pt x="345" y="1539" on="0"/>
        <pt x="305" y="1532" on="0"/>
      </contour>
      <contour>
        <pt x="119" y="86" on="1"/>
        <pt x="119" y="122" on="0"/>
        <pt x="143" y="184" on="0"/>
        <pt x="157" y="211" on="1"/>
        <pt x="159" y="215" on="0"/>
        <pt x="168" y="232" on="0"/>
        <pt x="192" y="287" on="0"/>
        <pt x="235" y="397" on="0"/>
        <pt x="271" y="495" on="1"/>
        <pt x="270" y="507" on="0"/>
        <pt x="269" y="529" on="0"/>
        <pt x="269" y="539" on="1"/>
        <pt x="269" y="580" on="0"/>
        <pt x="296" y="637" on="0"/>
        <pt x="334" y="664" on="1"/>
        <pt x="588" y="1194" on="1"/>
        <pt x="603" y="1225" on="0"/>
        <pt x="639" y="1296" on="0"/>
        <pt x="684" y="1357" on="0"/>
        <pt x="739" y="1398" on="0"/>
        <pt x="772" y="1398" on="1"/>
        <pt x="797" y="1398" on="0"/>
        <pt x="859" y="1339" on="0"/>
        <pt x="924" y="1246" on="0"/>
        <pt x="989" y="1133" on="0"/>
        <pt x="1044" y="1027" on="0"/>
        <pt x="1086" y="940" on="0"/>
        <pt x="1095" y="920" on="1"/>
        <pt x="1145" y="808" on="0"/>
        <pt x="1195" y="691" on="0"/>
        <pt x="1209" y="675" on="1"/>
        <pt x="1255" y="646" on="0"/>
        <pt x="1291" y="569" on="0"/>
        <pt x="1291" y="507" on="1"/>
        <pt x="1319" y="436" on="0"/>
        <pt x="1364" y="293" on="0"/>
        <pt x="1391" y="233" on="1"/>
        <pt x="1411" y="189" on="0"/>
        <pt x="1453" y="132" on="0"/>
        <pt x="1486" y="81" on="0"/>
        <pt x="1507" y="26" on="0"/>
        <pt x="1507" y="-17" on="1"/>
        <pt x="1507" y="-46" on="0"/>
        <pt x="1479" y="-77" on="0"/>
        <pt x="1440" y="-92" on="0"/>
        <pt x="1400" y="-94" on="0"/>
        <pt x="1388" y="-94" on="1"/>
        <pt x="1357" y="-94" on="0"/>
        <pt x="1295" y="-24" on="0"/>
        <pt x="1241" y="73" on="0"/>
        <pt x="1200" y="175" on="0"/>
        <pt x="1191" y="208" on="1"/>
        <pt x="1180" y="245" on="0"/>
        <pt x="1157" y="327" on="0"/>
        <pt x="1135" y="398" on="0"/>
        <pt x="1112" y="448" on="0"/>
        <pt x="1101" y="454" on="1"/>
        <pt x="1085" y="468" on="0"/>
        <pt x="1045" y="477" on="0"/>
        <pt x="1012" y="477" on="1"/>
        <pt x="955" y="477" on="0"/>
        <pt x="839" y="478" on="0"/>
        <pt x="717" y="479" on="0"/>
        <pt x="586" y="480" on="0"/>
        <pt x="513" y="480" on="1"/>
        <pt x="493" y="480" on="0"/>
        <pt x="468" y="473" on="0"/>
        <pt x="447" y="448" on="0"/>
        <pt x="426" y="400" on="0"/>
        <pt x="412" y="358" on="1"/>
        <pt x="332" y="143" on="1"/>
        <pt x="323" y="111" on="0"/>
        <pt x="307" y="56" on="0"/>
        <pt x="300" y="45" on="1"/>
        <pt x="291" y="30" on="0"/>
        <pt x="270" y="13" on="0"/>
        <pt x="248" y="5" on="0"/>
        <pt x="224" y="4" on="0"/>
        <pt x="212" y="4" on="1"/>
        <pt x="169" y="4" on="0"/>
        <pt x="119" y="39" on="0"/>
      </contour>
      <contour>
        <pt x="533" y="662" on="1"/>
        <pt x="628" y="661" on="0"/>
        <pt x="751" y="659" on="0"/>
        <pt x="829" y="657" on="0"/>
        <pt x="873" y="656" on="0"/>
        <pt x="890" y="656" on="1"/>
        <pt x="902" y="656" on="0"/>
        <pt x="924" y="657" on="0"/>
        <pt x="953" y="658" on="0"/>
        <pt x="992" y="660" on="0"/>
        <pt x="1020" y="662" on="1"/>
        <pt x="1006" y="702" on="0"/>
        <pt x="949" y="824" on="0"/>
        <pt x="882" y="955" on="0"/>
        <pt x="816" y="1079" on="0"/>
        <pt x="794" y="1122" on="1"/>
        <pt x="774" y="1160" on="0"/>
        <pt x="762" y="1160" on="1"/>
        <pt x="756" y="1160" on="0"/>
        <pt x="722" y="1101" on="0"/>
        <pt x="677" y="1009" on="0"/>
        <pt x="627" y="894" on="0"/>
        <pt x="580" y="784" on="0"/>
        <pt x="542" y="689" on="0"/>
      </contour>
    </TTGlyph>
    <TTGlyph name="Adieresis" xMin="119" yMin="-94" xMax="1507" yMax="1778">
      <contour>
        <pt x="469" y="1519" on="1"/>
        <pt x="400" y="1519" on="0"/>
        <pt x="325" y="1583" on="0"/>
        <pt x="325" y="1665" on="1"/>
        <pt x="325" y="1688" on="0"/>
        <pt x="358" y="1729" on="0"/>
        <pt x="405" y="1760" on="0"/>
        <pt x="458" y="1778" on="0"/>
        <pt x="478" y="1778" on="1"/>
        <pt x="485" y="1778" on="0"/>
        <pt x="512" y="1760" on="0"/>
        <pt x="538" y="1725" on="0"/>
        <pt x="558" y="1674" on="0"/>
        <pt x="558" y="1640" on="1"/>
        <pt x="558" y="1609" on="0"/>
        <pt x="543" y="1564" on="0"/>
        <pt x="517" y="1534" on="0"/>
        <pt x="485" y="1519" on="0"/>
      </contour>
      <contour>
        <pt x="948" y="1519" on="1"/>
        <pt x="890" y="1519" on="0"/>
        <pt x="832" y="1576" on="0"/>
        <pt x="832" y="1636" on="1"/>
        <pt x="832" y="1691" on="0"/>
        <pt x="890" y="1764" on="0"/>
        <pt x="948" y="1764" on="1"/>
        <pt x="970" y="1764" on="0"/>
        <pt x="1013" y="1740" on="0"/>
        <pt x="1047" y="1703" on="0"/>
        <pt x="1067" y="1657" on="0"/>
        <pt x="1067" y="1636" on="1"/>
        <pt x="1067" y="1614" on="0"/>
        <pt x="1047" y="1572" on="0"/>
        <pt x="1013" y="1539" on="0"/>
        <pt x="970" y="1519" on="0"/>
      </contour>
      <contour>
        <pt x="119" y="86" on="1"/>
        <pt x="119" y="122" on="0"/>
        <pt x="143" y="184" on="0"/>
        <pt x="157" y="211" on="1"/>
        <pt x="159" y="215" on="0"/>
        <pt x="168" y="232" on="0"/>
        <pt x="192" y="287" on="0"/>
        <pt x="235" y="397" on="0"/>
        <pt x="271" y="495" on="1"/>
        <pt x="270" y="507" on="0"/>
        <pt x="269" y="529" on="0"/>
        <pt x="269" y="539" on="1"/>
        <pt x="269" y="580" on="0"/>
        <pt x="296" y="637" on="0"/>
        <pt x="334" y="664" on="1"/>
        <pt x="588" y="1194" on="1"/>
        <pt x="603" y="1225" on="0"/>
        <pt x="639" y="1296" on="0"/>
        <pt x="684" y="1357" on="0"/>
        <pt x="739" y="1398" on="0"/>
        <pt x="772" y="1398" on="1"/>
        <pt x="797" y="1398" on="0"/>
        <pt x="859" y="1339" on="0"/>
        <pt x="924" y="1246" on="0"/>
        <pt x="989" y="1133" on="0"/>
        <pt x="1044" y="1027" on="0"/>
        <pt x="1086" y="940" on="0"/>
        <pt x="1095" y="920" on="1"/>
        <pt x="1145" y="808" on="0"/>
        <pt x="1195" y="691" on="0"/>
        <pt x="1209" y="675" on="1"/>
        <pt x="1255" y="646" on="0"/>
        <pt x="1291" y="569" on="0"/>
        <pt x="1291" y="507" on="1"/>
        <pt x="1319" y="436" on="0"/>
        <pt x="1364" y="293" on="0"/>
        <pt x="1391" y="233" on="1"/>
        <pt x="1411" y="189" on="0"/>
        <pt x="1453" y="132" on="0"/>
        <pt x="1486" y="81" on="0"/>
        <pt x="1507" y="26" on="0"/>
        <pt x="1507" y="-17" on="1"/>
        <pt x="1507" y="-46" on="0"/>
        <pt x="1479" y="-77" on="0"/>
        <pt x="1440" y="-92" on="0"/>
        <pt x="1400" y="-94" on="0"/>
        <pt x="1388" y="-94" on="1"/>
        <pt x="1357" y="-94" on="0"/>
        <pt x="1295" y="-24" on="0"/>
        <pt x="1241" y="73" on="0"/>
        <pt x="1200" y="175" on="0"/>
        <pt x="1191" y="208" on="1"/>
        <pt x="1180" y="245" on="0"/>
        <pt x="1157" y="327" on="0"/>
        <pt x="1135" y="398" on="0"/>
        <pt x="1112" y="448" on="0"/>
        <pt x="1101" y="454" on="1"/>
        <pt x="1085" y="468" on="0"/>
        <pt x="1045" y="477" on="0"/>
        <pt x="1012" y="477" on="1"/>
        <pt x="955" y="477" on="0"/>
        <pt x="839" y="478" on="0"/>
        <pt x="717" y="479" on="0"/>
        <pt x="586" y="480" on="0"/>
        <pt x="513" y="480" on="1"/>
        <pt x="493" y="480" on="0"/>
        <pt x="468" y="473" on="0"/>
        <pt x="447" y="448" on="0"/>
        <pt x="426" y="400" on="0"/>
        <pt x="412" y="358" on="1"/>
        <pt x="332" y="143" on="1"/>
        <pt x="323" y="111" on="0"/>
        <pt x="307" y="56" on="0"/>
        <pt x="300" y="45" on="1"/>
        <pt x="291" y="30" on="0"/>
        <pt x="270" y="13" on="0"/>
        <pt x="248" y="5" on="0"/>
        <pt x="224" y="4" on="0"/>
        <pt x="212" y="4" on="1"/>
        <pt x="169" y="4" on="0"/>
        <pt x="119" y="39" on="0"/>
      </contour>
      <contour>
        <pt x="533" y="662" on="1"/>
        <pt x="628" y="661" on="0"/>
        <pt x="751" y="659" on="0"/>
        <pt x="829" y="657" on="0"/>
        <pt x="873" y="656" on="0"/>
        <pt x="890" y="656" on="1"/>
        <pt x="902" y="656" on="0"/>
        <pt x="924" y="657" on="0"/>
        <pt x="953" y="658" on="0"/>
        <pt x="992" y="660" on="0"/>
        <pt x="1020" y="662" on="1"/>
        <pt x="1006" y="702" on="0"/>
        <pt x="949" y="824" on="0"/>
        <pt x="882" y="955" on="0"/>
        <pt x="816" y="1079" on="0"/>
        <pt x="794" y="1122" on="1"/>
        <pt x="774" y="1160" on="0"/>
        <pt x="762" y="1160" on="1"/>
        <pt x="756" y="1160" on="0"/>
        <pt x="722" y="1101" on="0"/>
        <pt x="677" y="1009" on="0"/>
        <pt x="627" y="894" on="0"/>
        <pt x="580" y="784" on="0"/>
        <pt x="542" y="689" on="0"/>
      </contour>
    </TTGlyph>
    <TTGlyph name="Agrave" xMin="119" yMin="-94" xMax="1507" yMax="1867">
      <contour>
        <pt x="830" y="1520" on="1"/>
        <pt x="797" y="1520" on="0"/>
        <pt x="707" y="1545" on="0"/>
        <pt x="611" y="1583" on="0"/>
        <pt x="516" y="1630" on="0"/>
        <pt x="440" y="1674" on="0"/>
        <pt x="390" y="1710" on="0"/>
        <pt x="387" y="1719" on="1"/>
        <pt x="371" y="1763" on="0"/>
        <pt x="371" y="1791" on="1"/>
        <pt x="371" y="1808" on="0"/>
        <pt x="386" y="1836" on="0"/>
        <pt x="409" y="1856" on="0"/>
        <pt x="437" y="1867" on="0"/>
        <pt x="451" y="1867" on="1"/>
        <pt x="466" y="1867" on="0"/>
        <pt x="512" y="1850" on="0"/>
        <pt x="566" y="1823" on="0"/>
        <pt x="622" y="1790" on="0"/>
        <pt x="672" y="1759" on="0"/>
        <pt x="711" y="1734" on="0"/>
        <pt x="721" y="1728" on="1"/>
        <pt x="759" y="1705" on="0"/>
        <pt x="817" y="1676" on="0"/>
        <pt x="860" y="1655" on="0"/>
        <pt x="889" y="1637" on="0"/>
        <pt x="898" y="1625" on="1"/>
        <pt x="908" y="1611" on="0"/>
        <pt x="912" y="1581" on="0"/>
        <pt x="912" y="1570" on="1"/>
        <pt x="912" y="1564" on="0"/>
        <pt x="904" y="1546" on="0"/>
        <pt x="885" y="1531" on="0"/>
        <pt x="853" y="1520" on="0"/>
      </contour>
      <contour>
        <pt x="119" y="86" on="1"/>
        <pt x="119" y="122" on="0"/>
        <pt x="143" y="184" on="0"/>
        <pt x="157" y="211" on="1"/>
        <pt x="159" y="215" on="0"/>
        <pt x="168" y="232" on="0"/>
        <pt x="192" y="287" on="0"/>
        <pt x="235" y="397" on="0"/>
        <pt x="271" y="495" on="1"/>
        <pt x="270" y="507" on="0"/>
        <pt x="269" y="529" on="0"/>
        <pt x="269" y="539" on="1"/>
        <pt x="269" y="580" on="0"/>
        <pt x="296" y="637" on="0"/>
        <pt x="334" y="664" on="1"/>
        <pt x="588" y="1194" on="1"/>
        <pt x="603" y="1225" on="0"/>
        <pt x="639" y="1296" on="0"/>
        <pt x="684" y="1357" on="0"/>
        <pt x="739" y="1398" on="0"/>
        <pt x="772" y="1398" on="1"/>
        <pt x="797" y="1398" on="0"/>
        <pt x="859" y="1339" on="0"/>
        <pt x="924" y="1246" on="0"/>
        <pt x="989" y="1133" on="0"/>
        <pt x="1044" y="1027" on="0"/>
        <pt x="1086" y="940" on="0"/>
        <pt x="1095" y="920" on="1"/>
        <pt x="1145" y="808" on="0"/>
        <pt x="1195" y="691" on="0"/>
        <pt x="1209" y="675" on="1"/>
        <pt x="1255" y="646" on="0"/>
        <pt x="1291" y="569" on="0"/>
        <pt x="1291" y="507" on="1"/>
        <pt x="1319" y="436" on="0"/>
        <pt x="1364" y="293" on="0"/>
        <pt x="1391" y="233" on="1"/>
        <pt x="1411" y="189" on="0"/>
        <pt x="1453" y="132" on="0"/>
        <pt x="1486" y="81" on="0"/>
        <pt x="1507" y="26" on="0"/>
        <pt x="1507" y="-17" on="1"/>
        <pt x="1507" y="-46" on="0"/>
        <pt x="1479" y="-77" on="0"/>
        <pt x="1440" y="-92" on="0"/>
        <pt x="1400" y="-94" on="0"/>
        <pt x="1388" y="-94" on="1"/>
        <pt x="1357" y="-94" on="0"/>
        <pt x="1295" y="-24" on="0"/>
        <pt x="1241" y="73" on="0"/>
        <pt x="1200" y="175" on="0"/>
        <pt x="1191" y="208" on="1"/>
        <pt x="1180" y="245" on="0"/>
        <pt x="1157" y="327" on="0"/>
        <pt x="1135" y="398" on="0"/>
        <pt x="1112" y="448" on="0"/>
        <pt x="1101" y="454" on="1"/>
        <pt x="1085" y="468" on="0"/>
        <pt x="1045" y="477" on="0"/>
        <pt x="1012" y="477" on="1"/>
        <pt x="955" y="477" on="0"/>
        <pt x="839" y="478" on="0"/>
        <pt x="717" y="479" on="0"/>
        <pt x="586" y="480" on="0"/>
        <pt x="513" y="480" on="1"/>
        <pt x="493" y="480" on="0"/>
        <pt x="468" y="473" on="0"/>
        <pt x="447" y="448" on="0"/>
        <pt x="426" y="400" on="0"/>
        <pt x="412" y="358" on="1"/>
        <pt x="332" y="143" on="1"/>
        <pt x="323" y="111" on="0"/>
        <pt x="307" y="56" on="0"/>
        <pt x="300" y="45" on="1"/>
        <pt x="291" y="30" on="0"/>
        <pt x="270" y="13" on="0"/>
        <pt x="248" y="5" on="0"/>
        <pt x="224" y="4" on="0"/>
        <pt x="212" y="4" on="1"/>
        <pt x="169" y="4" on="0"/>
        <pt x="119" y="39" on="0"/>
      </contour>
      <contour>
        <pt x="533" y="662" on="1"/>
        <pt x="628" y="661" on="0"/>
        <pt x="751" y="659" on="0"/>
        <pt x="829" y="657" on="0"/>
        <pt x="873" y="656" on="0"/>
        <pt x="890" y="656" on="1"/>
        <pt x="902" y="656" on="0"/>
        <pt x="924" y="657" on="0"/>
        <pt x="953" y="658" on="0"/>
        <pt x="992" y="660" on="0"/>
        <pt x="1020" y="662" on="1"/>
        <pt x="1006" y="702" on="0"/>
        <pt x="949" y="824" on="0"/>
        <pt x="882" y="955" on="0"/>
        <pt x="816" y="1079" on="0"/>
        <pt x="794" y="1122" on="1"/>
        <pt x="774" y="1160" on="0"/>
        <pt x="762" y="1160" on="1"/>
        <pt x="756" y="1160" on="0"/>
        <pt x="722" y="1101" on="0"/>
        <pt x="677" y="1009" on="0"/>
        <pt x="627" y="894" on="0"/>
        <pt x="580" y="784" on="0"/>
        <pt x="542" y="689" on="0"/>
      </contour>
    </TTGlyph>
    <TTGlyph name="Aring" xMin="119" yMin="-94" xMax="1507" yMax="1849">
      <contour>
        <pt x="119" y="86" on="1"/>
        <pt x="119" y="122" on="0"/>
        <pt x="143" y="184" on="0"/>
        <pt x="157" y="211" on="1"/>
        <pt x="159" y="215" on="0"/>
        <pt x="168" y="232" on="0"/>
        <pt x="192" y="287" on="0"/>
        <pt x="235" y="397" on="0"/>
        <pt x="271" y="495" on="1"/>
        <pt x="270" y="507" on="0"/>
        <pt x="269" y="529" on="0"/>
        <pt x="269" y="539" on="1"/>
        <pt x="269" y="580" on="0"/>
        <pt x="296" y="637" on="0"/>
        <pt x="334" y="664" on="1"/>
        <pt x="588" y="1194" on="1"/>
        <pt x="603" y="1226" on="0"/>
        <pt x="641" y="1300" on="0"/>
        <pt x="665" y="1331" on="1"/>
        <pt x="592" y="1353" on="0"/>
        <pt x="519" y="1467" on="0"/>
        <pt x="519" y="1555" on="1"/>
        <pt x="519" y="1573" on="0"/>
        <pt x="532" y="1631" on="0"/>
        <pt x="558" y="1696" on="0"/>
        <pt x="595" y="1762" on="0"/>
        <pt x="643" y="1816" on="0"/>
        <pt x="700" y="1849" on="0"/>
        <pt x="734" y="1849" on="1"/>
        <pt x="756" y="1849" on="0"/>
        <pt x="789" y="1845" on="0"/>
        <pt x="811" y="1830" on="0"/>
        <pt x="823" y="1799" on="0"/>
        <pt x="823" y="1772" on="1"/>
        <pt x="823" y="1771" on="1"/>
        <pt x="835" y="1766" on="0"/>
        <pt x="868" y="1753" on="0"/>
        <pt x="882" y="1751" on="1"/>
        <pt x="904" y="1747" on="0"/>
        <pt x="943" y="1734" on="0"/>
        <pt x="971" y="1704" on="0"/>
        <pt x="987" y="1652" on="0"/>
        <pt x="987" y="1609" on="1"/>
        <pt x="987" y="1574" on="0"/>
        <pt x="968" y="1497" on="0"/>
        <pt x="932" y="1426" on="0"/>
        <pt x="881" y="1366" on="0"/>
        <pt x="848" y="1347" on="1"/>
        <pt x="873" y="1319" on="0"/>
        <pt x="925" y="1244" on="0"/>
        <pt x="975" y="1160" on="0"/>
        <pt x="1021" y="1073" on="0"/>
        <pt x="1059" y="996" on="0"/>
        <pt x="1088" y="936" on="0"/>
        <pt x="1095" y="920" on="1"/>
        <pt x="1145" y="808" on="0"/>
        <pt x="1195" y="691" on="0"/>
        <pt x="1209" y="675" on="1"/>
        <pt x="1255" y="646" on="0"/>
        <pt x="1291" y="569" on="0"/>
        <pt x="1291" y="507" on="1"/>
        <pt x="1319" y="436" on="0"/>
        <pt x="1364" y="293" on="0"/>
        <pt x="1391" y="233" on="1"/>
        <pt x="1411" y="189" on="0"/>
        <pt x="1453" y="132" on="0"/>
        <pt x="1486" y="81" on="0"/>
        <pt x="1507" y="26" on="0"/>
        <pt x="1507" y="-17" on="1"/>
        <pt x="1507" y="-46" on="0"/>
        <pt x="1479" y="-77" on="0"/>
        <pt x="1440" y="-92" on="0"/>
        <pt x="1400" y="-94" on="0"/>
        <pt x="1388" y="-94" on="1"/>
        <pt x="1357" y="-94" on="0"/>
        <pt x="1295" y="-24" on="0"/>
        <pt x="1241" y="73" on="0"/>
        <pt x="1200" y="175" on="0"/>
        <pt x="1191" y="208" on="1"/>
        <pt x="1180" y="245" on="0"/>
        <pt x="1157" y="327" on="0"/>
        <pt x="1135" y="398" on="0"/>
        <pt x="1112" y="448" on="0"/>
        <pt x="1101" y="454" on="1"/>
        <pt x="1085" y="468" on="0"/>
        <pt x="1045" y="477" on="0"/>
        <pt x="1012" y="477" on="1"/>
        <pt x="955" y="477" on="0"/>
        <pt x="839" y="478" on="0"/>
        <pt x="717" y="479" on="0"/>
        <pt x="586" y="480" on="0"/>
        <pt x="513" y="480" on="1"/>
        <pt x="493" y="480" on="0"/>
        <pt x="468" y="473" on="0"/>
        <pt x="447" y="448" on="0"/>
        <pt x="426" y="400" on="0"/>
        <pt x="412" y="358" on="1"/>
        <pt x="332" y="143" on="1"/>
        <pt x="323" y="111" on="0"/>
        <pt x="307" y="56" on="0"/>
        <pt x="300" y="45" on="1"/>
        <pt x="291" y="30" on="0"/>
        <pt x="270" y="13" on="0"/>
        <pt x="248" y="5" on="0"/>
        <pt x="224" y="4" on="0"/>
        <pt x="212" y="4" on="1"/>
        <pt x="169" y="4" on="0"/>
        <pt x="119" y="39" on="0"/>
      </contour>
      <contour>
        <pt x="775" y="1467" on="1"/>
        <pt x="789" y="1467" on="0"/>
        <pt x="815" y="1499" on="0"/>
        <pt x="834" y="1543" on="0"/>
        <pt x="846" y="1591" on="0"/>
        <pt x="846" y="1607" on="1"/>
        <pt x="846" y="1619" on="0"/>
        <pt x="822" y="1639" on="0"/>
        <pt x="787" y="1655" on="0"/>
        <pt x="750" y="1664" on="0"/>
        <pt x="738" y="1664" on="1"/>
        <pt x="729" y="1664" on="0"/>
        <pt x="710" y="1644" on="0"/>
        <pt x="694" y="1614" on="0"/>
        <pt x="684" y="1580" on="0"/>
        <pt x="684" y="1567" on="1"/>
        <pt x="684" y="1514" on="0"/>
        <pt x="731" y="1467" on="0"/>
      </contour>
      <contour>
        <pt x="533" y="662" on="1"/>
        <pt x="628" y="661" on="0"/>
        <pt x="751" y="659" on="0"/>
        <pt x="829" y="657" on="0"/>
        <pt x="873" y="656" on="0"/>
        <pt x="890" y="656" on="1"/>
        <pt x="902" y="656" on="0"/>
        <pt x="924" y="657" on="0"/>
        <pt x="953" y="658" on="0"/>
        <pt x="992" y="660" on="0"/>
        <pt x="1020" y="662" on="1"/>
        <pt x="1006" y="702" on="0"/>
        <pt x="949" y="824" on="0"/>
        <pt x="882" y="955" on="0"/>
        <pt x="816" y="1079" on="0"/>
        <pt x="794" y="1122" on="1"/>
        <pt x="774" y="1160" on="0"/>
        <pt x="762" y="1160" on="1"/>
        <pt x="756" y="1160" on="0"/>
        <pt x="722" y="1101" on="0"/>
        <pt x="677" y="1009" on="0"/>
        <pt x="627" y="894" on="0"/>
        <pt x="580" y="784" on="0"/>
        <pt x="542" y="689" on="0"/>
      </contour>
    </TTGlyph>
    <TTGlyph name="Atilde" xMin="119" yMin="-94" xMax="1507" yMax="1828">
      <contour>
        <pt x="371" y="1548" on="1"/>
        <pt x="339" y="1548" on="0"/>
        <pt x="306" y="1580" on="0"/>
        <pt x="306" y="1615" on="1"/>
        <pt x="306" y="1681" on="0"/>
        <pt x="368" y="1765" on="0"/>
        <pt x="461" y="1811" on="0"/>
        <pt x="568" y="1828" on="0"/>
        <pt x="613" y="1828" on="1"/>
        <pt x="653" y="1828" on="0"/>
        <pt x="710" y="1789" on="0"/>
        <pt x="760" y="1741" on="0"/>
        <pt x="812" y="1702" on="0"/>
        <pt x="847" y="1702" on="1"/>
        <pt x="872" y="1702" on="0"/>
        <pt x="916" y="1724" on="0"/>
        <pt x="961" y="1751" on="0"/>
        <pt x="1009" y="1773" on="0"/>
        <pt x="1039" y="1773" on="1"/>
        <pt x="1064" y="1773" on="0"/>
        <pt x="1091" y="1756" on="0"/>
        <pt x="1103" y="1731" on="0"/>
        <pt x="1105" y="1702" on="0"/>
        <pt x="1105" y="1690" on="1"/>
        <pt x="1105" y="1656" on="0"/>
        <pt x="1041" y="1595" on="0"/>
        <pt x="952" y="1548" on="0"/>
        <pt x="859" y="1521" on="0"/>
        <pt x="830" y="1521" on="1"/>
        <pt x="773" y="1521" on="0"/>
        <pt x="696" y="1561" on="0"/>
        <pt x="635" y="1608" on="0"/>
        <pt x="581" y="1648" on="0"/>
        <pt x="548" y="1648" on="1"/>
        <pt x="514" y="1648" on="0"/>
        <pt x="469" y="1617" on="0"/>
        <pt x="433" y="1579" on="0"/>
        <pt x="396" y="1548" on="0"/>
      </contour>
      <contour>
        <pt x="119" y="86" on="1"/>
        <pt x="119" y="122" on="0"/>
        <pt x="143" y="184" on="0"/>
        <pt x="157" y="211" on="1"/>
        <pt x="159" y="215" on="0"/>
        <pt x="168" y="232" on="0"/>
        <pt x="192" y="287" on="0"/>
        <pt x="235" y="397" on="0"/>
        <pt x="271" y="495" on="1"/>
        <pt x="270" y="507" on="0"/>
        <pt x="269" y="529" on="0"/>
        <pt x="269" y="539" on="1"/>
        <pt x="269" y="580" on="0"/>
        <pt x="296" y="637" on="0"/>
        <pt x="334" y="664" on="1"/>
        <pt x="588" y="1194" on="1"/>
        <pt x="603" y="1225" on="0"/>
        <pt x="639" y="1296" on="0"/>
        <pt x="684" y="1357" on="0"/>
        <pt x="739" y="1398" on="0"/>
        <pt x="772" y="1398" on="1"/>
        <pt x="797" y="1398" on="0"/>
        <pt x="859" y="1339" on="0"/>
        <pt x="924" y="1246" on="0"/>
        <pt x="989" y="1133" on="0"/>
        <pt x="1044" y="1027" on="0"/>
        <pt x="1086" y="940" on="0"/>
        <pt x="1095" y="920" on="1"/>
        <pt x="1145" y="808" on="0"/>
        <pt x="1195" y="691" on="0"/>
        <pt x="1209" y="675" on="1"/>
        <pt x="1255" y="646" on="0"/>
        <pt x="1291" y="569" on="0"/>
        <pt x="1291" y="507" on="1"/>
        <pt x="1319" y="436" on="0"/>
        <pt x="1364" y="293" on="0"/>
        <pt x="1391" y="233" on="1"/>
        <pt x="1411" y="189" on="0"/>
        <pt x="1453" y="132" on="0"/>
        <pt x="1486" y="81" on="0"/>
        <pt x="1507" y="26" on="0"/>
        <pt x="1507" y="-17" on="1"/>
        <pt x="1507" y="-46" on="0"/>
        <pt x="1479" y="-77" on="0"/>
        <pt x="1440" y="-92" on="0"/>
        <pt x="1400" y="-94" on="0"/>
        <pt x="1388" y="-94" on="1"/>
        <pt x="1357" y="-94" on="0"/>
        <pt x="1295" y="-24" on="0"/>
        <pt x="1241" y="73" on="0"/>
        <pt x="1200" y="175" on="0"/>
        <pt x="1191" y="208" on="1"/>
        <pt x="1180" y="245" on="0"/>
        <pt x="1157" y="327" on="0"/>
        <pt x="1135" y="398" on="0"/>
        <pt x="1112" y="448" on="0"/>
        <pt x="1101" y="454" on="1"/>
        <pt x="1085" y="468" on="0"/>
        <pt x="1045" y="477" on="0"/>
        <pt x="1012" y="477" on="1"/>
        <pt x="955" y="477" on="0"/>
        <pt x="839" y="478" on="0"/>
        <pt x="717" y="479" on="0"/>
        <pt x="586" y="480" on="0"/>
        <pt x="513" y="480" on="1"/>
        <pt x="493" y="480" on="0"/>
        <pt x="468" y="473" on="0"/>
        <pt x="447" y="448" on="0"/>
        <pt x="426" y="400" on="0"/>
        <pt x="412" y="358" on="1"/>
        <pt x="332" y="143" on="1"/>
        <pt x="323" y="111" on="0"/>
        <pt x="307" y="56" on="0"/>
        <pt x="300" y="45" on="1"/>
        <pt x="291" y="30" on="0"/>
        <pt x="270" y="13" on="0"/>
        <pt x="248" y="5" on="0"/>
        <pt x="224" y="4" on="0"/>
        <pt x="212" y="4" on="1"/>
        <pt x="169" y="4" on="0"/>
        <pt x="119" y="39" on="0"/>
      </contour>
      <contour>
        <pt x="533" y="662" on="1"/>
        <pt x="628" y="661" on="0"/>
        <pt x="751" y="659" on="0"/>
        <pt x="829" y="657" on="0"/>
        <pt x="873" y="656" on="0"/>
        <pt x="890" y="656" on="1"/>
        <pt x="902" y="656" on="0"/>
        <pt x="924" y="657" on="0"/>
        <pt x="953" y="658" on="0"/>
        <pt x="992" y="660" on="0"/>
        <pt x="1020" y="662" on="1"/>
        <pt x="1006" y="702" on="0"/>
        <pt x="949" y="824" on="0"/>
        <pt x="882" y="955" on="0"/>
        <pt x="816" y="1079" on="0"/>
        <pt x="794" y="1122" on="1"/>
        <pt x="774" y="1160" on="0"/>
        <pt x="762" y="1160" on="1"/>
        <pt x="756" y="1160" on="0"/>
        <pt x="722" y="1101" on="0"/>
        <pt x="677" y="1009" on="0"/>
        <pt x="627" y="894" on="0"/>
        <pt x="580" y="784" on="0"/>
        <pt x="542" y="689" on="0"/>
      </contour>
    </TTGlyph>
    <TTGlyph name="B" xMin="198" yMin="-15" xMax="1264" yMax="1391">
      <contour>
        <pt x="198" y="88" on="1"/>
        <pt x="198" y="111" on="0"/>
        <pt x="206" y="148" on="0"/>
        <pt x="208" y="168" on="1"/>
        <pt x="208" y="176" on="0"/>
        <pt x="198" y="213" on="0"/>
        <pt x="199" y="235" on="1"/>
        <pt x="207" y="562" on="1"/>
        <pt x="207" y="752" on="1"/>
        <pt x="207" y="799" on="0"/>
        <pt x="207" y="908" on="0"/>
        <pt x="208" y="1026" on="0"/>
        <pt x="210" y="1151" on="0"/>
        <pt x="212" y="1214" on="1"/>
        <pt x="213" y="1235" on="0"/>
        <pt x="231" y="1275" on="0"/>
        <pt x="256" y="1308" on="0"/>
        <pt x="288" y="1331" on="0"/>
        <pt x="305" y="1336" on="1"/>
        <pt x="409" y="1362" on="0"/>
        <pt x="621" y="1391" on="0"/>
        <pt x="717" y="1391" on="1"/>
        <pt x="760" y="1391" on="0"/>
        <pt x="862" y="1364" on="0"/>
        <pt x="950" y="1312" on="0"/>
        <pt x="1009" y="1235" on="0"/>
        <pt x="1009" y="1186" on="1"/>
        <pt x="1009" y="1151" on="0"/>
        <pt x="985" y="1091" on="0"/>
        <pt x="948" y="1040" on="0"/>
        <pt x="903" y="999" on="0"/>
        <pt x="882" y="983" on="1"/>
        <pt x="967" y="963" on="0"/>
        <pt x="1108" y="887" on="0"/>
        <pt x="1209" y="774" on="0"/>
        <pt x="1264" y="624" on="0"/>
        <pt x="1264" y="530" on="1"/>
        <pt x="1264" y="393" on="0"/>
        <pt x="1171" y="211" on="0"/>
        <pt x="1015" y="96" on="0"/>
        <pt x="811" y="37" on="0"/>
        <pt x="699" y="24" on="1"/>
        <pt x="657" y="19" on="0"/>
        <pt x="597" y="12" on="0"/>
        <pt x="550" y="7" on="0"/>
        <pt x="511" y="5" on="0"/>
        <pt x="490" y="5" on="1"/>
        <pt x="479" y="5" on="0"/>
        <pt x="453" y="9" on="0"/>
        <pt x="441" y="9" on="1"/>
        <pt x="429" y="9" on="0"/>
        <pt x="414" y="1" on="0"/>
        <pt x="399" y="-8" on="0"/>
        <pt x="376" y="-15" on="0"/>
        <pt x="355" y="-15" on="1"/>
        <pt x="334" y="-15" on="0"/>
        <pt x="280" y="-2" on="0"/>
        <pt x="231" y="23" on="0"/>
        <pt x="198" y="62" on="0"/>
      </contour>
      <contour>
        <pt x="379" y="952" on="1"/>
        <pt x="409" y="959" on="0"/>
        <pt x="463" y="990" on="0"/>
        <pt x="495" y="999" on="1"/>
        <pt x="507" y="1001" on="0"/>
        <pt x="544" y="1006" on="0"/>
        <pt x="587" y="1011" on="0"/>
        <pt x="632" y="1016" on="0"/>
        <pt x="653" y="1018" on="1"/>
        <pt x="671" y="1029" on="0"/>
        <pt x="730" y="1054" on="0"/>
        <pt x="786" y="1086" on="0"/>
        <pt x="826" y="1128" on="0"/>
        <pt x="826" y="1156" on="1"/>
        <pt x="826" y="1183" on="0"/>
        <pt x="729" y="1221" on="0"/>
        <pt x="644" y="1221" on="1"/>
        <pt x="630" y="1221" on="0"/>
        <pt x="581" y="1218" on="0"/>
        <pt x="523" y="1209" on="0"/>
        <pt x="463" y="1196" on="0"/>
        <pt x="415" y="1175" on="0"/>
        <pt x="383" y="1148" on="0"/>
        <pt x="383" y="1130" on="1"/>
      </contour>
      <contour>
        <pt x="397" y="207" on="1"/>
        <pt x="397" y="206" on="0"/>
        <pt x="432" y="203" on="0"/>
        <pt x="478" y="200" on="0"/>
        <pt x="523" y="198" on="0"/>
        <pt x="533" y="198" on="1"/>
        <pt x="596" y="198" on="0"/>
        <pt x="727" y="208" on="0"/>
        <pt x="850" y="236" on="0"/>
        <pt x="958" y="285" on="0"/>
        <pt x="1038" y="362" on="0"/>
        <pt x="1085" y="473" on="0"/>
        <pt x="1085" y="548" on="1"/>
        <pt x="1085" y="621" on="0"/>
        <pt x="1014" y="734" on="0"/>
        <pt x="902" y="812" on="0"/>
        <pt x="765" y="852" on="0"/>
        <pt x="698" y="852" on="1"/>
        <pt x="661" y="852" on="0"/>
        <pt x="600" y="825" on="0"/>
        <pt x="546" y="794" on="0"/>
        <pt x="495" y="767" on="0"/>
        <pt x="469" y="767" on="1"/>
        <pt x="456" y="767" on="0"/>
        <pt x="427" y="772" on="0"/>
        <pt x="418" y="772" on="1"/>
        <pt x="411" y="772" on="0"/>
        <pt x="393" y="760" on="0"/>
        <pt x="385" y="750" on="1"/>
        <pt x="385" y="727" on="0"/>
        <pt x="382" y="674" on="0"/>
        <pt x="382" y="651" on="1"/>
        <pt x="382" y="560" on="0"/>
        <pt x="399" y="375" on="0"/>
        <pt x="399" y="281" on="1"/>
        <pt x="399" y="263" on="0"/>
        <pt x="398" y="226" on="0"/>
      </contour>
    </TTGlyph>
    <TTGlyph name="C" xMin="149" yMin="-19" xMax="1374" yMax="1394">
      <contour>
        <pt x="149" y="532" on="1"/>
        <pt x="149" y="587" on="0"/>
        <pt x="165" y="710" on="0"/>
        <pt x="193" y="835" on="0"/>
        <pt x="228" y="957" on="0"/>
        <pt x="248" y="1011" on="1"/>
        <pt x="272" y="1075" on="0"/>
        <pt x="361" y="1211" on="0"/>
        <pt x="488" y="1322" on="0"/>
        <pt x="651" y="1394" on="0"/>
        <pt x="749" y="1394" on="1"/>
        <pt x="835" y="1394" on="0"/>
        <pt x="1004" y="1344" on="0"/>
        <pt x="1139" y="1246" on="0"/>
        <pt x="1223" y="1103" on="0"/>
        <pt x="1223" y="1009" on="1"/>
        <pt x="1223" y="992" on="0"/>
        <pt x="1215" y="947" on="0"/>
        <pt x="1196" y="906" on="0"/>
        <pt x="1162" y="878" on="0"/>
        <pt x="1135" y="878" on="1"/>
        <pt x="1104" y="878" on="0"/>
        <pt x="1071" y="913" on="0"/>
        <pt x="1056" y="965" on="0"/>
        <pt x="1053" y="1028" on="0"/>
        <pt x="1053" y="1056" on="1"/>
        <pt x="1053" y="1090" on="0"/>
        <pt x="995" y="1151" on="0"/>
        <pt x="907" y="1197" on="0"/>
        <pt x="803" y="1224" on="0"/>
        <pt x="758" y="1224" on="1"/>
        <pt x="674" y="1224" on="0"/>
        <pt x="544" y="1146" on="0"/>
        <pt x="448" y="1020" on="0"/>
        <pt x="383" y="864" on="0"/>
        <pt x="343" y="709" on="0"/>
        <pt x="326" y="569" on="0"/>
        <pt x="326" y="524" on="1"/>
        <pt x="326" y="435" on="0"/>
        <pt x="402" y="295" on="0"/>
        <pt x="526" y="198" on="0"/>
        <pt x="682" y="147" on="0"/>
        <pt x="763" y="147" on="1"/>
        <pt x="803" y="147" on="0"/>
        <pt x="911" y="153" on="0"/>
        <pt x="1023" y="168" on="0"/>
        <pt x="1130" y="194" on="0"/>
        <pt x="1168" y="213" on="1"/>
        <pt x="1184" y="221" on="0"/>
        <pt x="1206" y="244" on="0"/>
        <pt x="1229" y="265" on="0"/>
        <pt x="1258" y="280" on="0"/>
        <pt x="1280" y="280" on="1"/>
        <pt x="1323" y="280" on="0"/>
        <pt x="1374" y="222" on="0"/>
        <pt x="1374" y="180" on="1"/>
        <pt x="1374" y="152" on="0"/>
        <pt x="1360" y="117" on="0"/>
        <pt x="1343" y="103" on="1"/>
        <pt x="1305" y="71" on="0"/>
        <pt x="1172" y="25" on="0"/>
        <pt x="1016" y="-5" on="0"/>
        <pt x="855" y="-19" on="0"/>
        <pt x="788" y="-19" on="1"/>
        <pt x="710" y="-19" on="0"/>
        <pt x="555" y="1" on="0"/>
        <pt x="413" y="48" on="0"/>
        <pt x="290" y="129" on="0"/>
        <pt x="200" y="252" on="0"/>
        <pt x="149" y="420" on="0"/>
      </contour>
    </TTGlyph>
    <TTGlyph name="Ccedilla" xMin="149" yMin="-555" xMax="1374" yMax="1394">
      <contour>
        <pt x="149" y="532" on="1"/>
        <pt x="149" y="587" on="0"/>
        <pt x="165" y="710" on="0"/>
        <pt x="193" y="835" on="0"/>
        <pt x="228" y="957" on="0"/>
        <pt x="248" y="1011" on="1"/>
        <pt x="272" y="1075" on="0"/>
        <pt x="361" y="1211" on="0"/>
        <pt x="488" y="1322" on="0"/>
        <pt x="651" y="1394" on="0"/>
        <pt x="749" y="1394" on="1"/>
        <pt x="835" y="1394" on="0"/>
        <pt x="1004" y="1344" on="0"/>
        <pt x="1139" y="1246" on="0"/>
        <pt x="1223" y="1103" on="0"/>
        <pt x="1223" y="1009" on="1"/>
        <pt x="1223" y="992" on="0"/>
        <pt x="1215" y="947" on="0"/>
        <pt x="1196" y="906" on="0"/>
        <pt x="1162" y="878" on="0"/>
        <pt x="1135" y="878" on="1"/>
        <pt x="1104" y="878" on="0"/>
        <pt x="1071" y="913" on="0"/>
        <pt x="1056" y="965" on="0"/>
        <pt x="1053" y="1028" on="0"/>
        <pt x="1053" y="1056" on="1"/>
        <pt x="1053" y="1090" on="0"/>
        <pt x="995" y="1151" on="0"/>
        <pt x="907" y="1197" on="0"/>
        <pt x="803" y="1224" on="0"/>
        <pt x="758" y="1224" on="1"/>
        <pt x="674" y="1224" on="0"/>
        <pt x="544" y="1146" on="0"/>
        <pt x="448" y="1020" on="0"/>
        <pt x="383" y="864" on="0"/>
        <pt x="343" y="709" on="0"/>
        <pt x="326" y="569" on="0"/>
        <pt x="326" y="524" on="1"/>
        <pt x="326" y="435" on="0"/>
        <pt x="402" y="295" on="0"/>
        <pt x="526" y="198" on="0"/>
        <pt x="682" y="147" on="0"/>
        <pt x="763" y="147" on="1"/>
        <pt x="803" y="147" on="0"/>
        <pt x="911" y="153" on="0"/>
        <pt x="1023" y="168" on="0"/>
        <pt x="1130" y="194" on="0"/>
        <pt x="1168" y="213" on="1"/>
        <pt x="1184" y="221" on="0"/>
        <pt x="1206" y="244" on="0"/>
        <pt x="1229" y="265" on="0"/>
        <pt x="1258" y="280" on="0"/>
        <pt x="1280" y="280" on="1"/>
        <pt x="1323" y="280" on="0"/>
        <pt x="1374" y="222" on="0"/>
        <pt x="1374" y="180" on="1"/>
        <pt x="1374" y="152" on="0"/>
        <pt x="1360" y="117" on="0"/>
        <pt x="1343" y="103" on="1"/>
        <pt x="1305" y="71" on="0"/>
        <pt x="1172" y="25" on="0"/>
        <pt x="1017" y="-5" on="0"/>
        <pt x="856" y="-19" on="0"/>
        <pt x="789" y="-19" on="1"/>
        <pt x="787" y="-48" on="0"/>
        <pt x="780" y="-113" on="0"/>
        <pt x="775" y="-136" on="1"/>
        <pt x="789" y="-125" on="0"/>
        <pt x="846" y="-119" on="0"/>
        <pt x="876" y="-119" on="1"/>
        <pt x="907" y="-119" on="0"/>
        <pt x="966" y="-146" on="0"/>
        <pt x="1012" y="-198" on="0"/>
        <pt x="1040" y="-274" on="0"/>
        <pt x="1040" y="-323" on="1"/>
        <pt x="1040" y="-382" on="0"/>
        <pt x="996" y="-469" on="0"/>
        <pt x="921" y="-526" on="0"/>
        <pt x="820" y="-555" on="0"/>
        <pt x="762" y="-555" on="1"/>
        <pt x="749" y="-555" on="0"/>
        <pt x="705" y="-548" on="0"/>
        <pt x="652" y="-535" on="0"/>
        <pt x="598" y="-516" on="0"/>
        <pt x="554" y="-491" on="0"/>
        <pt x="526" y="-461" on="0"/>
        <pt x="526" y="-443" on="1"/>
        <pt x="526" y="-430" on="0"/>
        <pt x="533" y="-398" on="0"/>
        <pt x="549" y="-372" on="0"/>
        <pt x="574" y="-354" on="0"/>
        <pt x="592" y="-354" on="1"/>
        <pt x="605" y="-354" on="0"/>
        <pt x="626" y="-365" on="0"/>
        <pt x="636" y="-370" on="1"/>
        <pt x="645" y="-375" on="0"/>
        <pt x="678" y="-385" on="0"/>
        <pt x="712" y="-393" on="0"/>
        <pt x="741" y="-397" on="0"/>
        <pt x="746" y="-397" on="1"/>
        <pt x="803" y="-397" on="0"/>
        <pt x="877" y="-358" on="0"/>
        <pt x="877" y="-323" on="1"/>
        <pt x="877" y="-316" on="0"/>
        <pt x="874" y="-294" on="0"/>
        <pt x="863" y="-274" on="0"/>
        <pt x="840" y="-260" on="0"/>
        <pt x="820" y="-260" on="1"/>
        <pt x="805" y="-260" on="0"/>
        <pt x="756" y="-261" on="0"/>
        <pt x="722" y="-275" on="1"/>
        <pt x="708" y="-274" on="0"/>
        <pt x="670" y="-264" on="0"/>
        <pt x="636" y="-246" on="0"/>
        <pt x="612" y="-219" on="0"/>
        <pt x="612" y="-200" on="1"/>
        <pt x="612" y="-150" on="0"/>
        <pt x="630" y="-61" on="0"/>
        <pt x="638" y="-10" on="1"/>
        <pt x="541" y="2" on="0"/>
        <pt x="364" y="69" on="0"/>
        <pt x="229" y="196" on="0"/>
        <pt x="149" y="391" on="0"/>
      </contour>
    </TTGlyph>
    <TTGlyph name="D" xMin="187" yMin="-22" xMax="1438" yMax="1367">
      <contour>
        <pt x="193" y="1187" on="1"/>
        <pt x="193" y="1244" on="0"/>
        <pt x="229" y="1315" on="0"/>
        <pt x="284" y="1354" on="0"/>
        <pt x="351" y="1367" on="0"/>
        <pt x="384" y="1367" on="1"/>
        <pt x="581" y="1367" on="1"/>
        <pt x="667" y="1367" on="0"/>
        <pt x="860" y="1324" on="0"/>
        <pt x="1051" y="1240" on="0"/>
        <pt x="1225" y="1117" on="0"/>
        <pt x="1359" y="956" on="0"/>
        <pt x="1438" y="759" on="0"/>
        <pt x="1438" y="643" on="1"/>
        <pt x="1438" y="521" on="0"/>
        <pt x="1362" y="329" on="0"/>
        <pt x="1234" y="185" on="0"/>
        <pt x="1065" y="84" on="0"/>
        <pt x="881" y="21" on="0"/>
        <pt x="693" y="-7" on="0"/>
        <pt x="609" y="-7" on="1"/>
        <pt x="587" y="-7" on="0"/>
        <pt x="526" y="-6" on="0"/>
        <pt x="462" y="-3" on="0"/>
        <pt x="403" y="3" on="0"/>
        <pt x="382" y="7" on="1"/>
        <pt x="363" y="-4" on="0"/>
        <pt x="320" y="-22" on="0"/>
        <pt x="309" y="-22" on="1"/>
        <pt x="270" y="-22" on="0"/>
        <pt x="222" y="31" on="0"/>
        <pt x="196" y="109" on="0"/>
        <pt x="187" y="200" on="0"/>
        <pt x="187" y="238" on="1"/>
      </contour>
      <contour>
        <pt x="400" y="190" on="1"/>
        <pt x="403" y="187" on="0"/>
        <pt x="421" y="180" on="0"/>
        <pt x="447" y="176" on="0"/>
        <pt x="478" y="173" on="0"/>
        <pt x="494" y="173" on="1"/>
        <pt x="655" y="173" on="1"/>
        <pt x="713" y="173" on="0"/>
        <pt x="848" y="199" on="0"/>
        <pt x="982" y="250" on="0"/>
        <pt x="1105" y="325" on="0"/>
        <pt x="1199" y="421" on="0"/>
        <pt x="1256" y="538" on="0"/>
        <pt x="1256" y="606" on="1"/>
        <pt x="1256" y="689" on="0"/>
        <pt x="1201" y="842" on="0"/>
        <pt x="1107" y="974" on="0"/>
        <pt x="981" y="1082" on="0"/>
        <pt x="837" y="1159" on="0"/>
        <pt x="684" y="1201" on="0"/>
        <pt x="610" y="1201" on="1"/>
        <pt x="590" y="1201" on="0"/>
        <pt x="522" y="1200" on="0"/>
        <pt x="453" y="1196" on="0"/>
        <pt x="397" y="1190" on="0"/>
        <pt x="388" y="1184" on="1"/>
        <pt x="380" y="1148" on="0"/>
        <pt x="373" y="1080" on="0"/>
        <pt x="370" y="1011" on="0"/>
        <pt x="370" y="939" on="0"/>
        <pt x="370" y="898" on="1"/>
        <pt x="370" y="856" on="0"/>
        <pt x="371" y="745" on="0"/>
        <pt x="373" y="619" on="0"/>
        <pt x="378" y="485" on="0"/>
        <pt x="384" y="355" on="0"/>
        <pt x="394" y="237" on="0"/>
      </contour>
    </TTGlyph>
    <TTGlyph name="E" xMin="198" yMin="-26" xMax="1287" yMax="1355">
      <contour>
        <pt x="214" y="643" on="1"/>
        <pt x="204" y="659" on="0"/>
        <pt x="198" y="696" on="0"/>
        <pt x="198" y="715" on="1"/>
        <pt x="198" y="732" on="0"/>
        <pt x="210" y="768" on="0"/>
        <pt x="214" y="786" on="1"/>
        <pt x="209" y="871" on="0"/>
        <pt x="200" y="1039" on="0"/>
        <pt x="200" y="1127" on="1"/>
        <pt x="200" y="1145" on="0"/>
        <pt x="199" y="1192" on="0"/>
        <pt x="203" y="1243" on="0"/>
        <pt x="213" y="1292" on="0"/>
        <pt x="235" y="1331" on="0"/>
        <pt x="272" y="1355" on="0"/>
        <pt x="301" y="1355" on="1"/>
        <pt x="323" y="1355" on="0"/>
        <pt x="364" y="1340" on="0"/>
        <pt x="405" y="1323" on="0"/>
        <pt x="447" y="1308" on="0"/>
        <pt x="471" y="1308" on="1"/>
        <pt x="531" y="1308" on="0"/>
        <pt x="691" y="1311" on="0"/>
        <pt x="779" y="1314" on="1"/>
        <pt x="827" y="1315" on="0"/>
        <pt x="922" y="1317" on="0"/>
        <pt x="1014" y="1319" on="0"/>
        <pt x="1098" y="1319" on="0"/>
        <pt x="1134" y="1319" on="1"/>
        <pt x="1178" y="1319" on="0"/>
        <pt x="1237" y="1315" on="0"/>
        <pt x="1272" y="1296" on="0"/>
        <pt x="1287" y="1258" on="0"/>
        <pt x="1287" y="1224" on="1"/>
        <pt x="1287" y="1209" on="0"/>
        <pt x="1272" y="1179" on="0"/>
        <pt x="1246" y="1155" on="0"/>
        <pt x="1214" y="1139" on="0"/>
        <pt x="1198" y="1139" on="1"/>
        <pt x="1005" y="1140" on="0"/>
        <pt x="734" y="1142" on="0"/>
        <pt x="552" y="1144" on="0"/>
        <pt x="448" y="1145" on="0"/>
        <pt x="396" y="1146" on="0"/>
        <pt x="381" y="1146" on="0"/>
        <pt x="381" y="1147" on="1"/>
        <pt x="381" y="822" on="1"/>
        <pt x="381" y="809" on="0"/>
        <pt x="390" y="809" on="1"/>
        <pt x="427" y="809" on="0"/>
        <pt x="503" y="808" on="0"/>
        <pt x="586" y="806" on="0"/>
        <pt x="680" y="805" on="0"/>
        <pt x="736" y="805" on="1"/>
        <pt x="773" y="805" on="0"/>
        <pt x="846" y="818" on="0"/>
        <pt x="887" y="818" on="1"/>
        <pt x="928" y="818" on="0"/>
        <pt x="985" y="771" on="0"/>
        <pt x="985" y="718" on="1"/>
        <pt x="985" y="711" on="0"/>
        <pt x="975" y="684" on="0"/>
        <pt x="956" y="657" on="0"/>
        <pt x="926" y="637" on="0"/>
        <pt x="906" y="637" on="1"/>
        <pt x="475" y="637" on="1"/>
        <pt x="446" y="637" on="0"/>
        <pt x="412" y="636" on="0"/>
        <pt x="394" y="634" on="0"/>
        <pt x="389" y="631" on="0"/>
        <pt x="389" y="629" on="1"/>
        <pt x="389" y="615" on="0"/>
        <pt x="396" y="587" on="0"/>
        <pt x="396" y="567" on="1"/>
        <pt x="396" y="562" on="0"/>
        <pt x="396" y="525" on="0"/>
        <pt x="397" y="474" on="0"/>
        <pt x="398" y="413" on="0"/>
        <pt x="399" y="384" on="1"/>
        <pt x="399" y="224" on="1"/>
        <pt x="395" y="218" on="0"/>
        <pt x="421" y="211" on="0"/>
        <pt x="465" y="208" on="0"/>
        <pt x="519" y="206" on="0"/>
        <pt x="543" y="203" on="1"/>
        <pt x="577" y="201" on="0"/>
        <pt x="677" y="196" on="0"/>
        <pt x="783" y="193" on="0"/>
        <pt x="886" y="190" on="0"/>
        <pt x="960" y="187" on="0"/>
        <pt x="994" y="186" on="0"/>
        <pt x="980" y="186" on="1"/>
        <pt x="961" y="186" on="0"/>
        <pt x="967" y="186" on="0"/>
        <pt x="998" y="185" on="0"/>
        <pt x="1046" y="185" on="0"/>
        <pt x="1096" y="184" on="0"/>
        <pt x="1137" y="184" on="0"/>
        <pt x="1146" y="184" on="1"/>
        <pt x="1173" y="184" on="0"/>
        <pt x="1208" y="162" on="0"/>
        <pt x="1228" y="129" on="0"/>
        <pt x="1236" y="89" on="0"/>
        <pt x="1236" y="71" on="1"/>
        <pt x="1236" y="44" on="0"/>
        <pt x="1214" y="6" on="0"/>
        <pt x="1177" y="-16" on="0"/>
        <pt x="1126" y="-26" on="0"/>
        <pt x="1098" y="-26" on="1"/>
        <pt x="1077" y="-26" on="0"/>
        <pt x="1017" y="-11" on="0"/>
        <pt x="994" y="0" on="1"/>
        <pt x="983" y="4" on="0"/>
        <pt x="917" y="14" on="0"/>
        <pt x="814" y="22" on="0"/>
        <pt x="676" y="28" on="0"/>
        <pt x="593" y="28" on="1"/>
        <pt x="531" y="28" on="0"/>
        <pt x="398" y="17" on="0"/>
        <pt x="326" y="17" on="1"/>
        <pt x="302" y="17" on="0"/>
        <pt x="261" y="35" on="0"/>
        <pt x="231" y="66" on="0"/>
        <pt x="214" y="109" on="0"/>
        <pt x="214" y="135" on="1"/>
      </contour>
    </TTGlyph>
    <TTGlyph name="Eacute" xMin="198" yMin="-26" xMax="1287" yMax="1870">
      <contour>
        <pt x="568" y="1520" on="1"/>
        <pt x="544" y="1520" on="0"/>
        <pt x="512" y="1532" on="0"/>
        <pt x="492" y="1549" on="0"/>
        <pt x="484" y="1568" on="0"/>
        <pt x="484" y="1574" on="1"/>
        <pt x="484" y="1614" on="0"/>
        <pt x="523" y="1662" on="0"/>
        <pt x="581" y="1693" on="0"/>
        <pt x="647" y="1716" on="0"/>
        <pt x="673" y="1732" on="1"/>
        <pt x="682" y="1738" on="0"/>
        <pt x="722" y="1763" on="0"/>
        <pt x="772" y="1793" on="0"/>
        <pt x="829" y="1826" on="0"/>
        <pt x="883" y="1853" on="0"/>
        <pt x="929" y="1870" on="0"/>
        <pt x="944" y="1870" on="1"/>
        <pt x="958" y="1870" on="0"/>
        <pt x="987" y="1859" on="0"/>
        <pt x="1010" y="1839" on="0"/>
        <pt x="1024" y="1811" on="0"/>
        <pt x="1024" y="1794" on="1"/>
        <pt x="1024" y="1766" on="0"/>
        <pt x="1009" y="1723" on="1"/>
        <pt x="1005" y="1714" on="0"/>
        <pt x="955" y="1676" on="0"/>
        <pt x="879" y="1631" on="0"/>
        <pt x="784" y="1584" on="0"/>
        <pt x="688" y="1545" on="0"/>
        <pt x="600" y="1520" on="0"/>
      </contour>
      <contour>
        <pt x="214" y="643" on="1"/>
        <pt x="204" y="659" on="0"/>
        <pt x="198" y="696" on="0"/>
        <pt x="198" y="715" on="1"/>
        <pt x="198" y="732" on="0"/>
        <pt x="210" y="768" on="0"/>
        <pt x="214" y="786" on="1"/>
        <pt x="209" y="871" on="0"/>
        <pt x="200" y="1039" on="0"/>
        <pt x="200" y="1127" on="1"/>
        <pt x="200" y="1145" on="0"/>
        <pt x="199" y="1192" on="0"/>
        <pt x="203" y="1243" on="0"/>
        <pt x="213" y="1292" on="0"/>
        <pt x="235" y="1331" on="0"/>
        <pt x="272" y="1355" on="0"/>
        <pt x="301" y="1355" on="1"/>
        <pt x="323" y="1355" on="0"/>
        <pt x="364" y="1340" on="0"/>
        <pt x="405" y="1323" on="0"/>
        <pt x="447" y="1308" on="0"/>
        <pt x="471" y="1308" on="1"/>
        <pt x="531" y="1308" on="0"/>
        <pt x="691" y="1311" on="0"/>
        <pt x="779" y="1314" on="1"/>
        <pt x="827" y="1315" on="0"/>
        <pt x="922" y="1317" on="0"/>
        <pt x="1014" y="1319" on="0"/>
        <pt x="1098" y="1319" on="0"/>
        <pt x="1134" y="1319" on="1"/>
        <pt x="1178" y="1319" on="0"/>
        <pt x="1237" y="1315" on="0"/>
        <pt x="1272" y="1296" on="0"/>
        <pt x="1287" y="1258" on="0"/>
        <pt x="1287" y="1224" on="1"/>
        <pt x="1287" y="1209" on="0"/>
        <pt x="1272" y="1179" on="0"/>
        <pt x="1246" y="1155" on="0"/>
        <pt x="1214" y="1139" on="0"/>
        <pt x="1198" y="1139" on="1"/>
        <pt x="1005" y="1140" on="0"/>
        <pt x="734" y="1142" on="0"/>
        <pt x="552" y="1144" on="0"/>
        <pt x="448" y="1145" on="0"/>
        <pt x="396" y="1146" on="0"/>
        <pt x="381" y="1146" on="0"/>
        <pt x="381" y="1147" on="1"/>
        <pt x="381" y="822" on="1"/>
        <pt x="381" y="809" on="0"/>
        <pt x="390" y="809" on="1"/>
        <pt x="427" y="809" on="0"/>
        <pt x="503" y="808" on="0"/>
        <pt x="586" y="806" on="0"/>
        <pt x="680" y="805" on="0"/>
        <pt x="736" y="805" on="1"/>
        <pt x="773" y="805" on="0"/>
        <pt x="846" y="818" on="0"/>
        <pt x="887" y="818" on="1"/>
        <pt x="928" y="818" on="0"/>
        <pt x="985" y="771" on="0"/>
        <pt x="985" y="718" on="1"/>
        <pt x="985" y="711" on="0"/>
        <pt x="975" y="684" on="0"/>
        <pt x="956" y="657" on="0"/>
        <pt x="926" y="637" on="0"/>
        <pt x="906" y="637" on="1"/>
        <pt x="475" y="637" on="1"/>
        <pt x="446" y="637" on="0"/>
        <pt x="412" y="636" on="0"/>
        <pt x="394" y="634" on="0"/>
        <pt x="389" y="631" on="0"/>
        <pt x="389" y="629" on="1"/>
        <pt x="389" y="615" on="0"/>
        <pt x="396" y="587" on="0"/>
        <pt x="396" y="567" on="1"/>
        <pt x="396" y="562" on="0"/>
        <pt x="396" y="525" on="0"/>
        <pt x="397" y="474" on="0"/>
        <pt x="398" y="413" on="0"/>
        <pt x="399" y="384" on="1"/>
        <pt x="399" y="224" on="1"/>
        <pt x="395" y="218" on="0"/>
        <pt x="421" y="211" on="0"/>
        <pt x="465" y="208" on="0"/>
        <pt x="519" y="206" on="0"/>
        <pt x="543" y="203" on="1"/>
        <pt x="577" y="201" on="0"/>
        <pt x="677" y="196" on="0"/>
        <pt x="783" y="193" on="0"/>
        <pt x="886" y="190" on="0"/>
        <pt x="960" y="187" on="0"/>
        <pt x="994" y="186" on="0"/>
        <pt x="980" y="186" on="1"/>
        <pt x="961" y="186" on="0"/>
        <pt x="967" y="186" on="0"/>
        <pt x="998" y="185" on="0"/>
        <pt x="1046" y="185" on="0"/>
        <pt x="1096" y="184" on="0"/>
        <pt x="1137" y="184" on="0"/>
        <pt x="1146" y="184" on="1"/>
        <pt x="1173" y="184" on="0"/>
        <pt x="1208" y="162" on="0"/>
        <pt x="1228" y="129" on="0"/>
        <pt x="1236" y="89" on="0"/>
        <pt x="1236" y="71" on="1"/>
        <pt x="1236" y="44" on="0"/>
        <pt x="1214" y="6" on="0"/>
        <pt x="1177" y="-16" on="0"/>
        <pt x="1126" y="-26" on="0"/>
        <pt x="1098" y="-26" on="1"/>
        <pt x="1077" y="-26" on="0"/>
        <pt x="1017" y="-11" on="0"/>
        <pt x="994" y="0" on="1"/>
        <pt x="983" y="4" on="0"/>
        <pt x="917" y="14" on="0"/>
        <pt x="814" y="22" on="0"/>
        <pt x="676" y="28" on="0"/>
        <pt x="593" y="28" on="1"/>
        <pt x="531" y="28" on="0"/>
        <pt x="398" y="17" on="0"/>
        <pt x="326" y="17" on="1"/>
        <pt x="302" y="17" on="0"/>
        <pt x="261" y="35" on="0"/>
        <pt x="231" y="66" on="0"/>
        <pt x="214" y="109" on="0"/>
        <pt x="214" y="135" on="1"/>
      </contour>
    </TTGlyph>
    <TTGlyph name="Ecircumflex" xMin="198" yMin="-26" xMax="1287" yMax="1863">
      <contour>
        <pt x="301" y="1532" on="1"/>
        <pt x="286" y="1532" on="0"/>
        <pt x="255" y="1545" on="0"/>
        <pt x="231" y="1567" on="0"/>
        <pt x="216" y="1595" on="0"/>
        <pt x="216" y="1610" on="1"/>
        <pt x="216" y="1647" on="0"/>
        <pt x="263" y="1703" on="0"/>
        <pt x="299" y="1712" on="1"/>
        <pt x="343" y="1723" on="0"/>
        <pt x="439" y="1749" on="0"/>
        <pt x="532" y="1780" on="0"/>
        <pt x="617" y="1816" on="0"/>
        <pt x="651" y="1837" on="1"/>
        <pt x="671" y="1849" on="0"/>
        <pt x="707" y="1863" on="0"/>
        <pt x="727" y="1863" on="1"/>
        <pt x="745" y="1863" on="0"/>
        <pt x="783" y="1849" on="0"/>
        <pt x="805" y="1835" on="1"/>
        <pt x="868" y="1795" on="0"/>
        <pt x="946" y="1742" on="0"/>
        <pt x="1003" y="1710" on="0"/>
        <pt x="1051" y="1697" on="0"/>
        <pt x="1085" y="1697" on="1"/>
        <pt x="1100" y="1697" on="0"/>
        <pt x="1131" y="1688" on="0"/>
        <pt x="1156" y="1672" on="0"/>
        <pt x="1173" y="1649" on="0"/>
        <pt x="1173" y="1635" on="1"/>
        <pt x="1173" y="1608" on="0"/>
        <pt x="1153" y="1566" on="0"/>
        <pt x="1124" y="1536" on="0"/>
        <pt x="1091" y="1520" on="0"/>
        <pt x="1077" y="1520" on="1"/>
        <pt x="1039" y="1520" on="0"/>
        <pt x="959" y="1550" on="0"/>
        <pt x="871" y="1596" on="0"/>
        <pt x="775" y="1651" on="0"/>
        <pt x="723" y="1676" on="1"/>
        <pt x="678" y="1655" on="0"/>
        <pt x="616" y="1627" on="0"/>
        <pt x="568" y="1605" on="0"/>
        <pt x="529" y="1589" on="0"/>
        <pt x="483" y="1574" on="0"/>
        <pt x="426" y="1558" on="0"/>
        <pt x="385" y="1547" on="1"/>
        <pt x="356" y="1539" on="0"/>
        <pt x="316" y="1532" on="0"/>
      </contour>
      <contour>
        <pt x="214" y="643" on="1"/>
        <pt x="204" y="659" on="0"/>
        <pt x="198" y="696" on="0"/>
        <pt x="198" y="715" on="1"/>
        <pt x="198" y="732" on="0"/>
        <pt x="210" y="768" on="0"/>
        <pt x="214" y="786" on="1"/>
        <pt x="209" y="871" on="0"/>
        <pt x="200" y="1039" on="0"/>
        <pt x="200" y="1127" on="1"/>
        <pt x="200" y="1145" on="0"/>
        <pt x="199" y="1192" on="0"/>
        <pt x="203" y="1243" on="0"/>
        <pt x="213" y="1292" on="0"/>
        <pt x="235" y="1331" on="0"/>
        <pt x="272" y="1355" on="0"/>
        <pt x="301" y="1355" on="1"/>
        <pt x="323" y="1355" on="0"/>
        <pt x="364" y="1340" on="0"/>
        <pt x="405" y="1323" on="0"/>
        <pt x="447" y="1308" on="0"/>
        <pt x="471" y="1308" on="1"/>
        <pt x="531" y="1308" on="0"/>
        <pt x="691" y="1311" on="0"/>
        <pt x="779" y="1314" on="1"/>
        <pt x="827" y="1315" on="0"/>
        <pt x="922" y="1317" on="0"/>
        <pt x="1014" y="1319" on="0"/>
        <pt x="1098" y="1319" on="0"/>
        <pt x="1134" y="1319" on="1"/>
        <pt x="1178" y="1319" on="0"/>
        <pt x="1237" y="1315" on="0"/>
        <pt x="1272" y="1296" on="0"/>
        <pt x="1287" y="1258" on="0"/>
        <pt x="1287" y="1224" on="1"/>
        <pt x="1287" y="1209" on="0"/>
        <pt x="1272" y="1179" on="0"/>
        <pt x="1246" y="1155" on="0"/>
        <pt x="1214" y="1139" on="0"/>
        <pt x="1198" y="1139" on="1"/>
        <pt x="1005" y="1140" on="0"/>
        <pt x="734" y="1142" on="0"/>
        <pt x="552" y="1144" on="0"/>
        <pt x="448" y="1145" on="0"/>
        <pt x="396" y="1146" on="0"/>
        <pt x="381" y="1146" on="0"/>
        <pt x="381" y="1147" on="1"/>
        <pt x="381" y="822" on="1"/>
        <pt x="381" y="809" on="0"/>
        <pt x="390" y="809" on="1"/>
        <pt x="427" y="809" on="0"/>
        <pt x="503" y="808" on="0"/>
        <pt x="586" y="806" on="0"/>
        <pt x="680" y="805" on="0"/>
        <pt x="736" y="805" on="1"/>
        <pt x="773" y="805" on="0"/>
        <pt x="846" y="818" on="0"/>
        <pt x="887" y="818" on="1"/>
        <pt x="928" y="818" on="0"/>
        <pt x="985" y="771" on="0"/>
        <pt x="985" y="718" on="1"/>
        <pt x="985" y="711" on="0"/>
        <pt x="975" y="684" on="0"/>
        <pt x="956" y="657" on="0"/>
        <pt x="926" y="637" on="0"/>
        <pt x="906" y="637" on="1"/>
        <pt x="475" y="637" on="1"/>
        <pt x="446" y="637" on="0"/>
        <pt x="412" y="636" on="0"/>
        <pt x="394" y="634" on="0"/>
        <pt x="389" y="631" on="0"/>
        <pt x="389" y="629" on="1"/>
        <pt x="389" y="615" on="0"/>
        <pt x="396" y="587" on="0"/>
        <pt x="396" y="567" on="1"/>
        <pt x="396" y="562" on="0"/>
        <pt x="396" y="525" on="0"/>
        <pt x="397" y="474" on="0"/>
        <pt x="398" y="413" on="0"/>
        <pt x="399" y="384" on="1"/>
        <pt x="399" y="224" on="1"/>
        <pt x="395" y="218" on="0"/>
        <pt x="421" y="211" on="0"/>
        <pt x="465" y="208" on="0"/>
        <pt x="519" y="206" on="0"/>
        <pt x="543" y="203" on="1"/>
        <pt x="577" y="201" on="0"/>
        <pt x="677" y="196" on="0"/>
        <pt x="783" y="193" on="0"/>
        <pt x="886" y="190" on="0"/>
        <pt x="960" y="187" on="0"/>
        <pt x="994" y="186" on="0"/>
        <pt x="980" y="186" on="1"/>
        <pt x="961" y="186" on="0"/>
        <pt x="967" y="186" on="0"/>
        <pt x="998" y="185" on="0"/>
        <pt x="1046" y="185" on="0"/>
        <pt x="1096" y="184" on="0"/>
        <pt x="1137" y="184" on="0"/>
        <pt x="1146" y="184" on="1"/>
        <pt x="1173" y="184" on="0"/>
        <pt x="1208" y="162" on="0"/>
        <pt x="1228" y="129" on="0"/>
        <pt x="1236" y="89" on="0"/>
        <pt x="1236" y="71" on="1"/>
        <pt x="1236" y="44" on="0"/>
        <pt x="1214" y="6" on="0"/>
        <pt x="1177" y="-16" on="0"/>
        <pt x="1126" y="-26" on="0"/>
        <pt x="1098" y="-26" on="1"/>
        <pt x="1077" y="-26" on="0"/>
        <pt x="1017" y="-11" on="0"/>
        <pt x="994" y="0" on="1"/>
        <pt x="983" y="4" on="0"/>
        <pt x="917" y="14" on="0"/>
        <pt x="814" y="22" on="0"/>
        <pt x="676" y="28" on="0"/>
        <pt x="593" y="28" on="1"/>
        <pt x="531" y="28" on="0"/>
        <pt x="398" y="17" on="0"/>
        <pt x="326" y="17" on="1"/>
        <pt x="302" y="17" on="0"/>
        <pt x="261" y="35" on="0"/>
        <pt x="231" y="66" on="0"/>
        <pt x="214" y="109" on="0"/>
        <pt x="214" y="135" on="1"/>
      </contour>
    </TTGlyph>
    <TTGlyph name="Edieresis" xMin="198" yMin="-26" xMax="1287" yMax="1778">
      <contour>
        <pt x="480" y="1519" on="1"/>
        <pt x="411" y="1519" on="0"/>
        <pt x="336" y="1583" on="0"/>
        <pt x="336" y="1665" on="1"/>
        <pt x="336" y="1688" on="0"/>
        <pt x="369" y="1729" on="0"/>
        <pt x="416" y="1760" on="0"/>
        <pt x="469" y="1778" on="0"/>
        <pt x="489" y="1778" on="1"/>
        <pt x="496" y="1778" on="0"/>
        <pt x="523" y="1760" on="0"/>
        <pt x="549" y="1725" on="0"/>
        <pt x="569" y="1674" on="0"/>
        <pt x="569" y="1640" on="1"/>
        <pt x="569" y="1609" on="0"/>
        <pt x="554" y="1564" on="0"/>
        <pt x="528" y="1534" on="0"/>
        <pt x="496" y="1519" on="0"/>
      </contour>
      <contour>
        <pt x="959" y="1519" on="1"/>
        <pt x="901" y="1519" on="0"/>
        <pt x="843" y="1576" on="0"/>
        <pt x="843" y="1636" on="1"/>
        <pt x="843" y="1691" on="0"/>
        <pt x="901" y="1764" on="0"/>
        <pt x="959" y="1764" on="1"/>
        <pt x="981" y="1764" on="0"/>
        <pt x="1024" y="1740" on="0"/>
        <pt x="1058" y="1703" on="0"/>
        <pt x="1078" y="1657" on="0"/>
        <pt x="1078" y="1636" on="1"/>
        <pt x="1078" y="1614" on="0"/>
        <pt x="1058" y="1572" on="0"/>
        <pt x="1024" y="1539" on="0"/>
        <pt x="981" y="1519" on="0"/>
      </contour>
      <contour>
        <pt x="214" y="643" on="1"/>
        <pt x="204" y="659" on="0"/>
        <pt x="198" y="696" on="0"/>
        <pt x="198" y="715" on="1"/>
        <pt x="198" y="732" on="0"/>
        <pt x="210" y="768" on="0"/>
        <pt x="214" y="786" on="1"/>
        <pt x="209" y="871" on="0"/>
        <pt x="200" y="1039" on="0"/>
        <pt x="200" y="1127" on="1"/>
        <pt x="200" y="1145" on="0"/>
        <pt x="199" y="1192" on="0"/>
        <pt x="203" y="1243" on="0"/>
        <pt x="213" y="1292" on="0"/>
        <pt x="235" y="1331" on="0"/>
        <pt x="272" y="1355" on="0"/>
        <pt x="301" y="1355" on="1"/>
        <pt x="323" y="1355" on="0"/>
        <pt x="364" y="1340" on="0"/>
        <pt x="405" y="1323" on="0"/>
        <pt x="447" y="1308" on="0"/>
        <pt x="471" y="1308" on="1"/>
        <pt x="531" y="1308" on="0"/>
        <pt x="691" y="1311" on="0"/>
        <pt x="779" y="1314" on="1"/>
        <pt x="827" y="1315" on="0"/>
        <pt x="922" y="1317" on="0"/>
        <pt x="1014" y="1319" on="0"/>
        <pt x="1098" y="1319" on="0"/>
        <pt x="1134" y="1319" on="1"/>
        <pt x="1178" y="1319" on="0"/>
        <pt x="1237" y="1315" on="0"/>
        <pt x="1272" y="1296" on="0"/>
        <pt x="1287" y="1258" on="0"/>
        <pt x="1287" y="1224" on="1"/>
        <pt x="1287" y="1209" on="0"/>
        <pt x="1272" y="1179" on="0"/>
        <pt x="1246" y="1155" on="0"/>
        <pt x="1214" y="1139" on="0"/>
        <pt x="1198" y="1139" on="1"/>
        <pt x="1005" y="1140" on="0"/>
        <pt x="734" y="1142" on="0"/>
        <pt x="552" y="1144" on="0"/>
        <pt x="448" y="1145" on="0"/>
        <pt x="396" y="1146" on="0"/>
        <pt x="381" y="1146" on="0"/>
        <pt x="381" y="1147" on="1"/>
        <pt x="381" y="822" on="1"/>
        <pt x="381" y="809" on="0"/>
        <pt x="390" y="809" on="1"/>
        <pt x="427" y="809" on="0"/>
        <pt x="503" y="808" on="0"/>
        <pt x="586" y="806" on="0"/>
        <pt x="680" y="805" on="0"/>
        <pt x="736" y="805" on="1"/>
        <pt x="773" y="805" on="0"/>
        <pt x="846" y="818" on="0"/>
        <pt x="887" y="818" on="1"/>
        <pt x="928" y="818" on="0"/>
        <pt x="985" y="771" on="0"/>
        <pt x="985" y="718" on="1"/>
        <pt x="985" y="711" on="0"/>
        <pt x="975" y="684" on="0"/>
        <pt x="956" y="657" on="0"/>
        <pt x="926" y="637" on="0"/>
        <pt x="906" y="637" on="1"/>
        <pt x="475" y="637" on="1"/>
        <pt x="446" y="637" on="0"/>
        <pt x="412" y="636" on="0"/>
        <pt x="394" y="634" on="0"/>
        <pt x="389" y="631" on="0"/>
        <pt x="389" y="629" on="1"/>
        <pt x="389" y="615" on="0"/>
        <pt x="396" y="587" on="0"/>
        <pt x="396" y="567" on="1"/>
        <pt x="396" y="562" on="0"/>
        <pt x="396" y="525" on="0"/>
        <pt x="397" y="474" on="0"/>
        <pt x="398" y="413" on="0"/>
        <pt x="399" y="384" on="1"/>
        <pt x="399" y="224" on="1"/>
        <pt x="395" y="218" on="0"/>
        <pt x="421" y="211" on="0"/>
        <pt x="465" y="208" on="0"/>
        <pt x="519" y="206" on="0"/>
        <pt x="543" y="203" on="1"/>
        <pt x="577" y="201" on="0"/>
        <pt x="677" y="196" on="0"/>
        <pt x="783" y="193" on="0"/>
        <pt x="886" y="190" on="0"/>
        <pt x="960" y="187" on="0"/>
        <pt x="994" y="186" on="0"/>
        <pt x="980" y="186" on="1"/>
        <pt x="961" y="186" on="0"/>
        <pt x="967" y="186" on="0"/>
        <pt x="998" y="185" on="0"/>
        <pt x="1046" y="185" on="0"/>
        <pt x="1096" y="184" on="0"/>
        <pt x="1137" y="184" on="0"/>
        <pt x="1146" y="184" on="1"/>
        <pt x="1173" y="184" on="0"/>
        <pt x="1208" y="162" on="0"/>
        <pt x="1228" y="129" on="0"/>
        <pt x="1236" y="89" on="0"/>
        <pt x="1236" y="71" on="1"/>
        <pt x="1236" y="44" on="0"/>
        <pt x="1214" y="6" on="0"/>
        <pt x="1177" y="-16" on="0"/>
        <pt x="1126" y="-26" on="0"/>
        <pt x="1098" y="-26" on="1"/>
        <pt x="1077" y="-26" on="0"/>
        <pt x="1017" y="-11" on="0"/>
        <pt x="994" y="0" on="1"/>
        <pt x="983" y="4" on="0"/>
        <pt x="917" y="14" on="0"/>
        <pt x="814" y="22" on="0"/>
        <pt x="676" y="28" on="0"/>
        <pt x="593" y="28" on="1"/>
        <pt x="531" y="28" on="0"/>
        <pt x="398" y="17" on="0"/>
        <pt x="326" y="17" on="1"/>
        <pt x="302" y="17" on="0"/>
        <pt x="261" y="35" on="0"/>
        <pt x="231" y="66" on="0"/>
        <pt x="214" y="109" on="0"/>
        <pt x="214" y="135" on="1"/>
      </contour>
    </TTGlyph>
    <TTGlyph name="Egrave" xMin="198" yMin="-26" xMax="1287" yMax="1867">
      <contour>
        <pt x="841" y="1520" on="1"/>
        <pt x="808" y="1520" on="0"/>
        <pt x="718" y="1545" on="0"/>
        <pt x="622" y="1583" on="0"/>
        <pt x="527" y="1630" on="0"/>
        <pt x="451" y="1674" on="0"/>
        <pt x="401" y="1710" on="0"/>
        <pt x="398" y="1719" on="1"/>
        <pt x="382" y="1763" on="0"/>
        <pt x="382" y="1791" on="1"/>
        <pt x="382" y="1808" on="0"/>
        <pt x="397" y="1836" on="0"/>
        <pt x="420" y="1856" on="0"/>
        <pt x="448" y="1867" on="0"/>
        <pt x="462" y="1867" on="1"/>
        <pt x="477" y="1867" on="0"/>
        <pt x="523" y="1850" on="0"/>
        <pt x="577" y="1823" on="0"/>
        <pt x="633" y="1790" on="0"/>
        <pt x="683" y="1759" on="0"/>
        <pt x="722" y="1734" on="0"/>
        <pt x="732" y="1728" on="1"/>
        <pt x="770" y="1705" on="0"/>
        <pt x="828" y="1676" on="0"/>
        <pt x="871" y="1655" on="0"/>
        <pt x="900" y="1637" on="0"/>
        <pt x="909" y="1625" on="1"/>
        <pt x="919" y="1611" on="0"/>
        <pt x="923" y="1581" on="0"/>
        <pt x="923" y="1570" on="1"/>
        <pt x="923" y="1564" on="0"/>
        <pt x="915" y="1546" on="0"/>
        <pt x="896" y="1531" on="0"/>
        <pt x="864" y="1520" on="0"/>
      </contour>
      <contour>
        <pt x="214" y="643" on="1"/>
        <pt x="204" y="659" on="0"/>
        <pt x="198" y="696" on="0"/>
        <pt x="198" y="715" on="1"/>
        <pt x="198" y="732" on="0"/>
        <pt x="210" y="768" on="0"/>
        <pt x="214" y="786" on="1"/>
        <pt x="209" y="871" on="0"/>
        <pt x="200" y="1039" on="0"/>
        <pt x="200" y="1127" on="1"/>
        <pt x="200" y="1145" on="0"/>
        <pt x="199" y="1192" on="0"/>
        <pt x="203" y="1243" on="0"/>
        <pt x="213" y="1292" on="0"/>
        <pt x="235" y="1331" on="0"/>
        <pt x="272" y="1355" on="0"/>
        <pt x="301" y="1355" on="1"/>
        <pt x="323" y="1355" on="0"/>
        <pt x="364" y="1340" on="0"/>
        <pt x="405" y="1323" on="0"/>
        <pt x="447" y="1308" on="0"/>
        <pt x="471" y="1308" on="1"/>
        <pt x="531" y="1308" on="0"/>
        <pt x="691" y="1311" on="0"/>
        <pt x="779" y="1314" on="1"/>
        <pt x="827" y="1315" on="0"/>
        <pt x="922" y="1317" on="0"/>
        <pt x="1014" y="1319" on="0"/>
        <pt x="1098" y="1319" on="0"/>
        <pt x="1134" y="1319" on="1"/>
        <pt x="1178" y="1319" on="0"/>
        <pt x="1237" y="1315" on="0"/>
        <pt x="1272" y="1296" on="0"/>
        <pt x="1287" y="1258" on="0"/>
        <pt x="1287" y="1224" on="1"/>
        <pt x="1287" y="1209" on="0"/>
        <pt x="1272" y="1179" on="0"/>
        <pt x="1246" y="1155" on="0"/>
        <pt x="1214" y="1139" on="0"/>
        <pt x="1198" y="1139" on="1"/>
        <pt x="1005" y="1140" on="0"/>
        <pt x="734" y="1142" on="0"/>
        <pt x="552" y="1144" on="0"/>
        <pt x="448" y="1145" on="0"/>
        <pt x="396" y="1146" on="0"/>
        <pt x="381" y="1146" on="0"/>
        <pt x="381" y="1147" on="1"/>
        <pt x="381" y="822" on="1"/>
        <pt x="381" y="809" on="0"/>
        <pt x="390" y="809" on="1"/>
        <pt x="427" y="809" on="0"/>
        <pt x="503" y="808" on="0"/>
        <pt x="586" y="806" on="0"/>
        <pt x="680" y="805" on="0"/>
        <pt x="736" y="805" on="1"/>
        <pt x="773" y="805" on="0"/>
        <pt x="846" y="818" on="0"/>
        <pt x="887" y="818" on="1"/>
        <pt x="928" y="818" on="0"/>
        <pt x="985" y="771" on="0"/>
        <pt x="985" y="718" on="1"/>
        <pt x="985" y="711" on="0"/>
        <pt x="975" y="684" on="0"/>
        <pt x="956" y="657" on="0"/>
        <pt x="926" y="637" on="0"/>
        <pt x="906" y="637" on="1"/>
        <pt x="475" y="637" on="1"/>
        <pt x="446" y="637" on="0"/>
        <pt x="412" y="636" on="0"/>
        <pt x="394" y="634" on="0"/>
        <pt x="389" y="631" on="0"/>
        <pt x="389" y="629" on="1"/>
        <pt x="389" y="615" on="0"/>
        <pt x="396" y="587" on="0"/>
        <pt x="396" y="567" on="1"/>
        <pt x="396" y="562" on="0"/>
        <pt x="396" y="525" on="0"/>
        <pt x="397" y="474" on="0"/>
        <pt x="398" y="413" on="0"/>
        <pt x="399" y="384" on="1"/>
        <pt x="399" y="224" on="1"/>
        <pt x="395" y="218" on="0"/>
        <pt x="421" y="211" on="0"/>
        <pt x="465" y="208" on="0"/>
        <pt x="519" y="206" on="0"/>
        <pt x="543" y="203" on="1"/>
        <pt x="577" y="201" on="0"/>
        <pt x="677" y="196" on="0"/>
        <pt x="783" y="193" on="0"/>
        <pt x="886" y="190" on="0"/>
        <pt x="960" y="187" on="0"/>
        <pt x="994" y="186" on="0"/>
        <pt x="980" y="186" on="1"/>
        <pt x="961" y="186" on="0"/>
        <pt x="967" y="186" on="0"/>
        <pt x="998" y="185" on="0"/>
        <pt x="1046" y="185" on="0"/>
        <pt x="1096" y="184" on="0"/>
        <pt x="1137" y="184" on="0"/>
        <pt x="1146" y="184" on="1"/>
        <pt x="1173" y="184" on="0"/>
        <pt x="1208" y="162" on="0"/>
        <pt x="1228" y="129" on="0"/>
        <pt x="1236" y="89" on="0"/>
        <pt x="1236" y="71" on="1"/>
        <pt x="1236" y="44" on="0"/>
        <pt x="1214" y="6" on="0"/>
        <pt x="1177" y="-16" on="0"/>
        <pt x="1126" y="-26" on="0"/>
        <pt x="1098" y="-26" on="1"/>
        <pt x="1077" y="-26" on="0"/>
        <pt x="1017" y="-11" on="0"/>
        <pt x="994" y="0" on="1"/>
        <pt x="983" y="4" on="0"/>
        <pt x="917" y="14" on="0"/>
        <pt x="814" y="22" on="0"/>
        <pt x="676" y="28" on="0"/>
        <pt x="593" y="28" on="1"/>
        <pt x="531" y="28" on="0"/>
        <pt x="398" y="17" on="0"/>
        <pt x="326" y="17" on="1"/>
        <pt x="302" y="17" on="0"/>
        <pt x="261" y="35" on="0"/>
        <pt x="231" y="66" on="0"/>
        <pt x="214" y="109" on="0"/>
        <pt x="214" y="135" on="1"/>
      </contour>
    </TTGlyph>
    <TTGlyph name="Eth" xMin="32" yMin="-22" xMax="1438" yMax="1367">
      <contour>
        <pt x="189" y="580" on="1"/>
        <pt x="178" y="579" on="0"/>
        <pt x="157" y="579" on="0"/>
        <pt x="146" y="579" on="1"/>
        <pt x="126" y="579" on="0"/>
        <pt x="86" y="585" on="0"/>
        <pt x="53" y="605" on="0"/>
        <pt x="32" y="644" on="0"/>
        <pt x="32" y="677" on="1"/>
        <pt x="32" y="699" on="0"/>
        <pt x="49" y="736" on="0"/>
        <pt x="79" y="761" on="0"/>
        <pt x="118" y="771" on="0"/>
        <pt x="141" y="767" on="1"/>
        <pt x="190" y="757" on="1"/>
        <pt x="193" y="1187" on="1"/>
        <pt x="193" y="1244" on="0"/>
        <pt x="229" y="1315" on="0"/>
        <pt x="284" y="1354" on="0"/>
        <pt x="351" y="1367" on="0"/>
        <pt x="384" y="1367" on="1"/>
        <pt x="581" y="1367" on="1"/>
        <pt x="667" y="1367" on="0"/>
        <pt x="860" y="1324" on="0"/>
        <pt x="1051" y="1240" on="0"/>
        <pt x="1225" y="1117" on="0"/>
        <pt x="1359" y="956" on="0"/>
        <pt x="1438" y="759" on="0"/>
        <pt x="1438" y="643" on="1"/>
        <pt x="1438" y="521" on="0"/>
        <pt x="1362" y="329" on="0"/>
        <pt x="1234" y="185" on="0"/>
        <pt x="1065" y="84" on="0"/>
        <pt x="881" y="21" on="0"/>
        <pt x="693" y="-7" on="0"/>
        <pt x="609" y="-7" on="1"/>
        <pt x="587" y="-7" on="0"/>
        <pt x="526" y="-6" on="0"/>
        <pt x="462" y="-3" on="0"/>
        <pt x="403" y="3" on="0"/>
        <pt x="382" y="7" on="1"/>
        <pt x="363" y="-4" on="0"/>
        <pt x="320" y="-22" on="0"/>
        <pt x="309" y="-22" on="1"/>
        <pt x="270" y="-22" on="0"/>
        <pt x="222" y="31" on="0"/>
        <pt x="196" y="109" on="0"/>
        <pt x="187" y="200" on="0"/>
        <pt x="187" y="238" on="1"/>
      </contour>
      <contour>
        <pt x="400" y="190" on="1"/>
        <pt x="403" y="187" on="0"/>
        <pt x="421" y="180" on="0"/>
        <pt x="447" y="176" on="0"/>
        <pt x="478" y="173" on="0"/>
        <pt x="494" y="173" on="1"/>
        <pt x="655" y="173" on="1"/>
        <pt x="713" y="173" on="0"/>
        <pt x="848" y="199" on="0"/>
        <pt x="982" y="250" on="0"/>
        <pt x="1105" y="325" on="0"/>
        <pt x="1199" y="421" on="0"/>
        <pt x="1256" y="538" on="0"/>
        <pt x="1256" y="606" on="1"/>
        <pt x="1256" y="689" on="0"/>
        <pt x="1201" y="842" on="0"/>
        <pt x="1107" y="974" on="0"/>
        <pt x="981" y="1082" on="0"/>
        <pt x="837" y="1159" on="0"/>
        <pt x="684" y="1201" on="0"/>
        <pt x="610" y="1201" on="1"/>
        <pt x="590" y="1201" on="0"/>
        <pt x="522" y="1200" on="0"/>
        <pt x="453" y="1196" on="0"/>
        <pt x="397" y="1190" on="0"/>
        <pt x="388" y="1184" on="1"/>
        <pt x="380" y="1148" on="0"/>
        <pt x="373" y="1080" on="0"/>
        <pt x="370" y="1011" on="0"/>
        <pt x="370" y="939" on="0"/>
        <pt x="370" y="898" on="1"/>
        <pt x="370" y="869" on="0"/>
        <pt x="370" y="800" on="0"/>
        <pt x="371" y="760" on="1"/>
        <pt x="444" y="762" on="0"/>
        <pt x="597" y="766" on="0"/>
        <pt x="674" y="766" on="1"/>
        <pt x="716" y="766" on="0"/>
        <pt x="766" y="715" on="0"/>
        <pt x="766" y="670" on="1"/>
        <pt x="766" y="645" on="0"/>
        <pt x="739" y="608" on="0"/>
        <pt x="702" y="583" on="0"/>
        <pt x="662" y="570" on="0"/>
        <pt x="649" y="570" on="1"/>
        <pt x="614" y="570" on="0"/>
        <pt x="536" y="577" on="0"/>
        <pt x="463" y="585" on="0"/>
        <pt x="397" y="593" on="0"/>
        <pt x="374" y="593" on="1"/>
        <pt x="375" y="538" on="0"/>
        <pt x="380" y="428" on="0"/>
        <pt x="386" y="323" on="0"/>
        <pt x="395" y="229" on="0"/>
      </contour>
    </TTGlyph>
    <TTGlyph name="Euro" xMin="142" yMin="0" xMax="1458" yMax="1366">
      <contour>
        <pt x="232" y="423" on="1"/>
        <pt x="210" y="423" on="0"/>
        <pt x="176" y="441" on="0"/>
        <pt x="154" y="467" on="0"/>
        <pt x="142" y="498" on="0"/>
        <pt x="142" y="512" on="1"/>
        <pt x="142" y="527" on="0"/>
        <pt x="151" y="560" on="0"/>
        <pt x="172" y="588" on="0"/>
        <pt x="207" y="604" on="0"/>
        <pt x="232" y="603" on="1"/>
        <pt x="285" y="600" on="1"/>
        <pt x="287" y="623" on="0"/>
        <pt x="293" y="670" on="0"/>
        <pt x="298" y="694" on="1"/>
        <pt x="287" y="694" on="0"/>
        <pt x="273" y="693" on="0"/>
        <pt x="274" y="693" on="1"/>
        <pt x="259" y="693" on="0"/>
        <pt x="230" y="710" on="0"/>
        <pt x="206" y="737" on="0"/>
        <pt x="192" y="768" on="0"/>
        <pt x="192" y="783" on="1"/>
        <pt x="192" y="810" on="0"/>
        <pt x="223" y="848" on="0"/>
        <pt x="268" y="873" on="0"/>
        <pt x="321" y="885" on="0"/>
        <pt x="343" y="884" on="1"/>
        <pt x="351" y="911" on="0"/>
        <pt x="368" y="964" on="0"/>
        <pt x="377" y="989" on="1"/>
        <pt x="399" y="1052" on="0"/>
        <pt x="485" y="1185" on="0"/>
        <pt x="607" y="1295" on="0"/>
        <pt x="764" y="1366" on="0"/>
        <pt x="858" y="1366" on="1"/>
        <pt x="940" y="1366" on="0"/>
        <pt x="1107" y="1328" on="0"/>
        <pt x="1241" y="1250" on="0"/>
        <pt x="1325" y="1131" on="0"/>
        <pt x="1325" y="1050" on="1"/>
        <pt x="1325" y="1026" on="0"/>
        <pt x="1314" y="981" on="0"/>
        <pt x="1290" y="945" on="0"/>
        <pt x="1253" y="924" on="0"/>
        <pt x="1228" y="924" on="1"/>
        <pt x="1195" y="924" on="0"/>
        <pt x="1158" y="951" on="0"/>
        <pt x="1142" y="993" on="0"/>
        <pt x="1139" y="1042" on="0"/>
        <pt x="1139" y="1065" on="1"/>
        <pt x="1139" y="1086" on="0"/>
        <pt x="1110" y="1119" on="0"/>
        <pt x="1063" y="1145" on="0"/>
        <pt x="1004" y="1164" on="0"/>
        <pt x="943" y="1177" on="0"/>
        <pt x="886" y="1183" on="0"/>
        <pt x="866" y="1183" on="1"/>
        <pt x="801" y="1183" on="0"/>
        <pt x="695" y="1132" on="0"/>
        <pt x="612" y="1046" on="0"/>
        <pt x="549" y="934" on="0"/>
        <pt x="527" y="873" on="1"/>
        <pt x="583" y="870" on="1"/>
        <pt x="623" y="868" on="0"/>
        <pt x="709" y="862" on="0"/>
        <pt x="792" y="857" on="0"/>
        <pt x="866" y="854" on="0"/>
        <pt x="893" y="854" on="1"/>
        <pt x="925" y="854" on="0"/>
        <pt x="989" y="865" on="0"/>
        <pt x="1026" y="865" on="1"/>
        <pt x="1041" y="865" on="0"/>
        <pt x="1076" y="858" on="0"/>
        <pt x="1106" y="839" on="0"/>
        <pt x="1126" y="806" on="0"/>
        <pt x="1126" y="781" on="1"/>
        <pt x="1126" y="742" on="0"/>
        <pt x="1097" y="702" on="0"/>
        <pt x="1052" y="685" on="0"/>
        <pt x="997" y="684" on="0"/>
        <pt x="970" y="684" on="1"/>
        <pt x="890" y="684" on="0"/>
        <pt x="814" y="693" on="1"/>
        <pt x="776" y="697" on="0"/>
        <pt x="703" y="704" on="0"/>
        <pt x="669" y="704" on="1"/>
        <pt x="481" y="704" on="1"/>
        <pt x="475" y="671" on="0"/>
        <pt x="466" y="611" on="0"/>
        <pt x="464" y="584" on="1"/>
        <pt x="657" y="580" on="1"/>
        <pt x="673" y="580" on="0"/>
        <pt x="731" y="584" on="0"/>
        <pt x="794" y="590" on="0"/>
        <pt x="852" y="595" on="0"/>
        <pt x="869" y="595" on="1"/>
        <pt x="903" y="595" on="0"/>
        <pt x="952" y="586" on="0"/>
        <pt x="983" y="563" on="0"/>
        <pt x="997" y="522" on="0"/>
        <pt x="997" y="490" on="1"/>
        <pt x="997" y="467" on="0"/>
        <pt x="979" y="435" on="0"/>
        <pt x="937" y="414" on="0"/>
        <pt x="867" y="404" on="0"/>
        <pt x="814" y="404" on="1"/>
        <pt x="755" y="404" on="0"/>
        <pt x="608" y="409" on="0"/>
        <pt x="517" y="413" on="1"/>
        <pt x="478" y="414" on="1"/>
        <pt x="498" y="355" on="0"/>
        <pt x="579" y="264" on="0"/>
        <pt x="685" y="201" on="0"/>
        <pt x="808" y="169" on="0"/>
        <pt x="871" y="169" on="1"/>
        <pt x="909" y="169" on="0"/>
        <pt x="1013" y="174" on="0"/>
        <pt x="1121" y="186" on="0"/>
        <pt x="1223" y="207" on="0"/>
        <pt x="1260" y="222" on="1"/>
        <pt x="1275" y="230" on="0"/>
        <pt x="1296" y="252" on="0"/>
        <pt x="1319" y="273" on="0"/>
        <pt x="1346" y="287" on="0"/>
        <pt x="1367" y="287" on="1"/>
        <pt x="1409" y="287" on="0"/>
        <pt x="1458" y="231" on="0"/>
        <pt x="1458" y="191" on="1"/>
        <pt x="1458" y="164" on="0"/>
        <pt x="1444" y="130" on="0"/>
        <pt x="1428" y="117" on="1"/>
        <pt x="1391" y="86" on="0"/>
        <pt x="1264" y="42" on="0"/>
        <pt x="1114" y="13" on="0"/>
        <pt x="959" y="0" on="0"/>
        <pt x="895" y="0" on="1"/>
        <pt x="827" y="0" on="0"/>
        <pt x="691" y="15" on="0"/>
        <pt x="564" y="53" on="0"/>
        <pt x="451" y="115" on="0"/>
        <pt x="362" y="209" on="0"/>
        <pt x="301" y="338" on="0"/>
        <pt x="289" y="423" on="1"/>
        <pt x="232" y="423" on="1"/>
      </contour>
    </TTGlyph>
    <TTGlyph name="F" xMin="187" yMin="5" xMax="1272" yMax="1365">
      <contour>
        <pt x="187" y="145" on="1"/>
        <pt x="187" y="152" on="0"/>
        <pt x="193" y="190" on="0"/>
        <pt x="199" y="236" on="0"/>
        <pt x="205" y="283" on="0"/>
        <pt x="205" y="300" on="1"/>
        <pt x="205" y="1092" on="1"/>
        <pt x="205" y="1108" on="0"/>
        <pt x="206" y="1160" on="0"/>
        <pt x="211" y="1221" on="0"/>
        <pt x="224" y="1283" on="0"/>
        <pt x="246" y="1333" on="0"/>
        <pt x="280" y="1365" on="0"/>
        <pt x="305" y="1365" on="1"/>
        <pt x="331" y="1365" on="0"/>
        <pt x="382" y="1356" on="0"/>
        <pt x="433" y="1345" on="0"/>
        <pt x="484" y="1336" on="0"/>
        <pt x="511" y="1336" on="1"/>
        <pt x="1017" y="1336" on="1"/>
        <pt x="1027" y="1336" on="0"/>
        <pt x="1061" y="1341" on="0"/>
        <pt x="1097" y="1346" on="0"/>
        <pt x="1131" y="1351" on="0"/>
        <pt x="1142" y="1351" on="1"/>
        <pt x="1161" y="1351" on="0"/>
        <pt x="1207" y="1329" on="0"/>
        <pt x="1246" y="1293" on="0"/>
        <pt x="1272" y="1248" on="0"/>
        <pt x="1272" y="1224" on="1"/>
        <pt x="1272" y="1179" on="0"/>
        <pt x="1228" y="1132" on="0"/>
        <pt x="1179" y="1132" on="1"/>
        <pt x="1171" y="1132" on="0"/>
        <pt x="1120" y="1141" on="0"/>
        <pt x="1063" y="1152" on="0"/>
        <pt x="1012" y="1163" on="0"/>
        <pt x="1004" y="1165" on="1"/>
        <pt x="999" y="1165" on="0"/>
        <pt x="943" y="1164" on="0"/>
        <pt x="857" y="1162" on="0"/>
        <pt x="751" y="1160" on="0"/>
        <pt x="696" y="1159" on="1"/>
        <pt x="568" y="1156" on="0"/>
        <pt x="406" y="1153" on="1"/>
        <pt x="398" y="1153" on="0"/>
        <pt x="387" y="1139" on="0"/>
        <pt x="387" y="1136" on="1"/>
        <pt x="384" y="1107" on="0"/>
        <pt x="380" y="1056" on="0"/>
        <pt x="378" y="989" on="0"/>
        <pt x="377" y="891" on="0"/>
        <pt x="377" y="814" on="1"/>
        <pt x="377" y="803" on="0"/>
        <pt x="390" y="790" on="0"/>
        <pt x="411" y="781" on="0"/>
        <pt x="437" y="778" on="0"/>
        <pt x="450" y="778" on="1"/>
        <pt x="544" y="778" on="0"/>
        <pt x="739" y="803" on="0"/>
        <pt x="836" y="815" on="1"/>
        <pt x="852" y="817" on="0"/>
        <pt x="883" y="825" on="0"/>
        <pt x="916" y="833" on="0"/>
        <pt x="952" y="839" on="0"/>
        <pt x="972" y="839" on="1"/>
        <pt x="1002" y="839" on="0"/>
        <pt x="1035" y="814" on="0"/>
        <pt x="1050" y="782" on="0"/>
        <pt x="1053" y="750" on="0"/>
        <pt x="1053" y="742" on="1"/>
        <pt x="1053" y="708" on="0"/>
        <pt x="1028" y="667" on="0"/>
        <pt x="979" y="645" on="0"/>
        <pt x="907" y="638" on="0"/>
        <pt x="860" y="638" on="1"/>
        <pt x="801" y="638" on="0"/>
        <pt x="684" y="625" on="0"/>
        <pt x="566" y="610" on="0"/>
        <pt x="447" y="597" on="0"/>
        <pt x="386" y="597" on="1"/>
        <pt x="386" y="565" on="0"/>
        <pt x="387" y="529" on="0"/>
        <pt x="387" y="526" on="1"/>
        <pt x="387" y="437" on="0"/>
        <pt x="396" y="252" on="0"/>
        <pt x="396" y="143" on="1"/>
        <pt x="396" y="122" on="0"/>
        <pt x="391" y="73" on="0"/>
        <pt x="373" y="32" on="0"/>
        <pt x="340" y="5" on="0"/>
        <pt x="312" y="5" on="1"/>
        <pt x="277" y="5" on="0"/>
        <pt x="229" y="27" on="0"/>
        <pt x="200" y="65" on="0"/>
        <pt x="187" y="116" on="0"/>
      </contour>
    </TTGlyph>
    <TTGlyph name="G" xMin="166" yMin="0" xMax="1357" yMax="1375">
      <contour>
        <pt x="166" y="675" on="1"/>
        <pt x="166" y="728" on="0"/>
        <pt x="206" y="873" on="0"/>
        <pt x="284" y="1028" on="0"/>
        <pt x="397" y="1181" on="0"/>
        <pt x="543" y="1301" on="0"/>
        <pt x="720" y="1375" on="0"/>
        <pt x="823" y="1375" on="1"/>
        <pt x="870" y="1375" on="0"/>
        <pt x="965" y="1359" on="0"/>
        <pt x="1052" y="1332" on="0"/>
        <pt x="1128" y="1295" on="0"/>
        <pt x="1156" y="1274" on="1"/>
        <pt x="1177" y="1258" on="0"/>
        <pt x="1219" y="1223" on="0"/>
        <pt x="1253" y="1180" on="0"/>
        <pt x="1275" y="1125" on="0"/>
        <pt x="1275" y="1090" on="1"/>
        <pt x="1275" y="1061" on="0"/>
        <pt x="1256" y="1027" on="0"/>
        <pt x="1245" y="1017" on="1"/>
        <pt x="1232" y="1006" on="0"/>
        <pt x="1216" y="1000" on="1"/>
        <pt x="1191" y="1000" on="0"/>
        <pt x="1155" y="1030" on="0"/>
        <pt x="1124" y="1069" on="0"/>
        <pt x="1094" y="1109" on="0"/>
        <pt x="1076" y="1118" on="1"/>
        <pt x="1015" y="1167" on="0"/>
        <pt x="887" y="1201" on="0"/>
        <pt x="816" y="1201" on="1"/>
        <pt x="759" y="1201" on="0"/>
        <pt x="645" y="1151" on="0"/>
        <pt x="540" y="1067" on="0"/>
        <pt x="450" y="954" on="0"/>
        <pt x="383" y="828" on="0"/>
        <pt x="345" y="696" on="0"/>
        <pt x="345" y="634" on="1"/>
        <pt x="345" y="508" on="0"/>
        <pt x="419" y="331" on="0"/>
        <pt x="550" y="218" on="0"/>
        <pt x="728" y="166" on="0"/>
        <pt x="833" y="166" on="1"/>
        <pt x="928" y="166" on="0"/>
        <pt x="1045" y="192" on="0"/>
        <pt x="1108" y="244" on="0"/>
        <pt x="1129" y="321" on="0"/>
        <pt x="1129" y="373" on="1"/>
        <pt x="1129" y="385" on="0"/>
        <pt x="1128" y="427" on="0"/>
        <pt x="1127" y="474" on="0"/>
        <pt x="1126" y="521" on="0"/>
        <pt x="1126" y="537" on="1"/>
        <pt x="1078" y="529" on="0"/>
        <pt x="975" y="527" on="0"/>
        <pt x="930" y="527" on="1"/>
        <pt x="907" y="527" on="0"/>
        <pt x="857" y="540" on="0"/>
        <pt x="816" y="566" on="0"/>
        <pt x="790" y="604" on="0"/>
        <pt x="790" y="629" on="1"/>
        <pt x="790" y="656" on="0"/>
        <pt x="811" y="689" on="0"/>
        <pt x="846" y="709" on="0"/>
        <pt x="892" y="716" on="0"/>
        <pt x="918" y="716" on="1"/>
        <pt x="938" y="716" on="0"/>
        <pt x="987" y="713" on="0"/>
        <pt x="1009" y="711" on="1"/>
        <pt x="1035" y="709" on="0"/>
        <pt x="1060" y="707" on="1"/>
        <pt x="1081" y="707" on="0"/>
        <pt x="1132" y="715" on="0"/>
        <pt x="1184" y="724" on="0"/>
        <pt x="1235" y="732" on="0"/>
        <pt x="1258" y="732" on="1"/>
        <pt x="1278" y="732" on="0"/>
        <pt x="1314" y="714" on="0"/>
        <pt x="1341" y="685" on="0"/>
        <pt x="1357" y="650" on="0"/>
        <pt x="1357" y="634" on="1"/>
        <pt x="1357" y="601" on="0"/>
        <pt x="1329" y="561" on="0"/>
        <pt x="1306" y="548" on="1"/>
        <pt x="1305" y="485" on="0"/>
        <pt x="1299" y="348" on="0"/>
        <pt x="1303" y="287" on="1"/>
        <pt x="1306" y="248" on="0"/>
        <pt x="1310" y="200" on="0"/>
        <pt x="1313" y="170" on="0"/>
        <pt x="1315" y="155" on="0"/>
        <pt x="1315" y="150" on="1"/>
        <pt x="1315" y="112" on="0"/>
        <pt x="1305" y="66" on="0"/>
        <pt x="1287" y="41" on="0"/>
        <pt x="1261" y="33" on="0"/>
        <pt x="1245" y="33" on="1"/>
        <pt x="1218" y="33" on="0"/>
        <pt x="1184" y="43" on="0"/>
        <pt x="1161" y="60" on="0"/>
        <pt x="1148" y="79" on="0"/>
        <pt x="1143" y="88" on="1"/>
        <pt x="1114" y="72" on="0"/>
        <pt x="1039" y="40" on="0"/>
        <pt x="951" y="15" on="0"/>
        <pt x="854" y="0" on="0"/>
        <pt x="803" y="0" on="1"/>
        <pt x="642" y="0" on="0"/>
        <pt x="402" y="88" on="0"/>
        <pt x="244" y="259" on="0"/>
        <pt x="166" y="511" on="0"/>
      </contour>
    </TTGlyph>
    <TTGlyph name="H" xMin="197" yMin="-5" xMax="1294" yMax="1369">
      <contour>
        <pt x="208" y="85" on="1"/>
        <pt x="208" y="182" on="0"/>
        <pt x="206" y="350" on="0"/>
        <pt x="204" y="510" on="0"/>
        <pt x="201" y="675" on="0"/>
        <pt x="199" y="866" on="0"/>
        <pt x="197" y="1094" on="0"/>
        <pt x="197" y="1237" on="1"/>
        <pt x="197" y="1255" on="0"/>
        <pt x="202" y="1298" on="0"/>
        <pt x="219" y="1334" on="0"/>
        <pt x="253" y="1359" on="0"/>
        <pt x="282" y="1359" on="1"/>
        <pt x="297" y="1359" on="0"/>
        <pt x="330" y="1337" on="0"/>
        <pt x="358" y="1302" on="0"/>
        <pt x="377" y="1260" on="0"/>
        <pt x="377" y="1239" on="1"/>
        <pt x="381" y="789" on="1"/>
        <pt x="381" y="770" on="0"/>
        <pt x="397" y="770" on="1"/>
        <pt x="565" y="770" on="0"/>
        <pt x="796" y="769" on="0"/>
        <pt x="946" y="769" on="0"/>
        <pt x="1028" y="769" on="0"/>
        <pt x="1068" y="769" on="0"/>
        <pt x="1079" y="772" on="0"/>
        <pt x="1082" y="774" on="1"/>
        <pt x="1080" y="892" on="0"/>
        <pt x="1069" y="1123" on="0"/>
        <pt x="1069" y="1241" on="1"/>
        <pt x="1069" y="1267" on="0"/>
        <pt x="1077" y="1314" on="0"/>
        <pt x="1097" y="1349" on="0"/>
        <pt x="1130" y="1369" on="0"/>
        <pt x="1155" y="1369" on="1"/>
        <pt x="1187" y="1369" on="0"/>
        <pt x="1225" y="1339" on="0"/>
        <pt x="1244" y="1292" on="0"/>
        <pt x="1250" y="1232" on="0"/>
        <pt x="1250" y="1202" on="1"/>
        <pt x="1250" y="1168" on="0"/>
        <pt x="1252" y="1084" on="0"/>
        <pt x="1256" y="980" on="0"/>
        <pt x="1261" y="854" on="0"/>
        <pt x="1264" y="778" on="1"/>
        <pt x="1267" y="772" on="0"/>
        <pt x="1276" y="752" on="0"/>
        <pt x="1283" y="728" on="0"/>
        <pt x="1288" y="704" on="0"/>
        <pt x="1288" y="695" on="1"/>
        <pt x="1288" y="686" on="0"/>
        <pt x="1283" y="659" on="0"/>
        <pt x="1281" y="647" on="1"/>
        <pt x="1277" y="633" on="0"/>
        <pt x="1274" y="618" on="1"/>
        <pt x="1280" y="486" on="0"/>
        <pt x="1288" y="303" on="0"/>
        <pt x="1292" y="181" on="0"/>
        <pt x="1294" y="112" on="0"/>
        <pt x="1294" y="94" on="1"/>
        <pt x="1294" y="54" on="0"/>
        <pt x="1242" y="-5" on="0"/>
        <pt x="1198" y="-5" on="1"/>
        <pt x="1151" y="-5" on="0"/>
        <pt x="1105" y="59" on="0"/>
        <pt x="1105" y="143" on="1"/>
        <pt x="1099" y="593" on="1"/>
        <pt x="1093" y="593" on="0"/>
        <pt x="1063" y="593" on="0"/>
        <pt x="1001" y="592" on="0"/>
        <pt x="901" y="591" on="0"/>
        <pt x="750" y="590" on="0"/>
        <pt x="541" y="589" on="0"/>
        <pt x="401" y="589" on="1"/>
        <pt x="396" y="589" on="0"/>
        <pt x="385" y="568" on="0"/>
        <pt x="385" y="557" on="1"/>
        <pt x="385" y="445" on="0"/>
        <pt x="401" y="197" on="0"/>
        <pt x="401" y="76" on="1"/>
        <pt x="401" y="62" on="0"/>
        <pt x="379" y="36" on="0"/>
        <pt x="348" y="16" on="0"/>
        <pt x="312" y="5" on="0"/>
        <pt x="298" y="5" on="1"/>
        <pt x="284" y="5" on="0"/>
        <pt x="253" y="15" on="0"/>
        <pt x="226" y="36" on="0"/>
        <pt x="208" y="65" on="0"/>
      </contour>
    </TTGlyph>
    <TTGlyph name="I" xMin="153" yMin="-2" xMax="857" yMax="1384">
      <contour>
        <pt x="153" y="90" on="1"/>
        <pt x="153" y="107" on="0"/>
        <pt x="165" y="142" on="0"/>
        <pt x="187" y="171" on="0"/>
        <pt x="220" y="189" on="0"/>
        <pt x="241" y="189" on="1"/>
        <pt x="243" y="189" on="0"/>
        <pt x="270" y="186" on="0"/>
        <pt x="305" y="182" on="0"/>
        <pt x="341" y="179" on="0"/>
        <pt x="353" y="178" on="1"/>
        <pt x="353" y="264" on="1"/>
        <pt x="353" y="320" on="0"/>
        <pt x="354" y="468" on="0"/>
        <pt x="356" y="634" on="0"/>
        <pt x="359" y="809" on="0"/>
        <pt x="363" y="975" on="0"/>
        <pt x="370" y="1121" on="0"/>
        <pt x="374" y="1176" on="1"/>
        <pt x="297" y="1176" on="1"/>
        <pt x="274" y="1176" on="0"/>
        <pt x="228" y="1179" on="0"/>
        <pt x="189" y="1196" on="0"/>
        <pt x="165" y="1229" on="0"/>
        <pt x="165" y="1259" on="1"/>
        <pt x="165" y="1287" on="0"/>
        <pt x="180" y="1326" on="0"/>
        <pt x="216" y="1351" on="0"/>
        <pt x="276" y="1363" on="0"/>
        <pt x="321" y="1363" on="1"/>
        <pt x="342" y="1363" on="0"/>
        <pt x="395" y="1364" on="0"/>
        <pt x="452" y="1365" on="0"/>
        <pt x="508" y="1366" on="0"/>
        <pt x="531" y="1366" on="1"/>
        <pt x="545" y="1366" on="0"/>
        <pt x="590" y="1367" on="0"/>
        <pt x="632" y="1367" on="1"/>
        <pt x="666" y="1367" on="0"/>
        <pt x="727" y="1384" on="0"/>
        <pt x="758" y="1384" on="1"/>
        <pt x="774" y="1384" on="0"/>
        <pt x="809" y="1363" on="0"/>
        <pt x="838" y="1333" on="0"/>
        <pt x="857" y="1301" on="0"/>
        <pt x="857" y="1291" on="1"/>
        <pt x="857" y="1260" on="0"/>
        <pt x="828" y="1216" on="0"/>
        <pt x="784" y="1187" on="0"/>
        <pt x="734" y="1174" on="0"/>
        <pt x="713" y="1174" on="1"/>
        <pt x="706" y="1174" on="0"/>
        <pt x="688" y="1181" on="0"/>
        <pt x="670" y="1188" on="0"/>
        <pt x="655" y="1195" on="0"/>
        <pt x="652" y="1195" on="1"/>
        <pt x="552" y="1189" on="1"/>
        <pt x="548" y="1157" on="0"/>
        <pt x="542" y="1039" on="0"/>
        <pt x="537" y="889" on="0"/>
        <pt x="535" y="716" on="0"/>
        <pt x="535" y="629" on="1"/>
        <pt x="535" y="576" on="0"/>
        <pt x="537" y="462" on="0"/>
        <pt x="543" y="347" on="0"/>
        <pt x="552" y="231" on="0"/>
        <pt x="559" y="177" on="1"/>
        <pt x="589" y="174" on="0"/>
        <pt x="643" y="175" on="0"/>
        <pt x="685" y="177" on="0"/>
        <pt x="713" y="178" on="0"/>
        <pt x="716" y="176" on="1"/>
        <pt x="747" y="156" on="0"/>
        <pt x="775" y="106" on="0"/>
        <pt x="775" y="80" on="1"/>
        <pt x="775" y="62" on="0"/>
        <pt x="755" y="31" on="0"/>
        <pt x="724" y="10" on="0"/>
        <pt x="685" y="-2" on="0"/>
        <pt x="667" y="-2" on="1"/>
        <pt x="325" y="-2" on="1"/>
        <pt x="307" y="-2" on="0"/>
        <pt x="249" y="6" on="0"/>
        <pt x="194" y="27" on="0"/>
        <pt x="153" y="63" on="0"/>
      </contour>
    </TTGlyph>
    <TTGlyph name="IJ" xMin="199" yMin="-22" xMax="1211" yMax="1381">
      <contour>
        <pt x="350" y="444" on="1"/>
        <pt x="288" y="444" on="0"/>
        <pt x="226" y="483" on="0"/>
        <pt x="214" y="531" on="1"/>
        <pt x="212" y="538" on="0"/>
        <pt x="207" y="578" on="0"/>
        <pt x="202" y="668" on="0"/>
        <pt x="199" y="823" on="0"/>
        <pt x="199" y="946" on="1"/>
        <pt x="199" y="1034" on="0"/>
        <pt x="221" y="1216" on="0"/>
        <pt x="237" y="1297" on="1"/>
        <pt x="239" y="1304" on="0"/>
        <pt x="254" y="1333" on="0"/>
        <pt x="279" y="1360" on="0"/>
        <pt x="316" y="1381" on="0"/>
        <pt x="340" y="1381" on="1"/>
        <pt x="363" y="1381" on="0"/>
        <pt x="391" y="1367" on="0"/>
        <pt x="407" y="1344" on="0"/>
        <pt x="413" y="1313" on="0"/>
        <pt x="413" y="1295" on="1"/>
        <pt x="413" y="1254" on="0"/>
        <pt x="405" y="1154" on="0"/>
        <pt x="396" y="1051" on="0"/>
        <pt x="389" y="952" on="0"/>
        <pt x="389" y="912" on="1"/>
        <pt x="389" y="873" on="0"/>
        <pt x="403" y="776" on="0"/>
        <pt x="419" y="674" on="0"/>
        <pt x="433" y="575" on="0"/>
        <pt x="433" y="535" on="1"/>
        <pt x="433" y="491" on="0"/>
        <pt x="382" y="444" on="0"/>
      </contour>
      <contour>
        <pt x="261" y="140" on="1"/>
        <pt x="261" y="158" on="0"/>
        <pt x="275" y="200" on="0"/>
        <pt x="302" y="236" on="0"/>
        <pt x="341" y="260" on="0"/>
        <pt x="367" y="260" on="1"/>
        <pt x="384" y="260" on="0"/>
        <pt x="412" y="243" on="0"/>
        <pt x="436" y="218" on="0"/>
        <pt x="459" y="191" on="0"/>
        <pt x="471" y="182" on="1"/>
        <pt x="484" y="177" on="0"/>
        <pt x="530" y="170" on="0"/>
        <pt x="579" y="166" on="0"/>
        <pt x="625" y="165" on="0"/>
        <pt x="638" y="165" on="1"/>
        <pt x="704" y="165" on="0"/>
        <pt x="835" y="208" on="0"/>
        <pt x="940" y="282" on="0"/>
        <pt x="1005" y="380" on="0"/>
        <pt x="1005" y="434" on="1"/>
        <pt x="1005" y="454" on="0"/>
        <pt x="1014" y="677" on="0"/>
        <pt x="1014" y="882" on="1"/>
        <pt x="1014" y="968" on="0"/>
        <pt x="999" y="1137" on="0"/>
        <pt x="999" y="1225" on="1"/>
        <pt x="999" y="1252" on="0"/>
        <pt x="1010" y="1307" on="0"/>
        <pt x="1037" y="1350" on="0"/>
        <pt x="1083" y="1377" on="0"/>
        <pt x="1119" y="1377" on="1"/>
        <pt x="1143" y="1377" on="0"/>
        <pt x="1174" y="1350" on="0"/>
        <pt x="1192" y="1312" on="0"/>
        <pt x="1199" y="1272" on="0"/>
        <pt x="1199" y="1259" on="1"/>
        <pt x="1199" y="1214" on="0"/>
        <pt x="1203" y="1100" on="0"/>
        <pt x="1207" y="970" on="0"/>
        <pt x="1211" y="829" on="0"/>
        <pt x="1211" y="757" on="1"/>
        <pt x="1211" y="718" on="0"/>
        <pt x="1208" y="623" on="0"/>
        <pt x="1202" y="524" on="0"/>
        <pt x="1194" y="428" on="0"/>
        <pt x="1183" y="348" on="0"/>
        <pt x="1171" y="290" on="0"/>
        <pt x="1165" y="279" on="1"/>
        <pt x="1115" y="199" on="0"/>
        <pt x="993" y="86" on="0"/>
        <pt x="852" y="12" on="0"/>
        <pt x="693" y="-22" on="0"/>
        <pt x="605" y="-22" on="1"/>
        <pt x="578" y="-22" on="0"/>
        <pt x="506" y="-16" on="0"/>
        <pt x="430" y="-2" on="0"/>
        <pt x="356" y="22" on="0"/>
        <pt x="297" y="58" on="0"/>
        <pt x="261" y="107" on="0"/>
      </contour>
    </TTGlyph>
    <TTGlyph name="Iacute" xMin="153" yMin="-2" xMax="857" yMax="1870">
      <contour>
        <pt x="327" y="1520" on="1"/>
        <pt x="303" y="1520" on="0"/>
        <pt x="271" y="1532" on="0"/>
        <pt x="251" y="1549" on="0"/>
        <pt x="243" y="1568" on="0"/>
        <pt x="243" y="1574" on="1"/>
        <pt x="243" y="1614" on="0"/>
        <pt x="282" y="1662" on="0"/>
        <pt x="340" y="1693" on="0"/>
        <pt x="406" y="1716" on="0"/>
        <pt x="432" y="1732" on="1"/>
        <pt x="442" y="1738" on="0"/>
        <pt x="481" y="1763" on="0"/>
        <pt x="531" y="1793" on="0"/>
        <pt x="588" y="1826" on="0"/>
        <pt x="642" y="1853" on="0"/>
        <pt x="688" y="1870" on="0"/>
        <pt x="703" y="1870" on="1"/>
        <pt x="717" y="1870" on="0"/>
        <pt x="746" y="1859" on="0"/>
        <pt x="769" y="1839" on="0"/>
        <pt x="783" y="1811" on="0"/>
        <pt x="783" y="1794" on="1"/>
        <pt x="783" y="1766" on="0"/>
        <pt x="768" y="1723" on="1"/>
        <pt x="764" y="1714" on="0"/>
        <pt x="714" y="1676" on="0"/>
        <pt x="638" y="1631" on="0"/>
        <pt x="543" y="1584" on="0"/>
        <pt x="447" y="1545" on="0"/>
        <pt x="359" y="1520" on="0"/>
      </contour>
      <contour>
        <pt x="153" y="90" on="1"/>
        <pt x="153" y="107" on="0"/>
        <pt x="165" y="142" on="0"/>
        <pt x="187" y="171" on="0"/>
        <pt x="220" y="189" on="0"/>
        <pt x="241" y="189" on="1"/>
        <pt x="243" y="189" on="0"/>
        <pt x="270" y="186" on="0"/>
        <pt x="305" y="182" on="0"/>
        <pt x="341" y="179" on="0"/>
        <pt x="353" y="178" on="1"/>
        <pt x="353" y="264" on="1"/>
        <pt x="353" y="320" on="0"/>
        <pt x="354" y="468" on="0"/>
        <pt x="356" y="634" on="0"/>
        <pt x="359" y="809" on="0"/>
        <pt x="363" y="975" on="0"/>
        <pt x="370" y="1121" on="0"/>
        <pt x="374" y="1176" on="1"/>
        <pt x="297" y="1176" on="1"/>
        <pt x="274" y="1176" on="0"/>
        <pt x="228" y="1179" on="0"/>
        <pt x="189" y="1196" on="0"/>
        <pt x="165" y="1229" on="0"/>
        <pt x="165" y="1259" on="1"/>
        <pt x="165" y="1287" on="0"/>
        <pt x="180" y="1326" on="0"/>
        <pt x="216" y="1351" on="0"/>
        <pt x="276" y="1363" on="0"/>
        <pt x="321" y="1363" on="1"/>
        <pt x="342" y="1363" on="0"/>
        <pt x="395" y="1364" on="0"/>
        <pt x="452" y="1365" on="0"/>
        <pt x="508" y="1366" on="0"/>
        <pt x="531" y="1366" on="1"/>
        <pt x="545" y="1366" on="0"/>
        <pt x="590" y="1367" on="0"/>
        <pt x="632" y="1367" on="1"/>
        <pt x="666" y="1367" on="0"/>
        <pt x="727" y="1384" on="0"/>
        <pt x="758" y="1384" on="1"/>
        <pt x="774" y="1384" on="0"/>
        <pt x="809" y="1363" on="0"/>
        <pt x="838" y="1333" on="0"/>
        <pt x="857" y="1301" on="0"/>
        <pt x="857" y="1291" on="1"/>
        <pt x="857" y="1260" on="0"/>
        <pt x="828" y="1216" on="0"/>
        <pt x="784" y="1187" on="0"/>
        <pt x="734" y="1174" on="0"/>
        <pt x="713" y="1174" on="1"/>
        <pt x="706" y="1174" on="0"/>
        <pt x="688" y="1181" on="0"/>
        <pt x="670" y="1188" on="0"/>
        <pt x="655" y="1195" on="0"/>
        <pt x="652" y="1195" on="1"/>
        <pt x="552" y="1189" on="1"/>
        <pt x="548" y="1157" on="0"/>
        <pt x="542" y="1039" on="0"/>
        <pt x="537" y="889" on="0"/>
        <pt x="535" y="716" on="0"/>
        <pt x="535" y="629" on="1"/>
        <pt x="535" y="576" on="0"/>
        <pt x="537" y="462" on="0"/>
        <pt x="543" y="347" on="0"/>
        <pt x="552" y="231" on="0"/>
        <pt x="559" y="177" on="1"/>
        <pt x="589" y="174" on="0"/>
        <pt x="643" y="175" on="0"/>
        <pt x="685" y="177" on="0"/>
        <pt x="713" y="178" on="0"/>
        <pt x="716" y="176" on="1"/>
        <pt x="747" y="156" on="0"/>
        <pt x="775" y="106" on="0"/>
        <pt x="775" y="80" on="1"/>
        <pt x="775" y="62" on="0"/>
        <pt x="755" y="31" on="0"/>
        <pt x="724" y="10" on="0"/>
        <pt x="685" y="-2" on="0"/>
        <pt x="667" y="-2" on="1"/>
        <pt x="325" y="-2" on="1"/>
        <pt x="307" y="-2" on="0"/>
        <pt x="249" y="6" on="0"/>
        <pt x="194" y="27" on="0"/>
        <pt x="153" y="63" on="0"/>
      </contour>
    </TTGlyph>
    <TTGlyph name="Icircumflex" xMin="-25" yMin="-2" xMax="932" yMax="1863">
      <contour>
        <pt x="60" y="1532" on="1"/>
        <pt x="45" y="1532" on="0"/>
        <pt x="14" y="1545" on="0"/>
        <pt x="-10" y="1567" on="0"/>
        <pt x="-25" y="1595" on="0"/>
        <pt x="-25" y="1610" on="1"/>
        <pt x="-25" y="1647" on="0"/>
        <pt x="22" y="1703" on="0"/>
        <pt x="58" y="1712" on="1"/>
        <pt x="102" y="1723" on="0"/>
        <pt x="198" y="1749" on="0"/>
        <pt x="291" y="1780" on="0"/>
        <pt x="376" y="1816" on="0"/>
        <pt x="410" y="1837" on="1"/>
        <pt x="430" y="1849" on="0"/>
        <pt x="466" y="1863" on="0"/>
        <pt x="486" y="1863" on="1"/>
        <pt x="504" y="1863" on="0"/>
        <pt x="542" y="1849" on="0"/>
        <pt x="564" y="1835" on="1"/>
        <pt x="627" y="1795" on="0"/>
        <pt x="705" y="1742" on="0"/>
        <pt x="762" y="1710" on="0"/>
        <pt x="810" y="1697" on="0"/>
        <pt x="844" y="1697" on="1"/>
        <pt x="859" y="1697" on="0"/>
        <pt x="890" y="1688" on="0"/>
        <pt x="915" y="1672" on="0"/>
        <pt x="932" y="1649" on="0"/>
        <pt x="932" y="1635" on="1"/>
        <pt x="932" y="1608" on="0"/>
        <pt x="912" y="1566" on="0"/>
        <pt x="883" y="1536" on="0"/>
        <pt x="850" y="1520" on="0"/>
        <pt x="836" y="1520" on="1"/>
        <pt x="798" y="1520" on="0"/>
        <pt x="718" y="1550" on="0"/>
        <pt x="630" y="1596" on="0"/>
        <pt x="534" y="1651" on="0"/>
        <pt x="482" y="1676" on="1"/>
        <pt x="437" y="1655" on="0"/>
        <pt x="375" y="1627" on="0"/>
        <pt x="327" y="1605" on="0"/>
        <pt x="288" y="1589" on="0"/>
        <pt x="242" y="1574" on="0"/>
        <pt x="185" y="1558" on="0"/>
        <pt x="144" y="1547" on="1"/>
        <pt x="115" y="1539" on="0"/>
        <pt x="75" y="1532" on="0"/>
      </contour>
      <contour>
        <pt x="153" y="90" on="1"/>
        <pt x="153" y="107" on="0"/>
        <pt x="165" y="142" on="0"/>
        <pt x="187" y="171" on="0"/>
        <pt x="220" y="189" on="0"/>
        <pt x="241" y="189" on="1"/>
        <pt x="243" y="189" on="0"/>
        <pt x="270" y="186" on="0"/>
        <pt x="305" y="182" on="0"/>
        <pt x="341" y="179" on="0"/>
        <pt x="353" y="178" on="1"/>
        <pt x="353" y="264" on="1"/>
        <pt x="353" y="320" on="0"/>
        <pt x="354" y="468" on="0"/>
        <pt x="356" y="634" on="0"/>
        <pt x="359" y="809" on="0"/>
        <pt x="363" y="975" on="0"/>
        <pt x="370" y="1121" on="0"/>
        <pt x="374" y="1176" on="1"/>
        <pt x="297" y="1176" on="1"/>
        <pt x="274" y="1176" on="0"/>
        <pt x="228" y="1179" on="0"/>
        <pt x="189" y="1196" on="0"/>
        <pt x="165" y="1229" on="0"/>
        <pt x="165" y="1259" on="1"/>
        <pt x="165" y="1287" on="0"/>
        <pt x="180" y="1326" on="0"/>
        <pt x="216" y="1351" on="0"/>
        <pt x="276" y="1363" on="0"/>
        <pt x="321" y="1363" on="1"/>
        <pt x="342" y="1363" on="0"/>
        <pt x="395" y="1364" on="0"/>
        <pt x="452" y="1365" on="0"/>
        <pt x="508" y="1366" on="0"/>
        <pt x="531" y="1366" on="1"/>
        <pt x="545" y="1366" on="0"/>
        <pt x="590" y="1367" on="0"/>
        <pt x="632" y="1367" on="1"/>
        <pt x="666" y="1367" on="0"/>
        <pt x="727" y="1384" on="0"/>
        <pt x="758" y="1384" on="1"/>
        <pt x="774" y="1384" on="0"/>
        <pt x="809" y="1363" on="0"/>
        <pt x="838" y="1333" on="0"/>
        <pt x="857" y="1301" on="0"/>
        <pt x="857" y="1291" on="1"/>
        <pt x="857" y="1260" on="0"/>
        <pt x="828" y="1216" on="0"/>
        <pt x="784" y="1187" on="0"/>
        <pt x="734" y="1174" on="0"/>
        <pt x="713" y="1174" on="1"/>
        <pt x="706" y="1174" on="0"/>
        <pt x="688" y="1181" on="0"/>
        <pt x="670" y="1188" on="0"/>
        <pt x="655" y="1195" on="0"/>
        <pt x="652" y="1195" on="1"/>
        <pt x="552" y="1189" on="1"/>
        <pt x="548" y="1157" on="0"/>
        <pt x="542" y="1039" on="0"/>
        <pt x="537" y="889" on="0"/>
        <pt x="535" y="716" on="0"/>
        <pt x="535" y="629" on="1"/>
        <pt x="535" y="576" on="0"/>
        <pt x="537" y="462" on="0"/>
        <pt x="543" y="347" on="0"/>
        <pt x="552" y="231" on="0"/>
        <pt x="559" y="177" on="1"/>
        <pt x="589" y="174" on="0"/>
        <pt x="643" y="175" on="0"/>
        <pt x="685" y="177" on="0"/>
        <pt x="713" y="178" on="0"/>
        <pt x="716" y="176" on="1"/>
        <pt x="747" y="156" on="0"/>
        <pt x="775" y="106" on="0"/>
        <pt x="775" y="80" on="1"/>
        <pt x="775" y="62" on="0"/>
        <pt x="755" y="31" on="0"/>
        <pt x="724" y="10" on="0"/>
        <pt x="685" y="-2" on="0"/>
        <pt x="667" y="-2" on="1"/>
        <pt x="325" y="-2" on="1"/>
        <pt x="307" y="-2" on="0"/>
        <pt x="249" y="6" on="0"/>
        <pt x="194" y="27" on="0"/>
        <pt x="153" y="63" on="0"/>
      </contour>
    </TTGlyph>
    <TTGlyph name="Idieresis" xMin="95" yMin="-2" xMax="857" yMax="1778">
      <contour>
        <pt x="239" y="1519" on="1"/>
        <pt x="170" y="1519" on="0"/>
        <pt x="95" y="1583" on="0"/>
        <pt x="95" y="1665" on="1"/>
        <pt x="95" y="1688" on="0"/>
        <pt x="128" y="1729" on="0"/>
        <pt x="175" y="1760" on="0"/>
        <pt x="228" y="1778" on="0"/>
        <pt x="248" y="1778" on="1"/>
        <pt x="255" y="1778" on="0"/>
        <pt x="282" y="1760" on="0"/>
        <pt x="308" y="1725" on="0"/>
        <pt x="328" y="1674" on="0"/>
        <pt x="328" y="1640" on="1"/>
        <pt x="328" y="1609" on="0"/>
        <pt x="313" y="1564" on="0"/>
        <pt x="287" y="1534" on="0"/>
        <pt x="255" y="1519" on="0"/>
      </contour>
      <contour>
        <pt x="718" y="1519" on="1"/>
        <pt x="660" y="1519" on="0"/>
        <pt x="602" y="1576" on="0"/>
        <pt x="602" y="1636" on="1"/>
        <pt x="602" y="1691" on="0"/>
        <pt x="660" y="1764" on="0"/>
        <pt x="718" y="1764" on="1"/>
        <pt x="740" y="1764" on="0"/>
        <pt x="783" y="1740" on="0"/>
        <pt x="817" y="1703" on="0"/>
        <pt x="837" y="1657" on="0"/>
        <pt x="837" y="1636" on="1"/>
        <pt x="837" y="1614" on="0"/>
        <pt x="817" y="1572" on="0"/>
        <pt x="783" y="1539" on="0"/>
        <pt x="740" y="1519" on="0"/>
      </contour>
      <contour>
        <pt x="153" y="90" on="1"/>
        <pt x="153" y="107" on="0"/>
        <pt x="165" y="142" on="0"/>
        <pt x="187" y="171" on="0"/>
        <pt x="220" y="189" on="0"/>
        <pt x="241" y="189" on="1"/>
        <pt x="243" y="189" on="0"/>
        <pt x="270" y="186" on="0"/>
        <pt x="305" y="182" on="0"/>
        <pt x="341" y="179" on="0"/>
        <pt x="353" y="178" on="1"/>
        <pt x="353" y="264" on="1"/>
        <pt x="353" y="320" on="0"/>
        <pt x="354" y="468" on="0"/>
        <pt x="356" y="634" on="0"/>
        <pt x="359" y="809" on="0"/>
        <pt x="363" y="975" on="0"/>
        <pt x="370" y="1121" on="0"/>
        <pt x="374" y="1176" on="1"/>
        <pt x="297" y="1176" on="1"/>
        <pt x="274" y="1176" on="0"/>
        <pt x="228" y="1179" on="0"/>
        <pt x="189" y="1196" on="0"/>
        <pt x="165" y="1229" on="0"/>
        <pt x="165" y="1259" on="1"/>
        <pt x="165" y="1287" on="0"/>
        <pt x="180" y="1326" on="0"/>
        <pt x="216" y="1351" on="0"/>
        <pt x="276" y="1363" on="0"/>
        <pt x="321" y="1363" on="1"/>
        <pt x="342" y="1363" on="0"/>
        <pt x="395" y="1364" on="0"/>
        <pt x="452" y="1365" on="0"/>
        <pt x="508" y="1366" on="0"/>
        <pt x="531" y="1366" on="1"/>
        <pt x="545" y="1366" on="0"/>
        <pt x="590" y="1367" on="0"/>
        <pt x="632" y="1367" on="1"/>
        <pt x="666" y="1367" on="0"/>
        <pt x="727" y="1384" on="0"/>
        <pt x="758" y="1384" on="1"/>
        <pt x="774" y="1384" on="0"/>
        <pt x="809" y="1363" on="0"/>
        <pt x="838" y="1333" on="0"/>
        <pt x="857" y="1301" on="0"/>
        <pt x="857" y="1291" on="1"/>
        <pt x="857" y="1260" on="0"/>
        <pt x="828" y="1216" on="0"/>
        <pt x="784" y="1187" on="0"/>
        <pt x="734" y="1174" on="0"/>
        <pt x="713" y="1174" on="1"/>
        <pt x="706" y="1174" on="0"/>
        <pt x="688" y="1181" on="0"/>
        <pt x="670" y="1188" on="0"/>
        <pt x="655" y="1195" on="0"/>
        <pt x="652" y="1195" on="1"/>
        <pt x="552" y="1189" on="1"/>
        <pt x="548" y="1157" on="0"/>
        <pt x="542" y="1039" on="0"/>
        <pt x="537" y="889" on="0"/>
        <pt x="535" y="716" on="0"/>
        <pt x="535" y="629" on="1"/>
        <pt x="535" y="576" on="0"/>
        <pt x="537" y="462" on="0"/>
        <pt x="543" y="347" on="0"/>
        <pt x="552" y="231" on="0"/>
        <pt x="559" y="177" on="1"/>
        <pt x="589" y="174" on="0"/>
        <pt x="643" y="175" on="0"/>
        <pt x="685" y="177" on="0"/>
        <pt x="713" y="178" on="0"/>
        <pt x="716" y="176" on="1"/>
        <pt x="747" y="156" on="0"/>
        <pt x="775" y="106" on="0"/>
        <pt x="775" y="80" on="1"/>
        <pt x="775" y="62" on="0"/>
        <pt x="755" y="31" on="0"/>
        <pt x="724" y="10" on="0"/>
        <pt x="685" y="-2" on="0"/>
        <pt x="667" y="-2" on="1"/>
        <pt x="325" y="-2" on="1"/>
        <pt x="307" y="-2" on="0"/>
        <pt x="249" y="6" on="0"/>
        <pt x="194" y="27" on="0"/>
        <pt x="153" y="63" on="0"/>
      </contour>
    </TTGlyph>
    <TTGlyph name="Igrave" xMin="141" yMin="-2" xMax="857" yMax="1867">
      <contour>
        <pt x="600" y="1520" on="1"/>
        <pt x="567" y="1520" on="0"/>
        <pt x="477" y="1545" on="0"/>
        <pt x="381" y="1583" on="0"/>
        <pt x="286" y="1630" on="0"/>
        <pt x="210" y="1674" on="0"/>
        <pt x="160" y="1710" on="0"/>
        <pt x="157" y="1719" on="1"/>
        <pt x="141" y="1763" on="0"/>
        <pt x="141" y="1791" on="1"/>
        <pt x="141" y="1808" on="0"/>
        <pt x="156" y="1836" on="0"/>
        <pt x="179" y="1856" on="0"/>
        <pt x="207" y="1867" on="0"/>
        <pt x="221" y="1867" on="1"/>
        <pt x="236" y="1867" on="0"/>
        <pt x="282" y="1850" on="0"/>
        <pt x="336" y="1823" on="0"/>
        <pt x="392" y="1790" on="0"/>
        <pt x="442" y="1759" on="0"/>
        <pt x="481" y="1734" on="0"/>
        <pt x="491" y="1728" on="1"/>
        <pt x="529" y="1705" on="0"/>
        <pt x="587" y="1676" on="0"/>
        <pt x="630" y="1655" on="0"/>
        <pt x="659" y="1637" on="0"/>
        <pt x="668" y="1625" on="1"/>
        <pt x="678" y="1611" on="0"/>
        <pt x="682" y="1581" on="0"/>
        <pt x="682" y="1570" on="1"/>
        <pt x="682" y="1564" on="0"/>
        <pt x="674" y="1546" on="0"/>
        <pt x="655" y="1531" on="0"/>
        <pt x="623" y="1520" on="0"/>
      </contour>
      <contour>
        <pt x="153" y="90" on="1"/>
        <pt x="153" y="107" on="0"/>
        <pt x="165" y="142" on="0"/>
        <pt x="187" y="171" on="0"/>
        <pt x="220" y="189" on="0"/>
        <pt x="241" y="189" on="1"/>
        <pt x="243" y="189" on="0"/>
        <pt x="270" y="186" on="0"/>
        <pt x="305" y="182" on="0"/>
        <pt x="341" y="179" on="0"/>
        <pt x="353" y="178" on="1"/>
        <pt x="353" y="264" on="1"/>
        <pt x="353" y="320" on="0"/>
        <pt x="354" y="468" on="0"/>
        <pt x="356" y="634" on="0"/>
        <pt x="359" y="809" on="0"/>
        <pt x="363" y="975" on="0"/>
        <pt x="370" y="1121" on="0"/>
        <pt x="374" y="1176" on="1"/>
        <pt x="297" y="1176" on="1"/>
        <pt x="274" y="1176" on="0"/>
        <pt x="228" y="1179" on="0"/>
        <pt x="189" y="1196" on="0"/>
        <pt x="165" y="1229" on="0"/>
        <pt x="165" y="1259" on="1"/>
        <pt x="165" y="1287" on="0"/>
        <pt x="180" y="1326" on="0"/>
        <pt x="216" y="1351" on="0"/>
        <pt x="276" y="1363" on="0"/>
        <pt x="321" y="1363" on="1"/>
        <pt x="342" y="1363" on="0"/>
        <pt x="395" y="1364" on="0"/>
        <pt x="452" y="1365" on="0"/>
        <pt x="508" y="1366" on="0"/>
        <pt x="531" y="1366" on="1"/>
        <pt x="545" y="1366" on="0"/>
        <pt x="590" y="1367" on="0"/>
        <pt x="632" y="1367" on="1"/>
        <pt x="666" y="1367" on="0"/>
        <pt x="727" y="1384" on="0"/>
        <pt x="758" y="1384" on="1"/>
        <pt x="774" y="1384" on="0"/>
        <pt x="809" y="1363" on="0"/>
        <pt x="838" y="1333" on="0"/>
        <pt x="857" y="1301" on="0"/>
        <pt x="857" y="1291" on="1"/>
        <pt x="857" y="1260" on="0"/>
        <pt x="828" y="1216" on="0"/>
        <pt x="784" y="1187" on="0"/>
        <pt x="734" y="1174" on="0"/>
        <pt x="713" y="1174" on="1"/>
        <pt x="706" y="1174" on="0"/>
        <pt x="688" y="1181" on="0"/>
        <pt x="670" y="1188" on="0"/>
        <pt x="655" y="1195" on="0"/>
        <pt x="652" y="1195" on="1"/>
        <pt x="552" y="1189" on="1"/>
        <pt x="548" y="1157" on="0"/>
        <pt x="542" y="1039" on="0"/>
        <pt x="537" y="889" on="0"/>
        <pt x="535" y="716" on="0"/>
        <pt x="535" y="629" on="1"/>
        <pt x="535" y="576" on="0"/>
        <pt x="537" y="462" on="0"/>
        <pt x="543" y="347" on="0"/>
        <pt x="552" y="231" on="0"/>
        <pt x="559" y="177" on="1"/>
        <pt x="589" y="174" on="0"/>
        <pt x="643" y="175" on="0"/>
        <pt x="685" y="177" on="0"/>
        <pt x="713" y="178" on="0"/>
        <pt x="716" y="176" on="1"/>
        <pt x="747" y="156" on="0"/>
        <pt x="775" y="106" on="0"/>
        <pt x="775" y="80" on="1"/>
        <pt x="775" y="62" on="0"/>
        <pt x="755" y="31" on="0"/>
        <pt x="724" y="10" on="0"/>
        <pt x="685" y="-2" on="0"/>
        <pt x="667" y="-2" on="1"/>
        <pt x="325" y="-2" on="1"/>
        <pt x="307" y="-2" on="0"/>
        <pt x="249" y="6" on="0"/>
        <pt x="194" y="27" on="0"/>
        <pt x="153" y="63" on="0"/>
      </contour>
    </TTGlyph>
    <TTGlyph name="Itilde" xMin="76" yMin="-2" xMax="875" yMax="1828">
      <contour>
        <pt x="141" y="1548" on="1"/>
        <pt x="109" y="1548" on="0"/>
        <pt x="76" y="1580" on="0"/>
        <pt x="76" y="1615" on="1"/>
        <pt x="76" y="1681" on="0"/>
        <pt x="138" y="1765" on="0"/>
        <pt x="231" y="1811" on="0"/>
        <pt x="338" y="1828" on="0"/>
        <pt x="383" y="1828" on="1"/>
        <pt x="423" y="1828" on="0"/>
        <pt x="480" y="1789" on="0"/>
        <pt x="530" y="1741" on="0"/>
        <pt x="582" y="1702" on="0"/>
        <pt x="617" y="1702" on="1"/>
        <pt x="642" y="1702" on="0"/>
        <pt x="686" y="1724" on="0"/>
        <pt x="731" y="1751" on="0"/>
        <pt x="779" y="1773" on="0"/>
        <pt x="809" y="1773" on="1"/>
        <pt x="834" y="1773" on="0"/>
        <pt x="861" y="1756" on="0"/>
        <pt x="873" y="1731" on="0"/>
        <pt x="875" y="1702" on="0"/>
        <pt x="875" y="1690" on="1"/>
        <pt x="875" y="1656" on="0"/>
        <pt x="811" y="1595" on="0"/>
        <pt x="722" y="1548" on="0"/>
        <pt x="629" y="1521" on="0"/>
        <pt x="600" y="1521" on="1"/>
        <pt x="543" y="1521" on="0"/>
        <pt x="466" y="1561" on="0"/>
        <pt x="405" y="1608" on="0"/>
        <pt x="351" y="1648" on="0"/>
        <pt x="318" y="1648" on="1"/>
        <pt x="284" y="1648" on="0"/>
        <pt x="239" y="1617" on="0"/>
        <pt x="203" y="1579" on="0"/>
        <pt x="166" y="1548" on="0"/>
      </contour>
      <contour>
        <pt x="153" y="90" on="1"/>
        <pt x="153" y="107" on="0"/>
        <pt x="165" y="142" on="0"/>
        <pt x="187" y="171" on="0"/>
        <pt x="220" y="189" on="0"/>
        <pt x="241" y="189" on="1"/>
        <pt x="243" y="189" on="0"/>
        <pt x="270" y="186" on="0"/>
        <pt x="305" y="182" on="0"/>
        <pt x="341" y="179" on="0"/>
        <pt x="353" y="178" on="1"/>
        <pt x="353" y="264" on="1"/>
        <pt x="353" y="320" on="0"/>
        <pt x="354" y="468" on="0"/>
        <pt x="356" y="634" on="0"/>
        <pt x="359" y="809" on="0"/>
        <pt x="363" y="975" on="0"/>
        <pt x="370" y="1121" on="0"/>
        <pt x="374" y="1176" on="1"/>
        <pt x="297" y="1176" on="1"/>
        <pt x="274" y="1176" on="0"/>
        <pt x="228" y="1179" on="0"/>
        <pt x="189" y="1196" on="0"/>
        <pt x="165" y="1229" on="0"/>
        <pt x="165" y="1259" on="1"/>
        <pt x="165" y="1287" on="0"/>
        <pt x="180" y="1326" on="0"/>
        <pt x="216" y="1351" on="0"/>
        <pt x="276" y="1363" on="0"/>
        <pt x="321" y="1363" on="1"/>
        <pt x="342" y="1363" on="0"/>
        <pt x="395" y="1364" on="0"/>
        <pt x="452" y="1365" on="0"/>
        <pt x="508" y="1366" on="0"/>
        <pt x="531" y="1366" on="1"/>
        <pt x="545" y="1366" on="0"/>
        <pt x="590" y="1367" on="0"/>
        <pt x="632" y="1367" on="1"/>
        <pt x="666" y="1367" on="0"/>
        <pt x="727" y="1384" on="0"/>
        <pt x="758" y="1384" on="1"/>
        <pt x="774" y="1384" on="0"/>
        <pt x="809" y="1363" on="0"/>
        <pt x="838" y="1333" on="0"/>
        <pt x="857" y="1301" on="0"/>
        <pt x="857" y="1291" on="1"/>
        <pt x="857" y="1260" on="0"/>
        <pt x="828" y="1216" on="0"/>
        <pt x="784" y="1187" on="0"/>
        <pt x="734" y="1174" on="0"/>
        <pt x="713" y="1174" on="1"/>
        <pt x="706" y="1174" on="0"/>
        <pt x="688" y="1181" on="0"/>
        <pt x="670" y="1188" on="0"/>
        <pt x="655" y="1195" on="0"/>
        <pt x="652" y="1195" on="1"/>
        <pt x="552" y="1189" on="1"/>
        <pt x="548" y="1157" on="0"/>
        <pt x="542" y="1039" on="0"/>
        <pt x="537" y="889" on="0"/>
        <pt x="535" y="716" on="0"/>
        <pt x="535" y="629" on="1"/>
        <pt x="535" y="576" on="0"/>
        <pt x="537" y="462" on="0"/>
        <pt x="543" y="347" on="0"/>
        <pt x="552" y="231" on="0"/>
        <pt x="559" y="177" on="1"/>
        <pt x="589" y="174" on="0"/>
        <pt x="643" y="175" on="0"/>
        <pt x="685" y="177" on="0"/>
        <pt x="713" y="178" on="0"/>
        <pt x="716" y="176" on="1"/>
        <pt x="747" y="156" on="0"/>
        <pt x="775" y="106" on="0"/>
        <pt x="775" y="80" on="1"/>
        <pt x="775" y="62" on="0"/>
        <pt x="755" y="31" on="0"/>
        <pt x="724" y="10" on="0"/>
        <pt x="685" y="-2" on="0"/>
        <pt x="667" y="-2" on="1"/>
        <pt x="325" y="-2" on="1"/>
        <pt x="307" y="-2" on="0"/>
        <pt x="249" y="6" on="0"/>
        <pt x="194" y="27" on="0"/>
        <pt x="153" y="63" on="0"/>
      </contour>
    </TTGlyph>
    <TTGlyph name="J" xMin="93" yMin="-22" xMax="923" yMax="1377">
      <contour>
        <pt x="93" y="140" on="1"/>
        <pt x="93" y="156" on="0"/>
        <pt x="107" y="195" on="0"/>
        <pt x="134" y="228" on="0"/>
        <pt x="173" y="250" on="0"/>
        <pt x="199" y="250" on="1"/>
        <pt x="217" y="250" on="0"/>
        <pt x="244" y="233" on="0"/>
        <pt x="268" y="208" on="0"/>
        <pt x="291" y="181" on="0"/>
        <pt x="303" y="172" on="1"/>
        <pt x="310" y="167" on="0"/>
        <pt x="334" y="160" on="0"/>
        <pt x="359" y="156" on="0"/>
        <pt x="383" y="155" on="0"/>
        <pt x="390" y="155" on="1"/>
        <pt x="450" y="155" on="0"/>
        <pt x="570" y="200" on="0"/>
        <pt x="667" y="276" on="0"/>
        <pt x="727" y="378" on="0"/>
        <pt x="727" y="434" on="1"/>
        <pt x="727" y="454" on="0"/>
        <pt x="736" y="677" on="0"/>
        <pt x="736" y="882" on="1"/>
        <pt x="736" y="968" on="0"/>
        <pt x="721" y="1137" on="0"/>
        <pt x="721" y="1225" on="1"/>
        <pt x="721" y="1252" on="0"/>
        <pt x="731" y="1307" on="0"/>
        <pt x="756" y="1350" on="0"/>
        <pt x="798" y="1377" on="0"/>
        <pt x="831" y="1377" on="1"/>
        <pt x="855" y="1377" on="0"/>
        <pt x="886" y="1350" on="0"/>
        <pt x="904" y="1312" on="0"/>
        <pt x="911" y="1272" on="0"/>
        <pt x="911" y="1259" on="1"/>
        <pt x="911" y="1214" on="0"/>
        <pt x="915" y="1100" on="0"/>
        <pt x="919" y="970" on="0"/>
        <pt x="923" y="829" on="0"/>
        <pt x="923" y="757" on="1"/>
        <pt x="923" y="718" on="0"/>
        <pt x="920" y="623" on="0"/>
        <pt x="914" y="524" on="0"/>
        <pt x="906" y="428" on="0"/>
        <pt x="895" y="348" on="0"/>
        <pt x="883" y="290" on="0"/>
        <pt x="877" y="279" on="1"/>
        <pt x="782" y="120" on="0"/>
        <pt x="520" y="-22" on="0"/>
        <pt x="357" y="-22" on="1"/>
        <pt x="326" y="-22" on="0"/>
        <pt x="236" y="-8" on="0"/>
        <pt x="152" y="28" on="0"/>
        <pt x="93" y="91" on="0"/>
      </contour>
    </TTGlyph>
    <TTGlyph name="Jcircumflex" xMin="93" yMin="-22" xMax="1242" yMax="1863">
      <contour>
        <pt x="370" y="1532" on="1"/>
        <pt x="355" y="1532" on="0"/>
        <pt x="324" y="1545" on="0"/>
        <pt x="300" y="1567" on="0"/>
        <pt x="285" y="1595" on="0"/>
        <pt x="285" y="1610" on="1"/>
        <pt x="285" y="1647" on="0"/>
        <pt x="332" y="1703" on="0"/>
        <pt x="368" y="1712" on="1"/>
        <pt x="412" y="1723" on="0"/>
        <pt x="508" y="1749" on="0"/>
        <pt x="601" y="1780" on="0"/>
        <pt x="686" y="1816" on="0"/>
        <pt x="720" y="1837" on="1"/>
        <pt x="740" y="1849" on="0"/>
        <pt x="776" y="1863" on="0"/>
        <pt x="796" y="1863" on="1"/>
        <pt x="814" y="1863" on="0"/>
        <pt x="852" y="1849" on="0"/>
        <pt x="874" y="1835" on="1"/>
        <pt x="937" y="1795" on="0"/>
        <pt x="1015" y="1742" on="0"/>
        <pt x="1072" y="1710" on="0"/>
        <pt x="1120" y="1697" on="0"/>
        <pt x="1154" y="1697" on="1"/>
        <pt x="1169" y="1697" on="0"/>
        <pt x="1200" y="1688" on="0"/>
        <pt x="1225" y="1672" on="0"/>
        <pt x="1242" y="1649" on="0"/>
        <pt x="1242" y="1635" on="1"/>
        <pt x="1242" y="1608" on="0"/>
        <pt x="1222" y="1566" on="0"/>
        <pt x="1193" y="1536" on="0"/>
        <pt x="1160" y="1520" on="0"/>
        <pt x="1146" y="1520" on="1"/>
        <pt x="1108" y="1520" on="0"/>
        <pt x="1028" y="1550" on="0"/>
        <pt x="940" y="1596" on="0"/>
        <pt x="844" y="1651" on="0"/>
        <pt x="792" y="1676" on="1"/>
        <pt x="747" y="1655" on="0"/>
        <pt x="685" y="1627" on="0"/>
        <pt x="637" y="1605" on="0"/>
        <pt x="598" y="1589" on="0"/>
        <pt x="552" y="1574" on="0"/>
        <pt x="495" y="1558" on="0"/>
        <pt x="454" y="1547" on="1"/>
        <pt x="425" y="1539" on="0"/>
        <pt x="385" y="1532" on="0"/>
      </contour>
      <contour>
        <pt x="93" y="140" on="1"/>
        <pt x="93" y="156" on="0"/>
        <pt x="107" y="195" on="0"/>
        <pt x="134" y="228" on="0"/>
        <pt x="173" y="250" on="0"/>
        <pt x="199" y="250" on="1"/>
        <pt x="217" y="250" on="0"/>
        <pt x="244" y="233" on="0"/>
        <pt x="268" y="208" on="0"/>
        <pt x="291" y="181" on="0"/>
        <pt x="303" y="172" on="1"/>
        <pt x="310" y="167" on="0"/>
        <pt x="334" y="160" on="0"/>
        <pt x="359" y="156" on="0"/>
        <pt x="383" y="155" on="0"/>
        <pt x="390" y="155" on="1"/>
        <pt x="450" y="155" on="0"/>
        <pt x="570" y="200" on="0"/>
        <pt x="667" y="276" on="0"/>
        <pt x="727" y="378" on="0"/>
        <pt x="727" y="434" on="1"/>
        <pt x="727" y="454" on="0"/>
        <pt x="736" y="677" on="0"/>
        <pt x="736" y="882" on="1"/>
        <pt x="736" y="968" on="0"/>
        <pt x="721" y="1137" on="0"/>
        <pt x="721" y="1225" on="1"/>
        <pt x="721" y="1252" on="0"/>
        <pt x="731" y="1307" on="0"/>
        <pt x="756" y="1350" on="0"/>
        <pt x="798" y="1377" on="0"/>
        <pt x="831" y="1377" on="1"/>
        <pt x="855" y="1377" on="0"/>
        <pt x="886" y="1350" on="0"/>
        <pt x="904" y="1312" on="0"/>
        <pt x="911" y="1272" on="0"/>
        <pt x="911" y="1259" on="1"/>
        <pt x="911" y="1214" on="0"/>
        <pt x="915" y="1100" on="0"/>
        <pt x="919" y="970" on="0"/>
        <pt x="923" y="829" on="0"/>
        <pt x="923" y="757" on="1"/>
        <pt x="923" y="718" on="0"/>
        <pt x="920" y="623" on="0"/>
        <pt x="914" y="524" on="0"/>
        <pt x="906" y="428" on="0"/>
        <pt x="895" y="348" on="0"/>
        <pt x="883" y="290" on="0"/>
        <pt x="877" y="279" on="1"/>
        <pt x="782" y="120" on="0"/>
        <pt x="520" y="-22" on="0"/>
        <pt x="357" y="-22" on="1"/>
        <pt x="326" y="-22" on="0"/>
        <pt x="236" y="-8" on="0"/>
        <pt x="152" y="28" on="0"/>
        <pt x="93" y="91" on="0"/>
      </contour>
    </TTGlyph>
    <TTGlyph name="K" xMin="218" yMin="-123" xMax="1283" yMax="1390">
      <contour>
        <pt x="223" y="50" on="1"/>
        <pt x="218" y="117" on="0"/>
        <pt x="218" y="278" on="0"/>
        <pt x="218" y="375" on="1"/>
        <pt x="218" y="448" on="0"/>
        <pt x="218" y="615" on="0"/>
        <pt x="218" y="786" on="0"/>
        <pt x="219" y="956" on="0"/>
        <pt x="220" y="1110" on="0"/>
        <pt x="220" y="1241" on="0"/>
        <pt x="221" y="1289" on="1"/>
        <pt x="222" y="1306" on="0"/>
        <pt x="232" y="1342" on="0"/>
        <pt x="254" y="1371" on="0"/>
        <pt x="288" y="1390" on="0"/>
        <pt x="313" y="1390" on="1"/>
        <pt x="328" y="1390" on="0"/>
        <pt x="359" y="1380" on="0"/>
        <pt x="383" y="1360" on="0"/>
        <pt x="398" y="1328" on="0"/>
        <pt x="398" y="1306" on="1"/>
        <pt x="391" y="907" on="1"/>
        <pt x="391" y="897" on="0"/>
        <pt x="392" y="861" on="0"/>
        <pt x="394" y="819" on="0"/>
        <pt x="397" y="779" on="0"/>
        <pt x="399" y="765" on="1"/>
        <pt x="562" y="947" on="1"/>
        <pt x="580" y="994" on="0"/>
        <pt x="636" y="1042" on="0"/>
        <pt x="675" y="1050" on="1"/>
        <pt x="691" y="1070" on="0"/>
        <pt x="750" y="1140" on="0"/>
        <pt x="780" y="1175" on="1"/>
        <pt x="796" y="1192" on="0"/>
        <pt x="826" y="1226" on="0"/>
        <pt x="852" y="1255" on="0"/>
        <pt x="871" y="1279" on="0"/>
        <pt x="876" y="1285" on="1"/>
        <pt x="891" y="1305" on="0"/>
        <pt x="913" y="1335" on="0"/>
        <pt x="941" y="1355" on="0"/>
        <pt x="981" y="1365" on="0"/>
        <pt x="1014" y="1365" on="1"/>
        <pt x="1023" y="1365" on="0"/>
        <pt x="1048" y="1357" on="0"/>
        <pt x="1069" y="1339" on="0"/>
        <pt x="1084" y="1309" on="0"/>
        <pt x="1084" y="1287" on="1"/>
        <pt x="1084" y="1243" on="0"/>
        <pt x="1053" y="1191" on="0"/>
        <pt x="1007" y="1151" on="0"/>
        <pt x="954" y="1113" on="0"/>
        <pt x="931" y="1084" on="1"/>
        <pt x="928" y="1081" on="0"/>
        <pt x="895" y="1042" on="0"/>
        <pt x="853" y="989" on="0"/>
        <pt x="810" y="932" on="0"/>
        <pt x="795" y="911" on="1"/>
        <pt x="805" y="888" on="0"/>
        <pt x="836" y="845" on="0"/>
        <pt x="849" y="823" on="1"/>
        <pt x="908" y="723" on="0"/>
        <pt x="1019" y="516" on="0"/>
        <pt x="1086" y="403" on="1"/>
        <pt x="1102" y="375" on="0"/>
        <pt x="1144" y="305" on="0"/>
        <pt x="1188" y="227" on="0"/>
        <pt x="1230" y="147" on="0"/>
        <pt x="1263" y="74" on="0"/>
        <pt x="1283" y="12" on="0"/>
        <pt x="1283" y="-9" on="1"/>
        <pt x="1283" y="-32" on="0"/>
        <pt x="1273" y="-74" on="0"/>
        <pt x="1249" y="-105" on="0"/>
        <pt x="1209" y="-123" on="0"/>
        <pt x="1179" y="-123" on="1"/>
        <pt x="1161" y="-123" on="0"/>
        <pt x="1125" y="-96" on="0"/>
        <pt x="1093" y="-53" on="0"/>
        <pt x="1064" y="0" on="0"/>
        <pt x="1041" y="52" on="0"/>
        <pt x="1023" y="95" on="0"/>
        <pt x="1018" y="108" on="1"/>
        <pt x="1013" y="119" on="0"/>
        <pt x="982" y="187" on="0"/>
        <pt x="936" y="282" on="0"/>
        <pt x="878" y="398" on="0"/>
        <pt x="817" y="516" on="0"/>
        <pt x="757" y="628" on="0"/>
        <pt x="705" y="718" on="0"/>
        <pt x="665" y="777" on="0"/>
        <pt x="655" y="782" on="1"/>
        <pt x="584" y="725" on="0"/>
        <pt x="459" y="572" on="0"/>
        <pt x="408" y="498" on="1"/>
        <pt x="406" y="476" on="0"/>
        <pt x="405" y="445" on="0"/>
        <pt x="405" y="424" on="1"/>
        <pt x="405" y="376" on="0"/>
        <pt x="414" y="278" on="0"/>
        <pt x="421" y="229" on="1"/>
        <pt x="425" y="186" on="0"/>
        <pt x="431" y="97" on="0"/>
        <pt x="433" y="50" on="1"/>
        <pt x="433" y="38" on="0"/>
        <pt x="415" y="10" on="0"/>
        <pt x="386" y="-13" on="0"/>
        <pt x="352" y="-28" on="0"/>
        <pt x="336" y="-28" on="1"/>
        <pt x="315" y="-28" on="0"/>
        <pt x="276" y="-16" on="0"/>
        <pt x="244" y="5" on="0"/>
        <pt x="224" y="34" on="0"/>
      </contour>
    </TTGlyph>
    <TTGlyph name="L" xMin="187" yMin="-11" xMax="1165" yMax="1371">
      <contour>
        <pt x="200" y="59" on="1"/>
        <pt x="200" y="93" on="0"/>
        <pt x="209" y="123" on="0"/>
        <pt x="211" y="130" on="1"/>
        <pt x="211" y="172" on="0"/>
        <pt x="212" y="226" on="0"/>
        <pt x="214" y="261" on="0"/>
        <pt x="217" y="285" on="0"/>
        <pt x="219" y="309" on="0"/>
        <pt x="220" y="338" on="0"/>
        <pt x="220" y="362" on="1"/>
        <pt x="220" y="450" on="0"/>
        <pt x="210" y="629" on="0"/>
        <pt x="197" y="812" on="0"/>
        <pt x="187" y="998" on="0"/>
        <pt x="187" y="1093" on="1"/>
        <pt x="187" y="1172" on="0"/>
        <pt x="190" y="1279" on="0"/>
        <pt x="206" y="1343" on="0"/>
        <pt x="239" y="1371" on="0"/>
        <pt x="269" y="1371" on="1"/>
        <pt x="289" y="1371" on="0"/>
        <pt x="327" y="1353" on="0"/>
        <pt x="356" y="1322" on="0"/>
        <pt x="373" y="1281" on="0"/>
        <pt x="373" y="1259" on="1"/>
        <pt x="373" y="1219" on="0"/>
        <pt x="369" y="1137" on="0"/>
        <pt x="369" y="1099" on="1"/>
        <pt x="369" y="992" on="0"/>
        <pt x="376" y="778" on="0"/>
        <pt x="385" y="560" on="0"/>
        <pt x="393" y="335" on="0"/>
        <pt x="395" y="218" on="1"/>
        <pt x="395" y="201" on="0"/>
        <pt x="400" y="196" on="0"/>
        <pt x="420" y="196" on="1"/>
        <pt x="446" y="195" on="0"/>
        <pt x="539" y="191" on="0"/>
        <pt x="665" y="187" on="0"/>
        <pt x="822" y="184" on="0"/>
        <pt x="913" y="184" on="1"/>
        <pt x="951" y="184" on="0"/>
        <pt x="1027" y="199" on="0"/>
        <pt x="1069" y="199" on="1"/>
        <pt x="1089" y="199" on="0"/>
        <pt x="1124" y="181" on="0"/>
        <pt x="1150" y="152" on="0"/>
        <pt x="1165" y="115" on="0"/>
        <pt x="1165" y="95" on="1"/>
        <pt x="1165" y="77" on="0"/>
        <pt x="1145" y="39" on="0"/>
        <pt x="1113" y="9" on="0"/>
        <pt x="1073" y="-11" on="0"/>
        <pt x="1054" y="-11" on="1"/>
        <pt x="1025" y="-11" on="0"/>
        <pt x="982" y="-2" on="0"/>
        <pt x="935" y="10" on="0"/>
        <pt x="878" y="19" on="0"/>
        <pt x="835" y="19" on="1"/>
        <pt x="735" y="19" on="0"/>
        <pt x="532" y="-2" on="0"/>
        <pt x="431" y="-2" on="1"/>
        <pt x="397" y="-2" on="0"/>
        <pt x="330" y="11" on="0"/>
        <pt x="294" y="11" on="1"/>
        <pt x="288" y="11" on="0"/>
        <pt x="260" y="8" on="0"/>
        <pt x="247" y="8" on="1"/>
        <pt x="228" y="8" on="0"/>
        <pt x="200" y="25" on="0"/>
      </contour>
    </TTGlyph>
    <TTGlyph name="Ldotaccent" xMin="187" yMin="-11" xMax="1165" yMax="1371">
      <contour>
        <pt x="200" y="59" on="1"/>
        <pt x="200" y="93" on="0"/>
        <pt x="209" y="123" on="0"/>
        <pt x="211" y="130" on="1"/>
        <pt x="211" y="172" on="0"/>
        <pt x="212" y="226" on="0"/>
        <pt x="214" y="261" on="0"/>
        <pt x="217" y="285" on="0"/>
        <pt x="219" y="309" on="0"/>
        <pt x="220" y="338" on="0"/>
        <pt x="220" y="362" on="1"/>
        <pt x="220" y="450" on="0"/>
        <pt x="210" y="629" on="0"/>
        <pt x="197" y="812" on="0"/>
        <pt x="187" y="998" on="0"/>
        <pt x="187" y="1093" on="1"/>
        <pt x="187" y="1172" on="0"/>
        <pt x="190" y="1279" on="0"/>
        <pt x="206" y="1343" on="0"/>
        <pt x="239" y="1371" on="0"/>
        <pt x="269" y="1371" on="1"/>
        <pt x="289" y="1371" on="0"/>
        <pt x="327" y="1353" on="0"/>
        <pt x="356" y="1322" on="0"/>
        <pt x="373" y="1281" on="0"/>
        <pt x="373" y="1259" on="1"/>
        <pt x="373" y="1219" on="0"/>
        <pt x="369" y="1137" on="0"/>
        <pt x="369" y="1099" on="1"/>
        <pt x="369" y="992" on="0"/>
        <pt x="376" y="778" on="0"/>
        <pt x="385" y="560" on="0"/>
        <pt x="393" y="335" on="0"/>
        <pt x="395" y="218" on="1"/>
        <pt x="395" y="201" on="0"/>
        <pt x="400" y="196" on="0"/>
        <pt x="420" y="196" on="1"/>
        <pt x="446" y="195" on="0"/>
        <pt x="539" y="191" on="0"/>
        <pt x="665" y="187" on="0"/>
        <pt x="822" y="184" on="0"/>
        <pt x="913" y="184" on="1"/>
        <pt x="951" y="184" on="0"/>
        <pt x="1027" y="199" on="0"/>
        <pt x="1069" y="199" on="1"/>
        <pt x="1089" y="199" on="0"/>
        <pt x="1124" y="181" on="0"/>
        <pt x="1150" y="152" on="0"/>
        <pt x="1165" y="115" on="0"/>
        <pt x="1165" y="95" on="1"/>
        <pt x="1165" y="77" on="0"/>
        <pt x="1145" y="39" on="0"/>
        <pt x="1113" y="9" on="0"/>
        <pt x="1073" y="-11" on="0"/>
        <pt x="1054" y="-11" on="1"/>
        <pt x="1025" y="-11" on="0"/>
        <pt x="982" y="-2" on="0"/>
        <pt x="935" y="10" on="0"/>
        <pt x="878" y="19" on="0"/>
        <pt x="835" y="19" on="1"/>
        <pt x="735" y="19" on="0"/>
        <pt x="532" y="-2" on="0"/>
        <pt x="431" y="-2" on="1"/>
        <pt x="397" y="-2" on="0"/>
        <pt x="330" y="11" on="0"/>
        <pt x="294" y="11" on="1"/>
        <pt x="288" y="11" on="0"/>
        <pt x="260" y="8" on="0"/>
        <pt x="247" y="8" on="1"/>
        <pt x="228" y="8" on="0"/>
        <pt x="200" y="25" on="0"/>
      </contour>
      <contour>
        <pt x="670" y="689" on="1"/>
        <pt x="670" y="711" on="0"/>
        <pt x="696" y="756" on="0"/>
        <pt x="737" y="792" on="0"/>
        <pt x="786" y="814" on="0"/>
        <pt x="809" y="814" on="1"/>
        <pt x="833" y="814" on="0"/>
        <pt x="883" y="804" on="0"/>
        <pt x="924" y="779" on="0"/>
        <pt x="950" y="734" on="0"/>
        <pt x="950" y="700" on="1"/>
        <pt x="950" y="580" on="0"/>
        <pt x="825" y="580" on="1"/>
        <pt x="804" y="580" on="0"/>
        <pt x="751" y="589" on="0"/>
        <pt x="703" y="614" on="0"/>
        <pt x="670" y="656" on="0"/>
      </contour>
    </TTGlyph>
    <TTGlyph name="Lslash" xMin="-13" yMin="27" xMax="1163" yMax="1409">
      <contour>
        <pt x="198" y="97" on="1"/>
        <pt x="198" y="131" on="0"/>
        <pt x="207" y="161" on="0"/>
        <pt x="209" y="168" on="1"/>
        <pt x="209" y="210" on="0"/>
        <pt x="210" y="264" on="0"/>
        <pt x="212" y="299" on="0"/>
        <pt x="215" y="323" on="0"/>
        <pt x="217" y="347" on="0"/>
        <pt x="218" y="376" on="0"/>
        <pt x="218" y="400" on="1"/>
        <pt x="218" y="435" on="0"/>
        <pt x="216" y="506" on="0"/>
        <pt x="214" y="542" on="1"/>
        <pt x="142" y="496" on="1"/>
        <pt x="128" y="488" on="0"/>
        <pt x="100" y="481" on="0"/>
        <pt x="87" y="481" on="1"/>
        <pt x="60" y="481" on="0"/>
        <pt x="22" y="498" on="0"/>
        <pt x="-2" y="526" on="0"/>
        <pt x="-13" y="561" on="0"/>
        <pt x="-13" y="579" on="1"/>
        <pt x="-13" y="602" on="0"/>
        <pt x="4" y="641" on="0"/>
        <pt x="22" y="649" on="1"/>
        <pt x="102" y="686" on="0"/>
        <pt x="202" y="742" on="1"/>
        <pt x="196" y="838" on="0"/>
        <pt x="185" y="1031" on="0"/>
        <pt x="185" y="1131" on="1"/>
        <pt x="185" y="1210" on="0"/>
        <pt x="188" y="1317" on="0"/>
        <pt x="204" y="1381" on="0"/>
        <pt x="237" y="1409" on="0"/>
        <pt x="267" y="1409" on="1"/>
        <pt x="287" y="1409" on="0"/>
        <pt x="325" y="1391" on="0"/>
        <pt x="354" y="1360" on="0"/>
        <pt x="371" y="1319" on="0"/>
        <pt x="371" y="1297" on="1"/>
        <pt x="371" y="1257" on="0"/>
        <pt x="367" y="1175" on="0"/>
        <pt x="367" y="1137" on="1"/>
        <pt x="367" y="991" on="0"/>
        <pt x="373" y="843" on="1"/>
        <pt x="465" y="900" on="0"/>
        <pt x="642" y="1017" on="0"/>
        <pt x="717" y="1071" on="1"/>
        <pt x="731" y="1081" on="0"/>
        <pt x="768" y="1096" on="0"/>
        <pt x="788" y="1096" on="1"/>
        <pt x="800" y="1096" on="0"/>
        <pt x="833" y="1083" on="0"/>
        <pt x="861" y="1060" on="0"/>
        <pt x="881" y="1027" on="0"/>
        <pt x="881" y="1007" on="1"/>
        <pt x="881" y="977" on="0"/>
        <pt x="836" y="934" on="0"/>
        <pt x="807" y="916" on="1"/>
        <pt x="381" y="647" on="1"/>
        <pt x="385" y="551" on="0"/>
        <pt x="391" y="358" on="0"/>
        <pt x="393" y="256" on="1"/>
        <pt x="393" y="239" on="0"/>
        <pt x="398" y="234" on="0"/>
        <pt x="418" y="234" on="1"/>
        <pt x="444" y="233" on="0"/>
        <pt x="537" y="229" on="0"/>
        <pt x="663" y="225" on="0"/>
        <pt x="820" y="222" on="0"/>
        <pt x="911" y="222" on="1"/>
        <pt x="949" y="222" on="0"/>
        <pt x="1025" y="237" on="0"/>
        <pt x="1067" y="237" on="1"/>
        <pt x="1087" y="237" on="0"/>
        <pt x="1122" y="219" on="0"/>
        <pt x="1148" y="190" on="0"/>
        <pt x="1163" y="153" on="0"/>
        <pt x="1163" y="133" on="1"/>
        <pt x="1163" y="115" on="0"/>
        <pt x="1143" y="77" on="0"/>
        <pt x="1111" y="47" on="0"/>
        <pt x="1071" y="27" on="0"/>
        <pt x="1052" y="27" on="1"/>
        <pt x="1023" y="27" on="0"/>
        <pt x="980" y="36" on="0"/>
        <pt x="933" y="48" on="0"/>
        <pt x="876" y="57" on="0"/>
        <pt x="833" y="57" on="1"/>
        <pt x="733" y="57" on="0"/>
        <pt x="530" y="36" on="0"/>
        <pt x="429" y="36" on="1"/>
        <pt x="395" y="36" on="0"/>
        <pt x="328" y="49" on="0"/>
        <pt x="292" y="49" on="1"/>
        <pt x="286" y="49" on="0"/>
        <pt x="258" y="46" on="0"/>
        <pt x="245" y="46" on="1"/>
        <pt x="226" y="46" on="0"/>
        <pt x="198" y="63" on="0"/>
      </contour>
    </TTGlyph>
    <TTGlyph name="M" xMin="188" yMin="-35" xMax="1530" yMax="1377">
      <contour>
        <pt x="188" y="177" on="1"/>
        <pt x="188" y="200" on="0"/>
        <pt x="198" y="248" on="0"/>
        <pt x="198" y="270" on="1"/>
        <pt x="198" y="489" on="0"/>
        <pt x="202" y="790" on="0"/>
        <pt x="207" y="990" on="0"/>
        <pt x="211" y="1109" on="0"/>
        <pt x="211" y="1146" on="1"/>
        <pt x="211" y="1191" on="0"/>
        <pt x="228" y="1273" on="0"/>
        <pt x="258" y="1336" on="0"/>
        <pt x="300" y="1373" on="0"/>
        <pt x="326" y="1373" on="1"/>
        <pt x="348" y="1373" on="0"/>
        <pt x="380" y="1352" on="0"/>
        <pt x="402" y="1320" on="0"/>
        <pt x="413" y="1280" on="0"/>
        <pt x="413" y="1261" on="1"/>
        <pt x="413" y="1256" on="1"/>
        <pt x="417" y="1243" on="0"/>
        <pt x="420" y="1224" on="1"/>
        <pt x="423" y="1204" on="0"/>
        <pt x="454" y="1127" on="0"/>
        <pt x="500" y="1031" on="0"/>
        <pt x="555" y="925" on="0"/>
        <pt x="607" y="825" on="0"/>
        <pt x="652" y="741" on="0"/>
        <pt x="665" y="715" on="1"/>
        <pt x="673" y="698" on="0"/>
        <pt x="698" y="647" on="0"/>
        <pt x="726" y="591" on="0"/>
        <pt x="755" y="535" on="0"/>
        <pt x="779" y="491" on="0"/>
        <pt x="796" y="463" on="0"/>
        <pt x="799" y="463" on="1"/>
        <pt x="809" y="463" on="0"/>
        <pt x="835" y="482" on="0"/>
        <pt x="860" y="508" on="0"/>
        <pt x="879" y="532" on="0"/>
        <pt x="883" y="538" on="1"/>
        <pt x="891" y="551" on="0"/>
        <pt x="913" y="584" on="0"/>
        <pt x="944" y="633" on="0"/>
        <pt x="986" y="702" on="0"/>
        <pt x="1016" y="752" on="1"/>
        <pt x="1047" y="804" on="0"/>
        <pt x="1124" y="922" on="0"/>
        <pt x="1202" y="1043" on="0"/>
        <pt x="1273" y="1161" on="0"/>
        <pt x="1297" y="1212" on="1"/>
        <pt x="1305" y="1230" on="0"/>
        <pt x="1321" y="1272" on="0"/>
        <pt x="1332" y="1292" on="1"/>
        <pt x="1338" y="1309" on="0"/>
        <pt x="1353" y="1340" on="0"/>
        <pt x="1374" y="1363" on="0"/>
        <pt x="1401" y="1377" on="0"/>
        <pt x="1420" y="1377" on="1"/>
        <pt x="1471" y="1377" on="0"/>
        <pt x="1530" y="1318" on="0"/>
        <pt x="1530" y="1267" on="1"/>
        <pt x="1530" y="966" on="0"/>
        <pt x="1511" y="346" on="0"/>
        <pt x="1511" y="30" on="1"/>
        <pt x="1511" y="10" on="0"/>
        <pt x="1492" y="-15" on="0"/>
        <pt x="1467" y="-29" on="0"/>
        <pt x="1443" y="-35" on="0"/>
        <pt x="1437" y="-35" on="1"/>
        <pt x="1434" y="-35" on="0"/>
        <pt x="1391" y="-26" on="0"/>
        <pt x="1340" y="-2" on="0"/>
        <pt x="1299" y="41" on="0"/>
        <pt x="1299" y="76" on="1"/>
        <pt x="1299" y="100" on="0"/>
        <pt x="1311" y="151" on="0"/>
        <pt x="1326" y="201" on="0"/>
        <pt x="1340" y="250" on="0"/>
        <pt x="1342" y="274" on="1"/>
        <pt x="1342" y="778" on="1"/>
        <pt x="1342" y="815" on="0"/>
        <pt x="1341" y="896" on="0"/>
        <pt x="1339" y="937" on="1"/>
        <pt x="1300" y="886" on="0"/>
        <pt x="1227" y="765" on="0"/>
        <pt x="1154" y="637" on="0"/>
        <pt x="1082" y="509" on="0"/>
        <pt x="1008" y="392" on="0"/>
        <pt x="929" y="293" on="0"/>
        <pt x="887" y="258" on="1"/>
        <pt x="882" y="254" on="0"/>
        <pt x="871" y="243" on="0"/>
        <pt x="851" y="233" on="0"/>
        <pt x="819" y="226" on="0"/>
        <pt x="793" y="226" on="1"/>
        <pt x="771" y="226" on="0"/>
        <pt x="718" y="270" on="0"/>
        <pt x="662" y="340" on="0"/>
        <pt x="606" y="426" on="0"/>
        <pt x="558" y="509" on="0"/>
        <pt x="520" y="580" on="0"/>
        <pt x="510" y="601" on="1"/>
        <pt x="379" y="869" on="1"/>
        <pt x="377" y="819" on="0"/>
        <pt x="375" y="690" on="0"/>
        <pt x="375" y="608" on="1"/>
        <pt x="375" y="247" on="1"/>
        <pt x="378" y="227" on="0"/>
        <pt x="394" y="177" on="0"/>
        <pt x="394" y="154" on="1"/>
        <pt x="394" y="88" on="0"/>
        <pt x="359" y="7" on="0"/>
        <pt x="314" y="7" on="1"/>
        <pt x="269" y="7" on="0"/>
        <pt x="218" y="33" on="0"/>
        <pt x="194" y="79" on="0"/>
        <pt x="188" y="141" on="0"/>
      </contour>
    </TTGlyph>
    <TTGlyph name="N" xMin="202" yMin="-67" xMax="1272" yMax="1462">
      <contour>
        <pt x="209" y="177" on="1"/>
        <pt x="209" y="216" on="0"/>
        <pt x="207" y="314" on="0"/>
        <pt x="207" y="356" on="1"/>
        <pt x="207" y="420" on="0"/>
        <pt x="209" y="562" on="0"/>
        <pt x="211" y="709" on="0"/>
        <pt x="213" y="857" on="0"/>
        <pt x="213" y="929" on="1"/>
        <pt x="213" y="1003" on="0"/>
        <pt x="202" y="1151" on="0"/>
        <pt x="202" y="1234" on="1"/>
        <pt x="202" y="1248" on="0"/>
        <pt x="211" y="1290" on="0"/>
        <pt x="231" y="1329" on="0"/>
        <pt x="261" y="1356" on="0"/>
        <pt x="282" y="1356" on="1"/>
        <pt x="324" y="1356" on="0"/>
        <pt x="381" y="1317" on="0"/>
        <pt x="420" y="1253" on="0"/>
        <pt x="446" y="1171" on="0"/>
        <pt x="469" y="1085" on="0"/>
        <pt x="494" y="1002" on="0"/>
        <pt x="513" y="969" on="1"/>
        <pt x="546" y="910" on="0"/>
        <pt x="626" y="772" on="0"/>
        <pt x="709" y="634" on="0"/>
        <pt x="788" y="505" on="0"/>
        <pt x="821" y="455" on="1"/>
        <pt x="859" y="404" on="0"/>
        <pt x="930" y="310" on="0"/>
        <pt x="988" y="239" on="0"/>
        <pt x="1029" y="197" on="0"/>
        <pt x="1038" y="197" on="1"/>
        <pt x="1041" y="197" on="0"/>
        <pt x="1048" y="243" on="0"/>
        <pt x="1054" y="316" on="0"/>
        <pt x="1061" y="407" on="0"/>
        <pt x="1066" y="496" on="0"/>
        <pt x="1071" y="574" on="0"/>
        <pt x="1072" y="598" on="1"/>
        <pt x="1073" y="728" on="0"/>
        <pt x="1075" y="926" on="0"/>
        <pt x="1076" y="1081" on="0"/>
        <pt x="1076" y="1203" on="0"/>
        <pt x="1076" y="1257" on="1"/>
        <pt x="1076" y="1307" on="0"/>
        <pt x="1084" y="1383" on="0"/>
        <pt x="1107" y="1435" on="0"/>
        <pt x="1146" y="1462" on="0"/>
        <pt x="1176" y="1462" on="1"/>
        <pt x="1201" y="1462" on="0"/>
        <pt x="1237" y="1455" on="0"/>
        <pt x="1261" y="1430" on="0"/>
        <pt x="1272" y="1381" on="0"/>
        <pt x="1272" y="1339" on="1"/>
        <pt x="1272" y="1236" on="0"/>
        <pt x="1262" y="1035" on="0"/>
        <pt x="1259" y="931" on="1"/>
        <pt x="1254" y="754" on="0"/>
        <pt x="1234" y="387" on="0"/>
        <pt x="1224" y="205" on="1"/>
        <pt x="1221" y="163" on="0"/>
        <pt x="1217" y="67" on="0"/>
        <pt x="1190" y="-14" on="0"/>
        <pt x="1127" y="-67" on="0"/>
        <pt x="1063" y="-67" on="1"/>
        <pt x="1049" y="-67" on="0"/>
        <pt x="1023" y="-57" on="0"/>
        <pt x="1000" y="-44" on="0"/>
        <pt x="982" y="-28" on="0"/>
        <pt x="978" y="-22" on="1"/>
        <pt x="890" y="69" on="0"/>
        <pt x="727" y="280" on="0"/>
        <pt x="577" y="502" on="0"/>
        <pt x="442" y="729" on="0"/>
        <pt x="384" y="837" on="1"/>
        <pt x="384" y="588" on="0"/>
        <pt x="398" y="336" on="0"/>
        <pt x="400" y="322" on="1"/>
        <pt x="406" y="291" on="0"/>
        <pt x="419" y="207" on="0"/>
        <pt x="419" y="159" on="1"/>
        <pt x="419" y="131" on="0"/>
        <pt x="410" y="81" on="0"/>
        <pt x="388" y="43" on="0"/>
        <pt x="352" y="21" on="0"/>
        <pt x="325" y="21" on="1"/>
        <pt x="286" y="21" on="0"/>
        <pt x="240" y="46" on="0"/>
        <pt x="216" y="89" on="0"/>
        <pt x="209" y="146" on="0"/>
      </contour>
    </TTGlyph>
    <TTGlyph name="Nacute" xMin="197" yMin="-67" xMax="1267" yMax="1870">
      <contour>
        <pt x="561" y="1520" on="1"/>
        <pt x="537" y="1520" on="0"/>
        <pt x="505" y="1532" on="0"/>
        <pt x="485" y="1549" on="0"/>
        <pt x="477" y="1568" on="0"/>
        <pt x="477" y="1574" on="1"/>
        <pt x="477" y="1614" on="0"/>
        <pt x="516" y="1662" on="0"/>
        <pt x="574" y="1693" on="0"/>
        <pt x="640" y="1716" on="0"/>
        <pt x="666" y="1732" on="1"/>
        <pt x="675" y="1738" on="0"/>
        <pt x="715" y="1763" on="0"/>
        <pt x="765" y="1793" on="0"/>
        <pt x="822" y="1826" on="0"/>
        <pt x="876" y="1853" on="0"/>
        <pt x="922" y="1870" on="0"/>
        <pt x="937" y="1870" on="1"/>
        <pt x="951" y="1870" on="0"/>
        <pt x="980" y="1859" on="0"/>
        <pt x="1003" y="1839" on="0"/>
        <pt x="1017" y="1811" on="0"/>
        <pt x="1017" y="1794" on="1"/>
        <pt x="1017" y="1766" on="0"/>
        <pt x="1002" y="1723" on="1"/>
        <pt x="998" y="1714" on="0"/>
        <pt x="948" y="1676" on="0"/>
        <pt x="872" y="1631" on="0"/>
        <pt x="777" y="1584" on="0"/>
        <pt x="681" y="1545" on="0"/>
        <pt x="593" y="1520" on="0"/>
      </contour>
      <contour>
        <pt x="204" y="177" on="1"/>
        <pt x="204" y="216" on="0"/>
        <pt x="202" y="314" on="0"/>
        <pt x="202" y="356" on="1"/>
        <pt x="202" y="420" on="0"/>
        <pt x="204" y="562" on="0"/>
        <pt x="206" y="709" on="0"/>
        <pt x="208" y="857" on="0"/>
        <pt x="208" y="929" on="1"/>
        <pt x="208" y="1003" on="0"/>
        <pt x="197" y="1151" on="0"/>
        <pt x="197" y="1234" on="1"/>
        <pt x="197" y="1248" on="0"/>
        <pt x="206" y="1290" on="0"/>
        <pt x="226" y="1329" on="0"/>
        <pt x="256" y="1356" on="0"/>
        <pt x="277" y="1356" on="1"/>
        <pt x="319" y="1356" on="0"/>
        <pt x="376" y="1317" on="0"/>
        <pt x="415" y="1253" on="0"/>
        <pt x="441" y="1171" on="0"/>
        <pt x="464" y="1085" on="0"/>
        <pt x="489" y="1002" on="0"/>
        <pt x="508" y="969" on="1"/>
        <pt x="541" y="910" on="0"/>
        <pt x="621" y="772" on="0"/>
        <pt x="704" y="634" on="0"/>
        <pt x="783" y="505" on="0"/>
        <pt x="816" y="455" on="1"/>
        <pt x="854" y="404" on="0"/>
        <pt x="925" y="310" on="0"/>
        <pt x="983" y="239" on="0"/>
        <pt x="1024" y="197" on="0"/>
        <pt x="1033" y="197" on="1"/>
        <pt x="1036" y="197" on="0"/>
        <pt x="1043" y="243" on="0"/>
        <pt x="1049" y="316" on="0"/>
        <pt x="1056" y="407" on="0"/>
        <pt x="1061" y="496" on="0"/>
        <pt x="1066" y="574" on="0"/>
        <pt x="1067" y="598" on="1"/>
        <pt x="1068" y="728" on="0"/>
        <pt x="1070" y="926" on="0"/>
        <pt x="1071" y="1081" on="0"/>
        <pt x="1071" y="1203" on="0"/>
        <pt x="1071" y="1257" on="1"/>
        <pt x="1071" y="1307" on="0"/>
        <pt x="1079" y="1383" on="0"/>
        <pt x="1102" y="1435" on="0"/>
        <pt x="1141" y="1462" on="0"/>
        <pt x="1171" y="1462" on="1"/>
        <pt x="1196" y="1462" on="0"/>
        <pt x="1232" y="1455" on="0"/>
        <pt x="1256" y="1430" on="0"/>
        <pt x="1267" y="1381" on="0"/>
        <pt x="1267" y="1339" on="1"/>
        <pt x="1267" y="1236" on="0"/>
        <pt x="1257" y="1035" on="0"/>
        <pt x="1254" y="931" on="1"/>
        <pt x="1249" y="754" on="0"/>
        <pt x="1229" y="387" on="0"/>
        <pt x="1219" y="205" on="1"/>
        <pt x="1216" y="163" on="0"/>
        <pt x="1212" y="67" on="0"/>
        <pt x="1185" y="-14" on="0"/>
        <pt x="1122" y="-67" on="0"/>
        <pt x="1058" y="-67" on="1"/>
        <pt x="1044" y="-67" on="0"/>
        <pt x="1018" y="-57" on="0"/>
        <pt x="995" y="-44" on="0"/>
        <pt x="977" y="-28" on="0"/>
        <pt x="973" y="-22" on="1"/>
        <pt x="885" y="69" on="0"/>
        <pt x="722" y="280" on="0"/>
        <pt x="572" y="502" on="0"/>
        <pt x="437" y="729" on="0"/>
        <pt x="379" y="837" on="1"/>
        <pt x="379" y="588" on="0"/>
        <pt x="393" y="336" on="0"/>
        <pt x="395" y="322" on="1"/>
        <pt x="401" y="291" on="0"/>
        <pt x="414" y="207" on="0"/>
        <pt x="414" y="159" on="1"/>
        <pt x="414" y="131" on="0"/>
        <pt x="405" y="81" on="0"/>
        <pt x="383" y="43" on="0"/>
        <pt x="347" y="21" on="0"/>
        <pt x="320" y="21" on="1"/>
        <pt x="281" y="21" on="0"/>
        <pt x="235" y="46" on="0"/>
        <pt x="211" y="89" on="0"/>
        <pt x="204" y="146" on="0"/>
      </contour>
    </TTGlyph>
    <TTGlyph name="Ntilde" xMin="197" yMin="-67" xMax="1267" yMax="1828">
      <contour>
        <pt x="375" y="1548" on="1"/>
        <pt x="343" y="1548" on="0"/>
        <pt x="310" y="1580" on="0"/>
        <pt x="310" y="1615" on="1"/>
        <pt x="310" y="1681" on="0"/>
        <pt x="372" y="1765" on="0"/>
        <pt x="465" y="1811" on="0"/>
        <pt x="572" y="1828" on="0"/>
        <pt x="617" y="1828" on="1"/>
        <pt x="657" y="1828" on="0"/>
        <pt x="714" y="1789" on="0"/>
        <pt x="764" y="1741" on="0"/>
        <pt x="816" y="1702" on="0"/>
        <pt x="851" y="1702" on="1"/>
        <pt x="876" y="1702" on="0"/>
        <pt x="920" y="1724" on="0"/>
        <pt x="965" y="1751" on="0"/>
        <pt x="1013" y="1773" on="0"/>
        <pt x="1043" y="1773" on="1"/>
        <pt x="1068" y="1773" on="0"/>
        <pt x="1095" y="1756" on="0"/>
        <pt x="1107" y="1731" on="0"/>
        <pt x="1109" y="1702" on="0"/>
        <pt x="1109" y="1690" on="1"/>
        <pt x="1109" y="1656" on="0"/>
        <pt x="1045" y="1595" on="0"/>
        <pt x="956" y="1548" on="0"/>
        <pt x="863" y="1521" on="0"/>
        <pt x="834" y="1521" on="1"/>
        <pt x="777" y="1521" on="0"/>
        <pt x="700" y="1561" on="0"/>
        <pt x="639" y="1608" on="0"/>
        <pt x="585" y="1648" on="0"/>
        <pt x="552" y="1648" on="1"/>
        <pt x="518" y="1648" on="0"/>
        <pt x="473" y="1617" on="0"/>
        <pt x="437" y="1579" on="0"/>
        <pt x="400" y="1548" on="0"/>
      </contour>
      <contour>
        <pt x="204" y="177" on="1"/>
        <pt x="204" y="216" on="0"/>
        <pt x="202" y="314" on="0"/>
        <pt x="202" y="356" on="1"/>
        <pt x="202" y="420" on="0"/>
        <pt x="204" y="562" on="0"/>
        <pt x="206" y="709" on="0"/>
        <pt x="208" y="857" on="0"/>
        <pt x="208" y="929" on="1"/>
        <pt x="208" y="1003" on="0"/>
        <pt x="197" y="1151" on="0"/>
        <pt x="197" y="1234" on="1"/>
        <pt x="197" y="1248" on="0"/>
        <pt x="206" y="1290" on="0"/>
        <pt x="226" y="1329" on="0"/>
        <pt x="256" y="1356" on="0"/>
        <pt x="277" y="1356" on="1"/>
        <pt x="319" y="1356" on="0"/>
        <pt x="376" y="1317" on="0"/>
        <pt x="415" y="1253" on="0"/>
        <pt x="441" y="1171" on="0"/>
        <pt x="464" y="1085" on="0"/>
        <pt x="489" y="1002" on="0"/>
        <pt x="508" y="969" on="1"/>
        <pt x="541" y="910" on="0"/>
        <pt x="621" y="772" on="0"/>
        <pt x="704" y="634" on="0"/>
        <pt x="783" y="505" on="0"/>
        <pt x="816" y="455" on="1"/>
        <pt x="854" y="404" on="0"/>
        <pt x="925" y="310" on="0"/>
        <pt x="983" y="239" on="0"/>
        <pt x="1024" y="197" on="0"/>
        <pt x="1033" y="197" on="1"/>
        <pt x="1036" y="197" on="0"/>
        <pt x="1043" y="243" on="0"/>
        <pt x="1049" y="316" on="0"/>
        <pt x="1056" y="407" on="0"/>
        <pt x="1061" y="496" on="0"/>
        <pt x="1066" y="574" on="0"/>
        <pt x="1067" y="598" on="1"/>
        <pt x="1068" y="728" on="0"/>
        <pt x="1070" y="926" on="0"/>
        <pt x="1071" y="1081" on="0"/>
        <pt x="1071" y="1203" on="0"/>
        <pt x="1071" y="1257" on="1"/>
        <pt x="1071" y="1307" on="0"/>
        <pt x="1079" y="1383" on="0"/>
        <pt x="1102" y="1435" on="0"/>
        <pt x="1141" y="1462" on="0"/>
        <pt x="1171" y="1462" on="1"/>
        <pt x="1196" y="1462" on="0"/>
        <pt x="1232" y="1455" on="0"/>
        <pt x="1256" y="1430" on="0"/>
        <pt x="1267" y="1381" on="0"/>
        <pt x="1267" y="1339" on="1"/>
        <pt x="1267" y="1236" on="0"/>
        <pt x="1257" y="1035" on="0"/>
        <pt x="1254" y="931" on="1"/>
        <pt x="1249" y="754" on="0"/>
        <pt x="1229" y="387" on="0"/>
        <pt x="1219" y="205" on="1"/>
        <pt x="1216" y="163" on="0"/>
        <pt x="1212" y="67" on="0"/>
        <pt x="1185" y="-14" on="0"/>
        <pt x="1122" y="-67" on="0"/>
        <pt x="1058" y="-67" on="1"/>
        <pt x="1044" y="-67" on="0"/>
        <pt x="1018" y="-57" on="0"/>
        <pt x="995" y="-44" on="0"/>
        <pt x="977" y="-28" on="0"/>
        <pt x="973" y="-22" on="1"/>
        <pt x="885" y="69" on="0"/>
        <pt x="722" y="280" on="0"/>
        <pt x="572" y="502" on="0"/>
        <pt x="437" y="729" on="0"/>
        <pt x="379" y="837" on="1"/>
        <pt x="379" y="588" on="0"/>
        <pt x="393" y="336" on="0"/>
        <pt x="395" y="322" on="1"/>
        <pt x="401" y="291" on="0"/>
        <pt x="414" y="207" on="0"/>
        <pt x="414" y="159" on="1"/>
        <pt x="414" y="131" on="0"/>
        <pt x="405" y="81" on="0"/>
        <pt x="383" y="43" on="0"/>
        <pt x="347" y="21" on="0"/>
        <pt x="320" y="21" on="1"/>
        <pt x="281" y="21" on="0"/>
        <pt x="235" y="46" on="0"/>
        <pt x="211" y="89" on="0"/>
        <pt x="204" y="146" on="0"/>
      </contour>
    </TTGlyph>
    <TTGlyph name="O" xMin="128" yMin="-26" xMax="1530" yMax="1390">
      <contour>
        <pt x="128" y="681" on="1"/>
        <pt x="128" y="810" on="0"/>
        <pt x="185" y="1016" on="0"/>
        <pt x="286" y="1173" on="0"/>
        <pt x="425" y="1285" on="0"/>
        <pt x="587" y="1357" on="0"/>
        <pt x="766" y="1390" on="0"/>
        <pt x="857" y="1390" on="1"/>
        <pt x="1014" y="1390" on="0"/>
        <pt x="1264" y="1288" on="0"/>
        <pt x="1438" y="1097" on="0"/>
        <pt x="1530" y="822" on="0"/>
        <pt x="1530" y="649" on="1"/>
        <pt x="1530" y="549" on="0"/>
        <pt x="1477" y="371" on="0"/>
        <pt x="1383" y="221" on="0"/>
        <pt x="1254" y="102" on="0"/>
        <pt x="1100" y="18" on="0"/>
        <pt x="928" y="-26" on="0"/>
        <pt x="839" y="-26" on="1"/>
        <pt x="744" y="-26" on="0"/>
        <pt x="565" y="34" on="0"/>
        <pt x="407" y="138" on="0"/>
        <pt x="275" y="276" on="0"/>
        <pt x="181" y="434" on="0"/>
        <pt x="128" y="601" on="0"/>
      </contour>
      <contour>
        <pt x="310" y="711" on="1"/>
        <pt x="310" y="643" on="0"/>
        <pt x="349" y="506" on="0"/>
        <pt x="420" y="380" on="0"/>
        <pt x="516" y="271" on="0"/>
        <pt x="631" y="190" on="0"/>
        <pt x="759" y="143" on="0"/>
        <pt x="826" y="143" on="1"/>
        <pt x="932" y="143" on="0"/>
        <pt x="1123" y="212" on="0"/>
        <pt x="1267" y="346" on="0"/>
        <pt x="1351" y="544" on="0"/>
        <pt x="1351" y="673" on="1"/>
        <pt x="1351" y="799" on="0"/>
        <pt x="1280" y="1001" on="0"/>
        <pt x="1154" y="1143" on="0"/>
        <pt x="982" y="1219" on="0"/>
        <pt x="881" y="1219" on="1"/>
        <pt x="772" y="1219" on="0"/>
        <pt x="567" y="1157" on="0"/>
        <pt x="407" y="1031" on="0"/>
        <pt x="310" y="840" on="0"/>
      </contour>
    </TTGlyph>
    <TTGlyph name="OE" xMin="128" yMin="-26" xMax="2347" yMax="1390">
      <contour>
        <pt x="128" y="681" on="1"/>
        <pt x="128" y="810" on="0"/>
        <pt x="185" y="1016" on="0"/>
        <pt x="286" y="1173" on="0"/>
        <pt x="424" y="1285" on="0"/>
        <pt x="585" y="1357" on="0"/>
        <pt x="764" y="1390" on="0"/>
        <pt x="855" y="1390" on="1"/>
        <pt x="1000" y="1390" on="0"/>
        <pt x="1230" y="1305" on="0"/>
        <pt x="1317" y="1222" on="1"/>
        <pt x="1319" y="1247" on="0"/>
        <pt x="1331" y="1295" on="0"/>
        <pt x="1355" y="1332" on="0"/>
        <pt x="1392" y="1355" on="0"/>
        <pt x="1420" y="1355" on="1"/>
        <pt x="1441" y="1355" on="0"/>
        <pt x="1480" y="1343" on="0"/>
        <pt x="1500" y="1334" on="1"/>
        <pt x="1499" y="1334" on="1"/>
        <pt x="1517" y="1324" on="0"/>
        <pt x="1561" y="1308" on="0"/>
        <pt x="1590" y="1308" on="1"/>
        <pt x="1650" y="1308" on="0"/>
        <pt x="1803" y="1311" on="0"/>
        <pt x="1965" y="1316" on="0"/>
        <pt x="2125" y="1319" on="0"/>
        <pt x="2194" y="1319" on="1"/>
        <pt x="2238" y="1319" on="0"/>
        <pt x="2297" y="1312" on="0"/>
        <pt x="2332" y="1291" on="0"/>
        <pt x="2347" y="1251" on="0"/>
        <pt x="2347" y="1217" on="1"/>
        <pt x="2347" y="1204" on="0"/>
        <pt x="2332" y="1177" on="0"/>
        <pt x="2307" y="1154" on="0"/>
        <pt x="2276" y="1139" on="0"/>
        <pt x="2260" y="1139" on="1"/>
        <pt x="1498" y="1145" on="1"/>
        <pt x="1492" y="1115" on="0"/>
        <pt x="1492" y="1032" on="0"/>
        <pt x="1496" y="941" on="0"/>
        <pt x="1500" y="849" on="0"/>
        <pt x="1499" y="809" on="1"/>
        <pt x="1539" y="809" on="0"/>
        <pt x="1639" y="808" on="0"/>
        <pt x="1743" y="806" on="0"/>
        <pt x="1843" y="805" on="0"/>
        <pt x="1884" y="805" on="1"/>
        <pt x="1914" y="805" on="0"/>
        <pt x="1988" y="818" on="0"/>
        <pt x="2038" y="818" on="1"/>
        <pt x="2077" y="818" on="0"/>
        <pt x="2133" y="771" on="0"/>
        <pt x="2133" y="718" on="1"/>
        <pt x="2133" y="711" on="0"/>
        <pt x="2124" y="682" on="0"/>
        <pt x="2105" y="652" on="0"/>
        <pt x="2074" y="630" on="0"/>
        <pt x="2053" y="630" on="1"/>
        <pt x="1513" y="630" on="1"/>
        <pt x="1514" y="605" on="0"/>
        <pt x="1516" y="517" on="0"/>
        <pt x="1518" y="407" on="0"/>
        <pt x="1519" y="281" on="0"/>
        <pt x="1520" y="218" on="1"/>
        <pt x="1568" y="218" on="0"/>
        <pt x="1629" y="216" on="0"/>
        <pt x="1664" y="215" on="0"/>
        <pt x="1680" y="213" on="0"/>
        <pt x="1684" y="213" on="1"/>
        <pt x="1733" y="211" on="0"/>
        <pt x="1848" y="200" on="0"/>
        <pt x="1958" y="187" on="0"/>
        <pt x="2050" y="177" on="0"/>
        <pt x="2077" y="177" on="1"/>
        <pt x="2093" y="177" on="0"/>
        <pt x="2143" y="178" on="0"/>
        <pt x="2195" y="179" on="0"/>
        <pt x="2241" y="180" on="0"/>
        <pt x="2255" y="180" on="1"/>
        <pt x="2282" y="180" on="0"/>
        <pt x="2317" y="159" on="0"/>
        <pt x="2336" y="126" on="0"/>
        <pt x="2344" y="88" on="0"/>
        <pt x="2344" y="71" on="1"/>
        <pt x="2344" y="44" on="0"/>
        <pt x="2323" y="6" on="0"/>
        <pt x="2286" y="-16" on="0"/>
        <pt x="2237" y="-26" on="0"/>
        <pt x="2209" y="-26" on="1"/>
        <pt x="2186" y="-26" on="0"/>
        <pt x="2156" y="-18" on="0"/>
        <pt x="2119" y="-6" on="0"/>
        <pt x="2064" y="8" on="0"/>
        <pt x="1967" y="20" on="0"/>
        <pt x="1816" y="28" on="0"/>
        <pt x="1702" y="28" on="1"/>
        <pt x="1642" y="28" on="0"/>
        <pt x="1514" y="17" on="0"/>
        <pt x="1446" y="17" on="1"/>
        <pt x="1422" y="17" on="0"/>
        <pt x="1380" y="35" on="0"/>
        <pt x="1349" y="66" on="0"/>
        <pt x="1332" y="109" on="0"/>
        <pt x="1332" y="135" on="1"/>
        <pt x="1332" y="175" on="1"/>
        <pt x="1283" y="129" on="0"/>
        <pt x="1167" y="55" on="0"/>
        <pt x="1040" y="2" on="0"/>
        <pt x="905" y="-26" on="0"/>
        <pt x="838" y="-26" on="1"/>
        <pt x="742" y="-26" on="0"/>
        <pt x="563" y="34" on="0"/>
        <pt x="405" y="138" on="0"/>
        <pt x="274" y="276" on="0"/>
        <pt x="180" y="434" on="0"/>
        <pt x="128" y="601" on="0"/>
      </contour>
      <contour>
        <pt x="318" y="711" on="1"/>
        <pt x="318" y="644" on="0"/>
        <pt x="357" y="509" on="0"/>
        <pt x="425" y="384" on="0"/>
        <pt x="520" y="275" on="0"/>
        <pt x="633" y="194" on="0"/>
        <pt x="759" y="148" on="0"/>
        <pt x="825" y="148" on="1"/>
        <pt x="894" y="148" on="0"/>
        <pt x="1046" y="182" on="0"/>
        <pt x="1187" y="252" on="0"/>
        <pt x="1302" y="356" on="0"/>
        <pt x="1334" y="427" on="1"/>
        <pt x="1334" y="640" on="1"/>
        <pt x="1325" y="656" on="0"/>
        <pt x="1313" y="694" on="0"/>
        <pt x="1313" y="713" on="1"/>
        <pt x="1313" y="728" on="0"/>
        <pt x="1326" y="770" on="0"/>
        <pt x="1334" y="781" on="1"/>
        <pt x="1334" y="939" on="1"/>
        <pt x="1305" y="1002" on="0"/>
        <pt x="1206" y="1103" on="0"/>
        <pt x="1084" y="1172" on="0"/>
        <pt x="947" y="1209" on="0"/>
        <pt x="880" y="1209" on="1"/>
        <pt x="772" y="1209" on="0"/>
        <pt x="570" y="1148" on="0"/>
        <pt x="413" y="1024" on="0"/>
        <pt x="318" y="837" on="0"/>
      </contour>
    </TTGlyph>
    <TTGlyph name="Oacute" xMin="128" yMin="-26" xMax="1530" yMax="1870">
      <contour>
        <pt x="675" y="1520" on="1"/>
        <pt x="651" y="1520" on="0"/>
        <pt x="619" y="1532" on="0"/>
        <pt x="599" y="1549" on="0"/>
        <pt x="591" y="1568" on="0"/>
        <pt x="591" y="1574" on="1"/>
        <pt x="591" y="1614" on="0"/>
        <pt x="630" y="1662" on="0"/>
        <pt x="688" y="1693" on="0"/>
        <pt x="754" y="1716" on="0"/>
        <pt x="780" y="1732" on="1"/>
        <pt x="789" y="1738" on="0"/>
        <pt x="829" y="1763" on="0"/>
        <pt x="879" y="1793" on="0"/>
        <pt x="936" y="1826" on="0"/>
        <pt x="990" y="1853" on="0"/>
        <pt x="1036" y="1870" on="0"/>
        <pt x="1051" y="1870" on="1"/>
        <pt x="1065" y="1870" on="0"/>
        <pt x="1094" y="1859" on="0"/>
        <pt x="1117" y="1839" on="0"/>
        <pt x="1131" y="1811" on="0"/>
        <pt x="1131" y="1794" on="1"/>
        <pt x="1131" y="1766" on="0"/>
        <pt x="1116" y="1723" on="1"/>
        <pt x="1112" y="1714" on="0"/>
        <pt x="1062" y="1676" on="0"/>
        <pt x="986" y="1631" on="0"/>
        <pt x="891" y="1584" on="0"/>
        <pt x="795" y="1545" on="0"/>
        <pt x="707" y="1520" on="0"/>
      </contour>
      <contour>
        <pt x="128" y="681" on="1"/>
        <pt x="128" y="810" on="0"/>
        <pt x="185" y="1016" on="0"/>
        <pt x="286" y="1173" on="0"/>
        <pt x="425" y="1285" on="0"/>
        <pt x="587" y="1357" on="0"/>
        <pt x="766" y="1390" on="0"/>
        <pt x="857" y="1390" on="1"/>
        <pt x="1014" y="1390" on="0"/>
        <pt x="1264" y="1288" on="0"/>
        <pt x="1438" y="1097" on="0"/>
        <pt x="1530" y="822" on="0"/>
        <pt x="1530" y="649" on="1"/>
        <pt x="1530" y="549" on="0"/>
        <pt x="1477" y="371" on="0"/>
        <pt x="1383" y="221" on="0"/>
        <pt x="1254" y="102" on="0"/>
        <pt x="1100" y="18" on="0"/>
        <pt x="928" y="-26" on="0"/>
        <pt x="839" y="-26" on="1"/>
        <pt x="744" y="-26" on="0"/>
        <pt x="565" y="34" on="0"/>
        <pt x="407" y="138" on="0"/>
        <pt x="275" y="276" on="0"/>
        <pt x="181" y="434" on="0"/>
        <pt x="128" y="601" on="0"/>
      </contour>
      <contour>
        <pt x="310" y="711" on="1"/>
        <pt x="310" y="643" on="0"/>
        <pt x="349" y="506" on="0"/>
        <pt x="420" y="380" on="0"/>
        <pt x="516" y="271" on="0"/>
        <pt x="631" y="190" on="0"/>
        <pt x="759" y="143" on="0"/>
        <pt x="826" y="143" on="1"/>
        <pt x="932" y="143" on="0"/>
        <pt x="1123" y="212" on="0"/>
        <pt x="1267" y="346" on="0"/>
        <pt x="1351" y="544" on="0"/>
        <pt x="1351" y="673" on="1"/>
        <pt x="1351" y="799" on="0"/>
        <pt x="1280" y="1001" on="0"/>
        <pt x="1154" y="1143" on="0"/>
        <pt x="982" y="1219" on="0"/>
        <pt x="881" y="1219" on="1"/>
        <pt x="772" y="1219" on="0"/>
        <pt x="567" y="1157" on="0"/>
        <pt x="407" y="1031" on="0"/>
        <pt x="310" y="840" on="0"/>
      </contour>
    </TTGlyph>
</ttFont>
